<mxfile host="Electron" modified="2023-09-14T01:01:36.059Z" agent="Mozilla/5.0 (Macintosh; Intel Mac OS X 10_15_7) AppleWebKit/537.36 (KHTML, like Gecko) draw.io/21.6.8 Chrome/114.0.5735.289 Electron/25.5.0 Safari/537.36" etag="4STnuFg4AiQPO6cI_QCC" version="21.6.8" type="device" pages="2">
  <diagram id="OqFywc7vgHvyI5QfRaEZ" name="Metadata">
    <mxGraphModel dx="659" dy="497" grid="1" gridSize="10" guides="1" tooltips="1" connect="1" arrows="1" fold="1" page="1" pageScale="1" pageWidth="850" pageHeight="1100" math="0" shadow="0">
      <root>
        <mxCell id="0" />
        <mxCell id="1" parent="0" />
        <mxCell id="8ZGQvoIe7DFn2iO92C5b-14" value="&lt;font style=&quot;font-size: 10px;&quot;&gt;Go to&amp;nbsp;&lt;span style=&quot;background-color: initial;&quot;&gt;&lt;a href=&quot;https://github.ibm.com/ibmcloud/ibm-cloud-stencils#tools--conventions&quot;&gt;Tools &amp;amp; Conventions &amp;gt; Diagrams Metadata&lt;/a&gt;&amp;nbsp;for more information&lt;/span&gt;&lt;br&gt;&lt;/font&gt;" style="text;html=1;strokeColor=none;fillColor=none;align=center;verticalAlign=middle;whiteSpace=wrap;rounded=0;fontSize=10;" parent="1" vertex="1">
          <mxGeometry x="270" y="450" width="240" height="50" as="geometry" />
        </mxCell>
        <mxCell id="UD3miY2fNGq_P93bhck5-1" value="Metadata" style="shape=table;startSize=30;container=1;collapsible=0;childLayout=tableLayout;fontSize=10;whiteSpace=wrap;" vertex="1" parent="1">
          <mxGeometry x="240" y="330" width="330" height="110" as="geometry" />
        </mxCell>
        <mxCell id="UD3miY2fNGq_P93bhck5-2" value="" style="shape=tableRow;horizontal=0;startSize=0;swimlaneHead=0;swimlaneBody=0;strokeColor=inherit;top=0;left=0;bottom=0;right=0;collapsible=0;dropTarget=0;fillColor=none;points=[[0,0.5],[1,0.5]];portConstraint=eastwest;fontSize=8;" vertex="1" parent="UD3miY2fNGq_P93bhck5-1">
          <mxGeometry y="30" width="330" height="40" as="geometry" />
        </mxCell>
        <mxCell id="UD3miY2fNGq_P93bhck5-3" value="Date Created" style="shape=partialRectangle;html=1;whiteSpace=wrap;connectable=0;strokeColor=inherit;overflow=hidden;fillColor=none;top=0;left=0;bottom=0;right=0;pointerEvents=1;fontSize=8;" vertex="1" parent="UD3miY2fNGq_P93bhck5-2">
          <mxGeometry width="66" height="40" as="geometry">
            <mxRectangle width="66" height="40" as="alternateBounds" />
          </mxGeometry>
        </mxCell>
        <mxCell id="UD3miY2fNGq_P93bhck5-4" value="Date Updated" style="shape=partialRectangle;html=1;whiteSpace=wrap;connectable=0;strokeColor=inherit;overflow=hidden;fillColor=none;top=0;left=0;bottom=0;right=0;pointerEvents=1;fontSize=8;" vertex="1" parent="UD3miY2fNGq_P93bhck5-2">
          <mxGeometry x="66" width="66" height="40" as="geometry">
            <mxRectangle width="66" height="40" as="alternateBounds" />
          </mxGeometry>
        </mxCell>
        <mxCell id="UD3miY2fNGq_P93bhck5-5" value="Diagram Version" style="shape=partialRectangle;html=1;whiteSpace=wrap;connectable=0;strokeColor=inherit;overflow=hidden;fillColor=none;top=0;left=0;bottom=0;right=0;pointerEvents=1;fontSize=8;" vertex="1" parent="UD3miY2fNGq_P93bhck5-2">
          <mxGeometry x="132" width="66" height="40" as="geometry">
            <mxRectangle width="66" height="40" as="alternateBounds" />
          </mxGeometry>
        </mxCell>
        <mxCell id="UD3miY2fNGq_P93bhck5-6" value="File Format" style="shape=partialRectangle;html=1;whiteSpace=wrap;connectable=0;strokeColor=inherit;overflow=hidden;fillColor=none;top=0;left=0;bottom=0;right=0;pointerEvents=1;fontSize=8;" vertex="1" parent="UD3miY2fNGq_P93bhck5-2">
          <mxGeometry x="198" width="66" height="40" as="geometry">
            <mxRectangle width="66" height="40" as="alternateBounds" />
          </mxGeometry>
        </mxCell>
        <mxCell id="UD3miY2fNGq_P93bhck5-7" value="Stencils Source/Version" style="shape=partialRectangle;html=1;whiteSpace=wrap;connectable=0;strokeColor=inherit;overflow=hidden;fillColor=none;top=0;left=0;bottom=0;right=0;pointerEvents=1;fontSize=8;" vertex="1" parent="UD3miY2fNGq_P93bhck5-2">
          <mxGeometry x="264" width="66" height="40" as="geometry">
            <mxRectangle width="66" height="40" as="alternateBounds" />
          </mxGeometry>
        </mxCell>
        <mxCell id="UD3miY2fNGq_P93bhck5-8" style="shape=tableRow;horizontal=0;startSize=0;swimlaneHead=0;swimlaneBody=0;strokeColor=inherit;top=0;left=0;bottom=0;right=0;collapsible=0;dropTarget=0;fillColor=none;points=[[0,0.5],[1,0.5]];portConstraint=eastwest;fontSize=8;" vertex="1" parent="UD3miY2fNGq_P93bhck5-1">
          <mxGeometry y="70" width="330" height="40" as="geometry" />
        </mxCell>
        <mxCell id="UD3miY2fNGq_P93bhck5-9" value="09/13/2023" style="shape=partialRectangle;html=1;whiteSpace=wrap;connectable=0;strokeColor=inherit;overflow=hidden;fillColor=none;top=0;left=0;bottom=0;right=0;pointerEvents=1;fontSize=8;" vertex="1" parent="UD3miY2fNGq_P93bhck5-8">
          <mxGeometry width="66" height="40" as="geometry">
            <mxRectangle width="66" height="40" as="alternateBounds" />
          </mxGeometry>
        </mxCell>
        <mxCell id="UD3miY2fNGq_P93bhck5-10" value="09/13/2023" style="shape=partialRectangle;html=1;whiteSpace=wrap;connectable=0;strokeColor=inherit;overflow=hidden;fillColor=none;top=0;left=0;bottom=0;right=0;pointerEvents=1;fontSize=8;" vertex="1" parent="UD3miY2fNGq_P93bhck5-8">
          <mxGeometry x="66" width="66" height="40" as="geometry">
            <mxRectangle width="66" height="40" as="alternateBounds" />
          </mxGeometry>
        </mxCell>
        <mxCell id="UD3miY2fNGq_P93bhck5-11" value="1.0.0" style="shape=partialRectangle;html=1;whiteSpace=wrap;connectable=0;strokeColor=inherit;overflow=hidden;fillColor=none;top=0;left=0;bottom=0;right=0;pointerEvents=1;fontSize=8;" vertex="1" parent="UD3miY2fNGq_P93bhck5-8">
          <mxGeometry x="132" width="66" height="40" as="geometry">
            <mxRectangle width="66" height="40" as="alternateBounds" />
          </mxGeometry>
        </mxCell>
        <mxCell id="UD3miY2fNGq_P93bhck5-12" value="&lt;b&gt;&amp;nbsp;&lt;/b&gt;&lt;a href=&quot;https://github.com/jgraph/drawio-desktop/releases&quot; style=&quot;font-size: 8px;&quot;&gt;Desktop drawio&lt;/a&gt;" style="shape=partialRectangle;html=1;whiteSpace=wrap;connectable=0;strokeColor=inherit;overflow=hidden;fillColor=none;top=0;left=0;bottom=0;right=0;pointerEvents=1;fontSize=8;" vertex="1" parent="UD3miY2fNGq_P93bhck5-8">
          <mxGeometry x="198" width="66" height="40" as="geometry">
            <mxRectangle width="66" height="40" as="alternateBounds" />
          </mxGeometry>
        </mxCell>
        <mxCell id="UD3miY2fNGq_P93bhck5-13" value="&lt;a href=&quot;https://github.ibm.com/ibmcloud/ibm-cloud-stencils#compatible-with-official-drawio-application-1&quot;&gt;Static 2.0 Libraries&lt;/a&gt;&amp;nbsp;/&lt;a href=&quot;https://github.ibm.com/ibmcloud/ibm-cloud-stencils/releases/tag/v1.6.4&quot;&gt; &lt;/a&gt;&lt;a href=&quot;https://github.ibm.com/ibmcloud/ibm-cloud-stencils/releases/tag/v1.6.4.1-updated_ver_xmls&quot;&gt;v1.6.4&lt;/a&gt;" style="shape=partialRectangle;html=1;whiteSpace=wrap;connectable=0;strokeColor=inherit;overflow=hidden;fillColor=none;top=0;left=0;bottom=0;right=0;pointerEvents=1;fontSize=8;" vertex="1" parent="UD3miY2fNGq_P93bhck5-8">
          <mxGeometry x="264" width="66" height="40" as="geometry">
            <mxRectangle width="66" height="40" as="alternateBounds" />
          </mxGeometry>
        </mxCell>
      </root>
    </mxGraphModel>
  </diagram>
  <diagram id="qsDGNCu1UxR6aIs0hIl_" name="Containers">
    <mxGraphModel dx="4208" dy="1590" grid="1" gridSize="10" guides="1" tooltips="1" connect="1" arrows="1" fold="1" page="1" pageScale="1" pageWidth="2100" pageHeight="2100" math="0" shadow="0">
      <root>
        <mxCell id="0" />
        <mxCell id="_AgKB0M8dqoUZbRrFaeX-68" value="Untitled Layer" parent="0" />
        <mxCell id="PBVgR-6y07SREAtp42Kd-82" value="TYPES OF CONNECTORS" style="text;html=1;strokeColor=none;fillColor=none;align=center;verticalAlign=middle;whiteSpace=wrap;rounded=0;fontSize=16;fontColor=#4376BB;fontStyle=1" parent="_AgKB0M8dqoUZbRrFaeX-68" vertex="1">
          <mxGeometry x="-1375" y="1300" width="240" height="20" as="geometry" />
        </mxCell>
        <mxCell id="PBVgR-6y07SREAtp42Kd-83" value="" style="endArrow=oval;html=1;fontSize=16;fontColor=#4376BB;strokeWidth=2;endFill=1;strokeColor=#009900;startArrow=oval;startFill=1;" parent="_AgKB0M8dqoUZbRrFaeX-68" edge="1">
          <mxGeometry width="50" height="50" relative="1" as="geometry">
            <mxPoint x="-1560" y="1745" as="sourcePoint" />
            <mxPoint x="-1360" y="1745" as="targetPoint" />
          </mxGeometry>
        </mxCell>
        <mxCell id="PBVgR-6y07SREAtp42Kd-84" value="Private Connection" style="edgeLabel;html=1;align=center;verticalAlign=middle;resizable=0;points=[];" parent="PBVgR-6y07SREAtp42Kd-83" vertex="1" connectable="0">
          <mxGeometry x="-0.08" y="1" relative="1" as="geometry">
            <mxPoint y="16" as="offset" />
          </mxGeometry>
        </mxCell>
        <mxCell id="PBVgR-6y07SREAtp42Kd-85" value="" style="endArrow=oval;html=1;fontSize=16;fontColor=#4376BB;strokeWidth=2;endFill=1;strokeColor=#007FFF;startArrow=oval;startFill=1;" parent="_AgKB0M8dqoUZbRrFaeX-68" edge="1">
          <mxGeometry width="50" height="50" relative="1" as="geometry">
            <mxPoint x="-1560" y="1785" as="sourcePoint" />
            <mxPoint x="-1360" y="1785" as="targetPoint" />
          </mxGeometry>
        </mxCell>
        <mxCell id="PBVgR-6y07SREAtp42Kd-86" value="Public Connection" style="edgeLabel;html=1;align=center;verticalAlign=middle;resizable=0;points=[];" parent="PBVgR-6y07SREAtp42Kd-85" vertex="1" connectable="0">
          <mxGeometry x="-0.08" y="1" relative="1" as="geometry">
            <mxPoint y="16" as="offset" />
          </mxGeometry>
        </mxCell>
        <mxCell id="PBVgR-6y07SREAtp42Kd-87" value="&lt;font style=&quot;font-size: 11px&quot;&gt;Tunneling Connection&lt;/font&gt;" style="rounded=0;whiteSpace=wrap;html=1;fillColor=#f8cecc;strokeColor=none;" parent="_AgKB0M8dqoUZbRrFaeX-68" vertex="1">
          <mxGeometry x="-1555" y="1600" width="200" height="20" as="geometry" />
        </mxCell>
        <mxCell id="PBVgR-6y07SREAtp42Kd-88" value="Relationships&lt;br&gt;&lt;font style=&quot;font-size: 11px ; font-weight: normal&quot; color=&quot;#000000&quot;&gt;logical relationship between elements&lt;/font&gt;" style="text;html=1;strokeColor=none;fillColor=none;align=center;verticalAlign=middle;whiteSpace=wrap;rounded=0;fontSize=16;fontColor=#4376BB;fontStyle=1" parent="_AgKB0M8dqoUZbRrFaeX-68" vertex="1">
          <mxGeometry x="-995" y="1370" width="240" height="20" as="geometry" />
        </mxCell>
        <mxCell id="PBVgR-6y07SREAtp42Kd-89" value="Connections&lt;br&gt;&lt;font color=&quot;#000000&quot; style=&quot;font-weight: normal ; font-size: 11px&quot;&gt;physical/protocol network connections, network messages, invocations between elements&lt;/font&gt;" style="text;html=1;strokeColor=none;fillColor=none;align=center;verticalAlign=middle;whiteSpace=wrap;rounded=0;fontSize=16;fontColor=#4376BB;fontStyle=1" parent="_AgKB0M8dqoUZbRrFaeX-68" vertex="1">
          <mxGeometry x="-1455" y="1380" width="240" height="20" as="geometry" />
        </mxCell>
        <mxCell id="PBVgR-6y07SREAtp42Kd-90" value="" style="endArrow=box;html=1;fontSize=16;fontColor=#4376BB;strokeWidth=2;endFill=0;rounded=0;startArrow=box;startFill=0;shape=link;" parent="_AgKB0M8dqoUZbRrFaeX-68" edge="1">
          <mxGeometry width="50" height="50" relative="1" as="geometry">
            <mxPoint x="-1555" y="1569.5" as="sourcePoint" />
            <mxPoint x="-1355" y="1569.5" as="targetPoint" />
          </mxGeometry>
        </mxCell>
        <mxCell id="PBVgR-6y07SREAtp42Kd-91" value="Physical Connection" style="edgeLabel;html=1;align=center;verticalAlign=middle;resizable=0;points=[];" parent="PBVgR-6y07SREAtp42Kd-90" vertex="1" connectable="0">
          <mxGeometry x="-0.07" y="2" relative="1" as="geometry">
            <mxPoint x="7" y="16.5" as="offset" />
          </mxGeometry>
        </mxCell>
        <mxCell id="PBVgR-6y07SREAtp42Kd-92" value="" style="shape=curlyBracket;whiteSpace=wrap;html=1;rounded=1;" parent="_AgKB0M8dqoUZbRrFaeX-68" vertex="1">
          <mxGeometry x="-1605" y="1440" width="20" height="70" as="geometry" />
        </mxCell>
        <mxCell id="PBVgR-6y07SREAtp42Kd-93" value="" style="shape=curlyBracket;whiteSpace=wrap;html=1;rounded=1;" parent="_AgKB0M8dqoUZbRrFaeX-68" vertex="1">
          <mxGeometry x="-1605" y="1520" width="20" height="200" as="geometry" />
        </mxCell>
        <mxCell id="PBVgR-6y07SREAtp42Kd-94" value="" style="shape=curlyBracket;whiteSpace=wrap;html=1;rounded=1;" parent="_AgKB0M8dqoUZbRrFaeX-68" vertex="1">
          <mxGeometry x="-1610" y="1730" width="20" height="70" as="geometry" />
        </mxCell>
        <mxCell id="PBVgR-6y07SREAtp42Kd-95" value="Logical messages exchanged &lt;br&gt;between elements&amp;nbsp;" style="text;html=1;resizable=0;autosize=1;align=center;verticalAlign=middle;points=[];fillColor=none;strokeColor=none;rounded=0;" parent="_AgKB0M8dqoUZbRrFaeX-68" vertex="1">
          <mxGeometry x="-1785" y="1460" width="170" height="30" as="geometry" />
        </mxCell>
        <mxCell id="PBVgR-6y07SREAtp42Kd-96" value="Network connections&lt;br&gt;between elements" style="text;html=1;resizable=0;autosize=1;align=center;verticalAlign=middle;points=[];fillColor=none;strokeColor=none;rounded=0;" parent="_AgKB0M8dqoUZbRrFaeX-68" vertex="1">
          <mxGeometry x="-1775" y="1560" width="130" height="30" as="geometry" />
        </mxCell>
        <mxCell id="PBVgR-6y07SREAtp42Kd-97" value="Color annotation to describe&lt;br&gt;if message/connection is through&lt;br&gt;public or private network" style="text;html=1;resizable=0;autosize=1;align=center;verticalAlign=middle;points=[];fillColor=none;strokeColor=none;rounded=0;" parent="_AgKB0M8dqoUZbRrFaeX-68" vertex="1">
          <mxGeometry x="-1800" y="1740" width="190" height="50" as="geometry" />
        </mxCell>
        <mxCell id="PBVgR-6y07SREAtp42Kd-98" value="" style="shape=curlyBracket;whiteSpace=wrap;html=1;rounded=1;" parent="_AgKB0M8dqoUZbRrFaeX-68" vertex="1">
          <mxGeometry x="-1610" y="1810" width="20" height="70" as="geometry" />
        </mxCell>
        <mxCell id="PBVgR-6y07SREAtp42Kd-99" value="Annotation to describe&lt;br&gt;what protocol is used &lt;br&gt;by the message/connection" style="text;html=1;resizable=0;autosize=1;align=center;verticalAlign=middle;points=[];fillColor=none;strokeColor=none;rounded=0;" parent="_AgKB0M8dqoUZbRrFaeX-68" vertex="1">
          <mxGeometry x="-1785" y="1820" width="160" height="50" as="geometry" />
        </mxCell>
        <mxCell id="PBVgR-6y07SREAtp42Kd-100" value="Those are coming directly from UML&lt;br&gt;99% of the time will be used the&lt;br&gt;Dependency Relationship&lt;br&gt;with a description" style="text;html=1;resizable=0;autosize=1;align=center;verticalAlign=middle;points=[];fillColor=none;strokeColor=none;rounded=0;" parent="_AgKB0M8dqoUZbRrFaeX-68" vertex="1">
          <mxGeometry x="-565" y="1500" width="210" height="60" as="geometry" />
        </mxCell>
        <mxCell id="PBVgR-6y07SREAtp42Kd-101" value="" style="endArrow=none;html=1;edgeStyle=orthogonalEdgeStyle;" parent="_AgKB0M8dqoUZbRrFaeX-68" edge="1">
          <mxGeometry relative="1" as="geometry">
            <mxPoint x="-770" y="1710" as="sourcePoint" />
            <mxPoint x="-610" y="1710" as="targetPoint" />
          </mxGeometry>
        </mxCell>
        <mxCell id="PBVgR-6y07SREAtp42Kd-102" value="0..N" style="edgeLabel;resizable=0;html=1;align=left;verticalAlign=bottom;" parent="PBVgR-6y07SREAtp42Kd-101" connectable="0" vertex="1">
          <mxGeometry x="-1" relative="1" as="geometry" />
        </mxCell>
        <mxCell id="PBVgR-6y07SREAtp42Kd-103" value="0..N" style="edgeLabel;resizable=0;html=1;align=right;verticalAlign=bottom;" parent="PBVgR-6y07SREAtp42Kd-101" connectable="0" vertex="1">
          <mxGeometry x="1" relative="1" as="geometry" />
        </mxCell>
        <mxCell id="PBVgR-6y07SREAtp42Kd-104" value="Label" style="edgeLabel;html=1;align=center;verticalAlign=middle;resizable=0;points=[];" parent="PBVgR-6y07SREAtp42Kd-101" vertex="1" connectable="0">
          <mxGeometry x="-0.0375" relative="1" as="geometry">
            <mxPoint y="10" as="offset" />
          </mxGeometry>
        </mxCell>
        <mxCell id="PBVgR-6y07SREAtp42Kd-105" value="Those are coming directly from UML&lt;br&gt;Annotation to capture cardinality of&lt;br&gt;the source/target elements&lt;br&gt;of the relationship&amp;nbsp;" style="text;html=1;resizable=0;autosize=1;align=center;verticalAlign=middle;points=[];fillColor=none;strokeColor=none;rounded=0;" parent="_AgKB0M8dqoUZbRrFaeX-68" vertex="1">
          <mxGeometry x="-565" y="1675" width="210" height="60" as="geometry" />
        </mxCell>
        <mxCell id="PBVgR-6y07SREAtp42Kd-106" value="" style="shape=curlyBracket;whiteSpace=wrap;html=1;rounded=1;rotation=-180;" parent="_AgKB0M8dqoUZbRrFaeX-68" vertex="1">
          <mxGeometry x="-595" y="1430" width="20" height="200" as="geometry" />
        </mxCell>
        <mxCell id="PBVgR-6y07SREAtp42Kd-107" value="" style="shape=curlyBracket;whiteSpace=wrap;html=1;rounded=1;rotation=-180;" parent="_AgKB0M8dqoUZbRrFaeX-68" vertex="1">
          <mxGeometry x="-595" y="1670" width="20" height="70" as="geometry" />
        </mxCell>
        <mxCell id="PBVgR-6y07SREAtp42Kd-108" value="" style="endArrow=oval;html=1;fontSize=16;fontColor=#4376BB;strokeWidth=2;endFill=1;startArrow=oval;startFill=1;" parent="_AgKB0M8dqoUZbRrFaeX-68" edge="1">
          <mxGeometry width="50" height="50" relative="1" as="geometry">
            <mxPoint x="-1560" y="1844.5" as="sourcePoint" />
            <mxPoint x="-1360" y="1844.5" as="targetPoint" />
          </mxGeometry>
        </mxCell>
        <mxCell id="PBVgR-6y07SREAtp42Kd-109" value="Label&lt;br&gt;&lt;b&gt;[&lt;/b&gt;Protocol/Application NAME&lt;br&gt;Encyption/Security:PORT&lt;b&gt;]&lt;/b&gt;" style="edgeLabel;html=1;align=center;verticalAlign=middle;resizable=0;points=[];" parent="PBVgR-6y07SREAtp42Kd-108" vertex="1" connectable="0">
          <mxGeometry x="-0.08" y="1" relative="1" as="geometry">
            <mxPoint x="3.2800000000000002" y="26.5" as="offset" />
          </mxGeometry>
        </mxCell>
        <mxCell id="PBVgR-6y07SREAtp42Kd-110" value="Extends" style="endArrow=block;endSize=16;endFill=0;html=1;" parent="_AgKB0M8dqoUZbRrFaeX-68" edge="1">
          <mxGeometry y="-10" width="160" relative="1" as="geometry">
            <mxPoint x="-770" y="1650" as="sourcePoint" />
            <mxPoint x="-610" y="1650" as="targetPoint" />
            <mxPoint as="offset" />
          </mxGeometry>
        </mxCell>
        <mxCell id="PBVgR-6y07SREAtp42Kd-111" value="" style="endArrow=open;html=1;endSize=12;startArrow=diamondThin;startSize=14;startFill=0;edgeStyle=orthogonalEdgeStyle;align=left;verticalAlign=bottom;" parent="_AgKB0M8dqoUZbRrFaeX-68" edge="1">
          <mxGeometry x="-1" y="3" relative="1" as="geometry">
            <mxPoint x="-770" y="1530.0000000000002" as="sourcePoint" />
            <mxPoint x="-610" y="1530.0000000000002" as="targetPoint" />
          </mxGeometry>
        </mxCell>
        <mxCell id="PBVgR-6y07SREAtp42Kd-112" value="Aggregation" style="edgeLabel;html=1;align=center;verticalAlign=middle;resizable=0;points=[];" parent="PBVgR-6y07SREAtp42Kd-111" vertex="1" connectable="0">
          <mxGeometry x="-0.075" y="1" relative="1" as="geometry">
            <mxPoint x="6" y="7" as="offset" />
          </mxGeometry>
        </mxCell>
        <mxCell id="PBVgR-6y07SREAtp42Kd-113" value="" style="endArrow=open;html=1;endSize=12;startArrow=diamondThin;startSize=14;startFill=1;edgeStyle=orthogonalEdgeStyle;align=left;verticalAlign=bottom;" parent="_AgKB0M8dqoUZbRrFaeX-68" edge="1">
          <mxGeometry x="-1" y="3" relative="1" as="geometry">
            <mxPoint x="-770" y="1570.0000000000002" as="sourcePoint" />
            <mxPoint x="-610" y="1570.0000000000002" as="targetPoint" />
          </mxGeometry>
        </mxCell>
        <mxCell id="PBVgR-6y07SREAtp42Kd-114" value="Composition" style="edgeLabel;html=1;align=center;verticalAlign=middle;resizable=0;points=[];" parent="PBVgR-6y07SREAtp42Kd-113" vertex="1" connectable="0">
          <mxGeometry x="-0.05" y="1" relative="1" as="geometry">
            <mxPoint y="11" as="offset" />
          </mxGeometry>
        </mxCell>
        <mxCell id="PBVgR-6y07SREAtp42Kd-115" value="Dependendency" style="endArrow=open;endSize=12;dashed=1;html=1;" parent="_AgKB0M8dqoUZbRrFaeX-68" edge="1">
          <mxGeometry y="-10" width="160" relative="1" as="geometry">
            <mxPoint x="-976.4299999999998" y="1450" as="sourcePoint" />
            <mxPoint x="-816.4300000000003" y="1450" as="targetPoint" />
            <mxPoint as="offset" />
          </mxGeometry>
        </mxCell>
        <mxCell id="PBVgR-6y07SREAtp42Kd-116" value="" style="endArrow=block;dashed=1;endFill=0;endSize=12;html=1;" parent="_AgKB0M8dqoUZbRrFaeX-68" edge="1">
          <mxGeometry width="160" relative="1" as="geometry">
            <mxPoint x="-770" y="1610.0000000000002" as="sourcePoint" />
            <mxPoint x="-610" y="1610.0000000000002" as="targetPoint" />
          </mxGeometry>
        </mxCell>
        <mxCell id="PBVgR-6y07SREAtp42Kd-117" value="Implementation" style="edgeLabel;html=1;align=center;verticalAlign=middle;resizable=0;points=[];" parent="PBVgR-6y07SREAtp42Kd-116" vertex="1" connectable="0">
          <mxGeometry x="-0.0875" y="1" relative="1" as="geometry">
            <mxPoint y="11" as="offset" />
          </mxGeometry>
        </mxCell>
        <mxCell id="PBVgR-6y07SREAtp42Kd-118" value="" style="endArrow=open;endFill=0;endSize=12;html=1;" parent="_AgKB0M8dqoUZbRrFaeX-68" edge="1">
          <mxGeometry width="160" relative="1" as="geometry">
            <mxPoint x="-976.4299999999998" y="1490.0000000000002" as="sourcePoint" />
            <mxPoint x="-816.4300000000003" y="1490.0000000000002" as="targetPoint" />
          </mxGeometry>
        </mxCell>
        <mxCell id="PBVgR-6y07SREAtp42Kd-119" value="Association" style="edgeLabel;html=1;align=center;verticalAlign=middle;resizable=0;points=[];" parent="PBVgR-6y07SREAtp42Kd-118" vertex="1" connectable="0">
          <mxGeometry x="-0.0375" y="1" relative="1" as="geometry">
            <mxPoint y="11" as="offset" />
          </mxGeometry>
        </mxCell>
        <mxCell id="PBVgR-6y07SREAtp42Kd-120" value="" style="endArrow=oval;html=1;fontSize=16;fontColor=#4376BB;strokeWidth=2;endFill=1;rounded=0;startArrow=oval;startFill=1;" parent="_AgKB0M8dqoUZbRrFaeX-68" edge="1">
          <mxGeometry width="50" height="50" relative="1" as="geometry">
            <mxPoint x="-1555" y="1529.5" as="sourcePoint" />
            <mxPoint x="-1355" y="1529.5" as="targetPoint" />
          </mxGeometry>
        </mxCell>
        <mxCell id="PBVgR-6y07SREAtp42Kd-121" value="Connection" style="edgeLabel;html=1;align=center;verticalAlign=middle;resizable=0;points=[];" parent="PBVgR-6y07SREAtp42Kd-120" vertex="1" connectable="0">
          <mxGeometry x="-0.07" y="2" relative="1" as="geometry">
            <mxPoint x="-3" y="12" as="offset" />
          </mxGeometry>
        </mxCell>
        <mxCell id="PBVgR-6y07SREAtp42Kd-122" value="Logical Connection / Link" style="html=1;verticalAlign=middle;startArrow=oval;startFill=1;endArrow=oval;startSize=6;strokeColor=#000000;align=center;dashed=1;strokeWidth=2;horizontal=1;labelPosition=center;verticalLabelPosition=middle;endFill=1;" parent="_AgKB0M8dqoUZbRrFaeX-68" edge="1">
          <mxGeometry x="-0.1" y="-10" width="60" relative="1" as="geometry">
            <mxPoint x="-1545" y="1480.0000000000002" as="sourcePoint" />
            <mxPoint x="-1345" y="1480.0000000000002" as="targetPoint" />
            <mxPoint as="offset" />
          </mxGeometry>
        </mxCell>
        <mxCell id="PBVgR-6y07SREAtp42Kd-123" value="&lt;font color=&quot;#000000&quot;&gt;Bidirectional&lt;/font&gt;" style="text;html=1;strokeColor=none;fillColor=none;align=center;verticalAlign=middle;whiteSpace=wrap;rounded=0;fontSize=16;fontColor=#4376BB;fontStyle=1" parent="_AgKB0M8dqoUZbRrFaeX-68" vertex="1">
          <mxGeometry x="-1565" y="1440" width="240" height="20" as="geometry" />
        </mxCell>
        <mxCell id="PBVgR-6y07SREAtp42Kd-124" value="&lt;font color=&quot;#000000&quot;&gt;Unidirectional&lt;/font&gt;" style="text;html=1;strokeColor=none;fillColor=none;align=center;verticalAlign=middle;whiteSpace=wrap;rounded=0;fontSize=16;fontColor=#4376BB;fontStyle=1" parent="_AgKB0M8dqoUZbRrFaeX-68" vertex="1">
          <mxGeometry x="-1315" y="1440" width="240" height="20" as="geometry" />
        </mxCell>
        <mxCell id="PBVgR-6y07SREAtp42Kd-125" value="" style="endArrow=block;html=1;fontSize=16;fontColor=#4376BB;strokeWidth=2;endFill=1;rounded=0;startArrow=oval;startFill=1;" parent="_AgKB0M8dqoUZbRrFaeX-68" edge="1">
          <mxGeometry width="50" height="50" relative="1" as="geometry">
            <mxPoint x="-1295" y="1529.5" as="sourcePoint" />
            <mxPoint x="-1095" y="1529.5" as="targetPoint" />
          </mxGeometry>
        </mxCell>
        <mxCell id="PBVgR-6y07SREAtp42Kd-126" value="Connection" style="edgeLabel;html=1;align=center;verticalAlign=middle;resizable=0;points=[];" parent="PBVgR-6y07SREAtp42Kd-125" vertex="1" connectable="0">
          <mxGeometry x="-0.07" y="2" relative="1" as="geometry">
            <mxPoint x="-3" y="12" as="offset" />
          </mxGeometry>
        </mxCell>
        <mxCell id="PBVgR-6y07SREAtp42Kd-127" value="Logical Connection / Link" style="html=1;verticalAlign=middle;startArrow=oval;startFill=1;endArrow=block;startSize=6;strokeColor=#000000;align=center;dashed=1;strokeWidth=2;horizontal=1;labelPosition=center;verticalLabelPosition=middle;endFill=1;" parent="_AgKB0M8dqoUZbRrFaeX-68" edge="1">
          <mxGeometry x="-0.1" y="-10" width="60" relative="1" as="geometry">
            <mxPoint x="-1295" y="1480.0000000000002" as="sourcePoint" />
            <mxPoint x="-1095" y="1480.0000000000002" as="targetPoint" />
            <mxPoint as="offset" />
          </mxGeometry>
        </mxCell>
        <mxCell id="PBVgR-6y07SREAtp42Kd-128" value="" style="endArrow=block;html=1;fontSize=16;fontColor=#4376BB;strokeWidth=2;endFill=1;strokeColor=#009900;startArrow=oval;startFill=1;" parent="_AgKB0M8dqoUZbRrFaeX-68" edge="1">
          <mxGeometry width="50" height="50" relative="1" as="geometry">
            <mxPoint x="-1290" y="1744.75" as="sourcePoint" />
            <mxPoint x="-1090" y="1744.75" as="targetPoint" />
          </mxGeometry>
        </mxCell>
        <mxCell id="PBVgR-6y07SREAtp42Kd-129" value="Private Connection" style="edgeLabel;html=1;align=center;verticalAlign=middle;resizable=0;points=[];" parent="PBVgR-6y07SREAtp42Kd-128" vertex="1" connectable="0">
          <mxGeometry x="-0.08" y="1" relative="1" as="geometry">
            <mxPoint y="16" as="offset" />
          </mxGeometry>
        </mxCell>
        <mxCell id="PBVgR-6y07SREAtp42Kd-130" value="" style="endArrow=block;html=1;fontSize=16;fontColor=#4376BB;strokeWidth=2;endFill=1;strokeColor=#007FFF;startArrow=oval;startFill=1;" parent="_AgKB0M8dqoUZbRrFaeX-68" edge="1">
          <mxGeometry width="50" height="50" relative="1" as="geometry">
            <mxPoint x="-1290" y="1784.75" as="sourcePoint" />
            <mxPoint x="-1090" y="1784.75" as="targetPoint" />
          </mxGeometry>
        </mxCell>
        <mxCell id="PBVgR-6y07SREAtp42Kd-131" value="Public Connection" style="edgeLabel;html=1;align=center;verticalAlign=middle;resizable=0;points=[];" parent="PBVgR-6y07SREAtp42Kd-130" vertex="1" connectable="0">
          <mxGeometry x="-0.08" y="1" relative="1" as="geometry">
            <mxPoint y="16" as="offset" />
          </mxGeometry>
        </mxCell>
        <mxCell id="PBVgR-6y07SREAtp42Kd-132" value="" style="endArrow=block;html=1;fontSize=16;fontColor=#4376BB;strokeWidth=2;endFill=1;startArrow=oval;startFill=1;" parent="_AgKB0M8dqoUZbRrFaeX-68" edge="1">
          <mxGeometry width="50" height="50" relative="1" as="geometry">
            <mxPoint x="-1290" y="1844.25" as="sourcePoint" />
            <mxPoint x="-1090" y="1844.25" as="targetPoint" />
          </mxGeometry>
        </mxCell>
        <mxCell id="PBVgR-6y07SREAtp42Kd-133" value="Label&lt;br&gt;&lt;b&gt;[&lt;/b&gt;Protocol/Application NAME&lt;br&gt;Encyption/Security:PORT&lt;b&gt;]&lt;/b&gt;" style="edgeLabel;html=1;align=center;verticalAlign=middle;resizable=0;points=[];" parent="PBVgR-6y07SREAtp42Kd-132" vertex="1" connectable="0">
          <mxGeometry x="-0.08" y="1" relative="1" as="geometry">
            <mxPoint x="3" y="26.75" as="offset" />
          </mxGeometry>
        </mxCell>
        <mxCell id="PBVgR-6y07SREAtp42Kd-134" value="&lt;font style=&quot;font-size: 11px&quot;&gt;Tunneling Connection&lt;/font&gt;" style="rounded=0;whiteSpace=wrap;html=1;fillColor=#f8cecc;strokeColor=none;" parent="_AgKB0M8dqoUZbRrFaeX-68" vertex="1">
          <mxGeometry x="-1295" y="1600" width="200" height="20" as="geometry" />
        </mxCell>
        <mxCell id="PBVgR-6y07SREAtp42Kd-135" value="" style="endArrow=box;html=1;fontSize=16;fontColor=#4376BB;strokeWidth=2;endFill=0;rounded=0;startArrow=box;startFill=0;shape=link;" parent="_AgKB0M8dqoUZbRrFaeX-68" edge="1">
          <mxGeometry width="50" height="50" relative="1" as="geometry">
            <mxPoint x="-1295" y="1569.5" as="sourcePoint" />
            <mxPoint x="-1095" y="1569.5" as="targetPoint" />
          </mxGeometry>
        </mxCell>
        <mxCell id="PBVgR-6y07SREAtp42Kd-136" value="Physical Connection" style="edgeLabel;html=1;align=center;verticalAlign=middle;resizable=0;points=[];" parent="PBVgR-6y07SREAtp42Kd-135" vertex="1" connectable="0">
          <mxGeometry x="-0.07" y="2" relative="1" as="geometry">
            <mxPoint x="7" y="16.5" as="offset" />
          </mxGeometry>
        </mxCell>
        <mxCell id="PBVgR-6y07SREAtp42Kd-137" value="&lt;font color=&quot;#000000&quot;&gt;Standard&lt;/font&gt;" style="text;html=1;strokeColor=none;fillColor=none;align=center;verticalAlign=middle;whiteSpace=wrap;rounded=0;fontSize=16;fontColor=#4376BB;fontStyle=1" parent="_AgKB0M8dqoUZbRrFaeX-68" vertex="1">
          <mxGeometry x="-1010" y="1410" width="240" height="20" as="geometry" />
        </mxCell>
        <mxCell id="PBVgR-6y07SREAtp42Kd-138" value="&lt;font color=&quot;#000000&quot;&gt;Extended/Advanced&lt;/font&gt;" style="text;html=1;strokeColor=none;fillColor=none;align=center;verticalAlign=middle;whiteSpace=wrap;rounded=0;fontSize=16;fontColor=#4376BB;fontStyle=1" parent="_AgKB0M8dqoUZbRrFaeX-68" vertex="1">
          <mxGeometry x="-805" y="1410" width="240" height="20" as="geometry" />
        </mxCell>
        <mxCell id="PBVgR-6y07SREAtp42Kd-139" value="" style="rounded=0;whiteSpace=wrap;html=1;fillColor=#f8cecc;strokeColor=none;" parent="_AgKB0M8dqoUZbRrFaeX-68" vertex="1">
          <mxGeometry x="-1555" y="1630" width="200" height="20" as="geometry" />
        </mxCell>
        <mxCell id="PBVgR-6y07SREAtp42Kd-140" style="rounded=0;orthogonalLoop=1;jettySize=auto;html=1;exitX=0;exitY=0.5;exitDx=0;exitDy=0;entryX=1;entryY=0.5;entryDx=0;entryDy=0;strokeWidth=2;endArrow=oval;endFill=1;startArrow=oval;startFill=1;" parent="_AgKB0M8dqoUZbRrFaeX-68" source="PBVgR-6y07SREAtp42Kd-139" target="PBVgR-6y07SREAtp42Kd-139" edge="1">
          <mxGeometry relative="1" as="geometry" />
        </mxCell>
        <mxCell id="PBVgR-6y07SREAtp42Kd-141" value="Traffic Through Tunnel/Encapsulation" style="text;html=1;align=center;verticalAlign=middle;resizable=0;points=[];autosize=1;" parent="_AgKB0M8dqoUZbRrFaeX-68" vertex="1">
          <mxGeometry x="-1560" y="1650" width="210" height="20" as="geometry" />
        </mxCell>
        <mxCell id="PBVgR-6y07SREAtp42Kd-142" value="" style="rounded=0;whiteSpace=wrap;html=1;fillColor=#f8cecc;strokeColor=none;" parent="_AgKB0M8dqoUZbRrFaeX-68" vertex="1">
          <mxGeometry x="-1555" y="1680" width="200" height="20" as="geometry" />
        </mxCell>
        <mxCell id="PBVgR-6y07SREAtp42Kd-143" value="Traffic Through DoubleTunnel/Encapsulation" style="text;html=1;align=center;verticalAlign=middle;resizable=0;points=[];autosize=1;" parent="_AgKB0M8dqoUZbRrFaeX-68" vertex="1">
          <mxGeometry x="-1580" y="1700" width="250" height="20" as="geometry" />
        </mxCell>
        <mxCell id="PBVgR-6y07SREAtp42Kd-144" value="" style="rounded=0;whiteSpace=wrap;html=1;strokeColor=none;fillColor=#FFFF66;" parent="_AgKB0M8dqoUZbRrFaeX-68" vertex="1">
          <mxGeometry x="-1555" y="1685" width="200" height="10" as="geometry" />
        </mxCell>
        <mxCell id="PBVgR-6y07SREAtp42Kd-145" style="edgeStyle=none;rounded=0;orthogonalLoop=1;jettySize=auto;html=1;entryX=1;entryY=0.5;entryDx=0;entryDy=0;startArrow=oval;startFill=1;endArrow=oval;endFill=1;strokeWidth=2;" parent="_AgKB0M8dqoUZbRrFaeX-68" target="PBVgR-6y07SREAtp42Kd-144" edge="1">
          <mxGeometry relative="1" as="geometry">
            <mxPoint x="-1555" y="1690" as="sourcePoint" />
          </mxGeometry>
        </mxCell>
        <mxCell id="PBVgR-6y07SREAtp42Kd-146" value="" style="rounded=0;whiteSpace=wrap;html=1;fillColor=#f8cecc;strokeColor=none;" parent="_AgKB0M8dqoUZbRrFaeX-68" vertex="1">
          <mxGeometry x="-1295" y="1630" width="200" height="20" as="geometry" />
        </mxCell>
        <mxCell id="PBVgR-6y07SREAtp42Kd-147" style="rounded=0;orthogonalLoop=1;jettySize=auto;html=1;exitX=0;exitY=0.5;exitDx=0;exitDy=0;entryX=1;entryY=0.5;entryDx=0;entryDy=0;strokeWidth=2;endArrow=block;endFill=1;startArrow=oval;startFill=1;" parent="_AgKB0M8dqoUZbRrFaeX-68" source="PBVgR-6y07SREAtp42Kd-146" target="PBVgR-6y07SREAtp42Kd-146" edge="1">
          <mxGeometry relative="1" as="geometry" />
        </mxCell>
        <mxCell id="PBVgR-6y07SREAtp42Kd-148" value="Traffic Through Tunnel/Encapsulation" style="text;html=1;align=center;verticalAlign=middle;resizable=0;points=[];autosize=1;" parent="_AgKB0M8dqoUZbRrFaeX-68" vertex="1">
          <mxGeometry x="-1300" y="1650" width="210" height="20" as="geometry" />
        </mxCell>
        <mxCell id="PBVgR-6y07SREAtp42Kd-149" value="" style="rounded=0;whiteSpace=wrap;html=1;fillColor=#f8cecc;strokeColor=none;" parent="_AgKB0M8dqoUZbRrFaeX-68" vertex="1">
          <mxGeometry x="-1295" y="1680" width="200" height="20" as="geometry" />
        </mxCell>
        <mxCell id="PBVgR-6y07SREAtp42Kd-150" value="" style="rounded=0;whiteSpace=wrap;html=1;strokeColor=none;fillColor=#FFFF66;" parent="_AgKB0M8dqoUZbRrFaeX-68" vertex="1">
          <mxGeometry x="-1295" y="1685" width="200" height="10" as="geometry" />
        </mxCell>
        <mxCell id="PBVgR-6y07SREAtp42Kd-151" style="edgeStyle=none;rounded=0;orthogonalLoop=1;jettySize=auto;html=1;entryX=1;entryY=0.5;entryDx=0;entryDy=0;startArrow=oval;startFill=1;endArrow=block;endFill=1;strokeWidth=2;" parent="_AgKB0M8dqoUZbRrFaeX-68" target="PBVgR-6y07SREAtp42Kd-150" edge="1">
          <mxGeometry relative="1" as="geometry">
            <mxPoint x="-1295" y="1690" as="sourcePoint" />
          </mxGeometry>
        </mxCell>
        <mxCell id="PBVgR-6y07SREAtp42Kd-152" value="Annotation to describe&lt;br&gt;what encapsulation is used &lt;br&gt;by the message/connection" style="text;html=1;resizable=0;autosize=1;align=center;verticalAlign=middle;points=[];fillColor=none;strokeColor=none;rounded=0;" parent="_AgKB0M8dqoUZbRrFaeX-68" vertex="1">
          <mxGeometry x="-1785" y="1900" width="160" height="50" as="geometry" />
        </mxCell>
        <mxCell id="PBVgR-6y07SREAtp42Kd-153" value="" style="endArrow=oval;html=1;fontSize=16;fontColor=#4376BB;strokeWidth=2;endFill=1;startArrow=oval;startFill=1;" parent="_AgKB0M8dqoUZbRrFaeX-68" edge="1">
          <mxGeometry width="50" height="50" relative="1" as="geometry">
            <mxPoint x="-1560" y="1924.5" as="sourcePoint" />
            <mxPoint x="-1360" y="1924.5" as="targetPoint" />
          </mxGeometry>
        </mxCell>
        <mxCell id="PBVgR-6y07SREAtp42Kd-154" value="Label&lt;br&gt;&lt;b&gt;[&lt;/b&gt;Encapsulation NAME&lt;br&gt;Encyption/Security:PORT&lt;b&gt;]&lt;/b&gt;" style="edgeLabel;html=1;align=center;verticalAlign=middle;resizable=0;points=[];" parent="PBVgR-6y07SREAtp42Kd-153" vertex="1" connectable="0">
          <mxGeometry x="-0.08" y="1" relative="1" as="geometry">
            <mxPoint x="3.2800000000000002" y="36.5" as="offset" />
          </mxGeometry>
        </mxCell>
        <mxCell id="PBVgR-6y07SREAtp42Kd-155" value="" style="endArrow=block;html=1;fontSize=16;fontColor=#4376BB;strokeWidth=2;endFill=1;startArrow=oval;startFill=1;" parent="_AgKB0M8dqoUZbRrFaeX-68" edge="1">
          <mxGeometry width="50" height="50" relative="1" as="geometry">
            <mxPoint x="-1290" y="1924.25" as="sourcePoint" />
            <mxPoint x="-1090" y="1924.25" as="targetPoint" />
          </mxGeometry>
        </mxCell>
        <mxCell id="PBVgR-6y07SREAtp42Kd-156" value="Label&lt;br&gt;&lt;b&gt;[&lt;/b&gt;Encapsulation NAME&lt;br&gt;Encyption/Security:PORT&lt;b&gt;]&lt;/b&gt;" style="edgeLabel;html=1;align=center;verticalAlign=middle;resizable=0;points=[];" parent="PBVgR-6y07SREAtp42Kd-155" vertex="1" connectable="0">
          <mxGeometry x="-0.08" y="1" relative="1" as="geometry">
            <mxPoint x="3" y="36.75" as="offset" />
          </mxGeometry>
        </mxCell>
        <mxCell id="PBVgR-6y07SREAtp42Kd-157" value="" style="shape=curlyBracket;whiteSpace=wrap;html=1;rounded=1;" parent="_AgKB0M8dqoUZbRrFaeX-68" vertex="1">
          <mxGeometry x="-1615" y="1890" width="20" height="70" as="geometry" />
        </mxCell>
        <mxCell id="PBVgR-6y07SREAtp42Kd-158" value="Traffic Through DoubleTunnel/Encapsulation" style="text;html=1;align=center;verticalAlign=middle;resizable=0;points=[];autosize=1;" parent="_AgKB0M8dqoUZbRrFaeX-68" vertex="1">
          <mxGeometry x="-1320" y="1700" width="250" height="20" as="geometry" />
        </mxCell>
        <mxCell id="PBVgR-6y07SREAtp42Kd-159" value="&lt;font color=&quot;#000000&quot;&gt;#&lt;/font&gt;" style="ellipse;whiteSpace=wrap;html=1;aspect=fixed;fontStyle=1;fontSize=17;fontColor=#990099;" parent="_AgKB0M8dqoUZbRrFaeX-68" vertex="1">
          <mxGeometry x="-1330" y="2016" width="26" height="26" as="geometry" />
        </mxCell>
        <mxCell id="PBVgR-6y07SREAtp42Kd-160" value="Sequencing or numbering &lt;br&gt;for flowcharts or use cases" style="text;html=1;align=center;verticalAlign=middle;resizable=0;points=[];autosize=1;" parent="_AgKB0M8dqoUZbRrFaeX-68" vertex="1">
          <mxGeometry x="-1780" y="2016" width="160" height="30" as="geometry" />
        </mxCell>
        <mxCell id="PBVgR-6y07SREAtp42Kd-161" value="" style="shape=curlyBracket;whiteSpace=wrap;html=1;rounded=1;" parent="_AgKB0M8dqoUZbRrFaeX-68" vertex="1">
          <mxGeometry x="-1615" y="2009" width="20" height="48" as="geometry" />
        </mxCell>
        <mxCell id="PBVgR-6y07SREAtp42Kd-162" value="&lt;font color=&quot;#000000&quot;&gt;#&lt;/font&gt;" style="ellipse;whiteSpace=wrap;html=1;aspect=fixed;fontStyle=1;fontSize=17;fontColor=#990099;" parent="_AgKB0M8dqoUZbRrFaeX-68" vertex="1">
          <mxGeometry x="-888" y="2016" width="26" height="26" as="geometry" />
        </mxCell>
        <mxCell id="wEJ2j6Q2r-iuzvhcd4Nl-25" value="" style="whiteSpace=wrap;html=1;aspect=fixed;strokeColor=none;fillColor=#a56eff;" parent="_AgKB0M8dqoUZbRrFaeX-68" vertex="1">
          <mxGeometry x="-2080" y="529" width="39" height="39" as="geometry" />
        </mxCell>
        <UserObject placeholders="1" label="&lt;b style=&#39;font-weight:600&#39;&gt;%Primary-Label%&lt;/b&gt;&lt;br&gt;%Secondary-Text%" Badge-Text="" Icon-Name="data--base" Primary-Label="Label" Secondary-Text="[Container:Database]&#xa;Description" id="wEJ2j6Q2r-iuzvhcd4Nl-56">
          <mxCell style="shape=image;ibmType=nodel;ibmLayout=collapsed;strokeColor=#0f62fe;fillColor=none;html=1;metaEdit=1;whiteSpace=wrap;fontFamily=IBM Plex Sans;fontSize=14;image=data:image/svg+xml,PHN2ZyBpZD0iTGF5ZXJfMSIgZGF0YS1uYW1lPSJMYXllciAxIiB4bWxucz0iaHR0cDovL3d3dy53My5vcmcvMjAwMC9zdmciIHZpZXdCb3g9IjAgMCA0OSA0OSI+PGRlZnM+PHN0eWxlPi5jbHMtMXtmaWxsOiMwZjYyZmU7fS5jbHMtMntmaWxsOm5vbmU7fS5jbHMtM3tmaWxsOiNmZmY7ZmlsbC1ydWxlOmV2ZW5vZGQ7fTwvc3R5bGU+PC9kZWZzPjxyZWN0IGNsYXNzPSJjbHMtMSIgeD0iMC41IiB5PSIwLjUiIHdpZHRoPSI0OCIgaGVpZ2h0PSI0OCIgcng9IjgiLz48cmVjdCBjbGFzcz0iY2xzLTIiIHg9IjE0LjUiIHk9IjE0LjUiIHdpZHRoPSIyMCIgaGVpZ2h0PSIyMCIvPjxwYXRoIGlkPSJGaWxsLTEiIGNsYXNzPSJjbHMtMyIgZD0iTTE4LjY1LDMyLjU5aDExLjdWMjguMjFIMTguNjVabTAtNS44NWgxMS43VjIyLjM2SDE4LjY1Wm0wLTUuODRoMTEuN1YxNi41MUgxOC42NVptMTEuNy01Ljg1SDE4LjY1YTEuNDYsMS40NiwwLDAsMC0xLjQ2LDEuNDZWMzIuNTlhMS40NiwxLjQ2LDAsMCwwLDEuNDYsMS40NmgxMS43YTEuNDYsMS40NiwwLDAsMCwxLjQ2LTEuNDZWMTYuNTFhMS40NiwxLjQ2LDAsMCwwLTEuNDYtMS40NloiLz48cGF0aCBpZD0iRmlsbC0zIiBjbGFzcz0iY2xzLTMiIGQ9Ik0yMC44NSwxOGEuNzQuNzQsMCwxLDEtLjc0LjczLjczLjczLDAsMCwxLC43NC0uNzMiLz48cGF0aCBpZD0iRmlsbC00IiBjbGFzcz0iY2xzLTMiIGQ9Ik0yMC44NSwyMy44MmEuNzMuNzMsMCwxLDEtLjc0LjczLjczLjczLDAsMCwxLC43NC0uNzMiLz48cGF0aCBpZD0iRmlsbC01IiBjbGFzcz0iY2xzLTMiIGQ9Ik0yMC44NSwyOS42N2EuNzMuNzMsMCwxLDEsMCwxLjQ2LjczLjczLDAsMSwxLDAtMS40NiIvPjwvc3ZnPg==;align=center;verticalAlign=top;labelPosition=center;verticalLabelPosition=bottom;spacing=0;spacingLeft=16;spacingRight=16;spacingTop=0;spacingBottom=4;" parent="_AgKB0M8dqoUZbRrFaeX-68" vertex="1">
            <mxGeometry x="-1894" y="510" width="48" height="48" as="geometry" />
          </mxCell>
        </UserObject>
        <mxCell id="1" parent="0" />
        <UserObject placeholders="1" label="&lt;b style=&quot;font-weight:600&quot;&gt;%Primary-Label%&lt;/b&gt;&lt;br&gt;%Secondary-Text%" Badge-Text="" Icon-Name="application" Primary-Label="Label" Secondary-Text="[Container:Microservice]&#xa;Description" id="_AgKB0M8dqoUZbRrFaeX-2">
          <mxCell style="shape=mxgraph.ibm.base;ibmType=nodel;ibmLayout=expanded;strokeColor=#a56eff;fillColor=default;html=1;metaEdit=1;whiteSpace=wrap;fontFamily=IBM Plex Sans;fontSize=14;image=;align=center;verticalAlign=middle;labelPosition=center;verticalLabelPosition=middle;spacing=0;spacingLeft=9;spacingRight=16;spacingTop=7;spacingBottom=0;container=1;collapsible=0;expand=0;recursiveResize=0;" parent="1" vertex="1">
            <mxGeometry x="-2030" y="136" width="300" height="70" as="geometry" />
          </mxCell>
        </UserObject>
        <mxCell id="wEJ2j6Q2r-iuzvhcd4Nl-4" value="" style="group" parent="_AgKB0M8dqoUZbRrFaeX-2" vertex="1" connectable="0">
          <mxGeometry width="39" height="39" as="geometry" />
        </mxCell>
        <mxCell id="wEJ2j6Q2r-iuzvhcd4Nl-3" value="" style="whiteSpace=wrap;html=1;aspect=fixed;strokeColor=none;fillColor=#a56eff;" parent="wEJ2j6Q2r-iuzvhcd4Nl-4" vertex="1">
          <mxGeometry width="39" height="39" as="geometry" />
        </mxCell>
        <mxCell id="wEJ2j6Q2r-iuzvhcd4Nl-2" value="" style="shape=image;aspect=fixed;image=data:image/svg+xml,PHN2ZyBpZD0iTGF5ZXJfMSIgZGF0YS1uYW1lPSJMYXllciAxIiB4bWxucz0iaHR0cDovL3d3dy53My5vcmcvMjAwMC9zdmciIHZpZXdCb3g9IjAgMCA0OSA0OSI+PGRlZnM+PHN0eWxlPi5jbHMtMXtmaWxsOiNhNTZlZmY7fS5jbHMtMntmaWxsOm5vbmU7fS5jbHMtM3tmaWxsOiNmZmY7ZmlsbC1ydWxlOmV2ZW5vZGQ7fTwvc3R5bGU+PC9kZWZzPjxyZWN0IGNsYXNzPSJjbHMtMSIgeD0iMC41IiB5PSIwLjUiIHdpZHRoPSI0OCIgaGVpZ2h0PSI0OCIgcng9IjgiLz48cmVjdCBjbGFzcz0iY2xzLTIiIHg9IjE0LjczIiB5PSIxNC41IiB3aWR0aD0iMjAiIGhlaWdodD0iMjAiLz48cmVjdCBjbGFzcz0iY2xzLTIiIHg9IjE0LjUiIHk9IjE0LjUiIHdpZHRoPSIyMCIgaGVpZ2h0PSIyMCIvPjxwYXRoIGlkPSJGaWxsLTEiIGNsYXNzPSJjbHMtMyIgZD0iTTE2LjI1LDI0LjIySDI0VjE2LjQ5SDE2LjI1Wk0yNCwyNS43N0gxNi4yNWExLjU0LDEuNTQsMCwwLDEtMS41NC0xLjU1VjE2LjQ5YTEuNTUsMS41NSwwLDAsMSwxLjU0LTEuNTVIMjRhMS41NSwxLjU1LDAsMCwxLDEuNTUsMS41NXY3LjczQTEuNTQsMS41NCwwLDAsMSwyNCwyNS43N1oiLz48cGF0aCBpZD0iRmlsbC0zIiBjbGFzcz0iY2xzLTMiIGQ9Ik0zMS43MiwxOS41OGgtMy4xYTEuNTUsMS41NSwwLDAsMC0xLjU0LDEuNTV2My4wOWExLjU0LDEuNTQsMCwwLDAsMS41NCwxLjU1aDMuMWExLjU0LDEuNTQsMCwwLDAsMS41NC0xLjU1VjIxLjEzYTEuNTUsMS41NSwwLDAsMC0xLjU0LTEuNTVabS0zLjEsNC42NGgzLjFWMjEuMTNoLTMuMVoiLz48cGF0aCBpZD0iRmlsbC00IiBjbGFzcz0iY2xzLTMiIGQ9Ik0zMS43MiwyNy4zMWgtMy4xYTEuNTUsMS41NSwwLDAsMC0xLjU0LDEuNTVWMzJhMS41NCwxLjU0LDAsMCwwLDEuNTQsMS41NWgzLjFBMS41NCwxLjU0LDAsMCwwLDMzLjI2LDMyVjI4Ljg2YTEuNTUsMS41NSwwLDAsMC0xLjU0LTEuNTVaTTI4LjYyLDMyaDMuMVYyOC44NmgtMy4xWiIvPjxwYXRoIGlkPSJGaWxsLTUiIGNsYXNzPSJjbHMtMyIgZD0iTTI0LDI3LjMxSDIwLjg5YTEuNTUsMS41NSwwLDAsMC0xLjU0LDEuNTVWMzJhMS41NCwxLjU0LDAsMCwwLDEuNTQsMS41NUgyNEExLjU0LDEuNTQsMCwwLDAsMjUuNTMsMzJWMjguODZBMS41NSwxLjU1LDAsMCwwLDI0LDI3LjMxWk0yMC44OSwzMkgyNFYyOC44NkgyMC44OVoiLz48L3N2Zz4=;fontFamily=IBM Plex Sans;fontSource=fonts%2FIBMPlexSans-Regular.woff;fontSize=14;labelPosition=center;verticalLabelPosition=bottom;align=center;verticalAlign=top;spacingTop=-7;" parent="wEJ2j6Q2r-iuzvhcd4Nl-4" vertex="1">
          <mxGeometry width="39" height="39" as="geometry" />
        </mxCell>
        <UserObject placeholders="1" label="&lt;b style=&#39;font-weight:600&#39;&gt;%Primary-Label%&lt;/b&gt;&lt;br&gt;%Secondary-Text%" Badge-Text="" Icon-Name="application" Primary-Label="Label" Secondary-Text="[Container:Microservice]&#xa;Description" id="_AgKB0M8dqoUZbRrFaeX-3">
          <mxCell style="shape=image;ibmType=nodel;ibmLayout=collapsed;strokeColor=#a56eff;fillColor=none;html=1;metaEdit=1;whiteSpace=wrap;fontFamily=IBM Plex Sans;fontSize=14;image=data:image/svg+xml,PHN2ZyBpZD0iTGF5ZXJfMSIgZGF0YS1uYW1lPSJMYXllciAxIiB4bWxucz0iaHR0cDovL3d3dy53My5vcmcvMjAwMC9zdmciIHZpZXdCb3g9IjAgMCA0OSA0OSI+PGRlZnM+PHN0eWxlPi5jbHMtMXtmaWxsOiNhNTZlZmY7fS5jbHMtMntmaWxsOm5vbmU7fS5jbHMtM3tmaWxsOiNmZmY7ZmlsbC1ydWxlOmV2ZW5vZGQ7fTwvc3R5bGU+PC9kZWZzPjxyZWN0IGNsYXNzPSJjbHMtMSIgeD0iMC41IiB5PSIwLjUiIHdpZHRoPSI0OCIgaGVpZ2h0PSI0OCIgcng9IjgiLz48cmVjdCBjbGFzcz0iY2xzLTIiIHg9IjE0LjczIiB5PSIxNC41IiB3aWR0aD0iMjAiIGhlaWdodD0iMjAiLz48cmVjdCBjbGFzcz0iY2xzLTIiIHg9IjE0LjUiIHk9IjE0LjUiIHdpZHRoPSIyMCIgaGVpZ2h0PSIyMCIvPjxwYXRoIGlkPSJGaWxsLTEiIGNsYXNzPSJjbHMtMyIgZD0iTTE2LjI1LDI0LjIySDI0VjE2LjQ5SDE2LjI1Wk0yNCwyNS43N0gxNi4yNWExLjU0LDEuNTQsMCwwLDEtMS41NC0xLjU1VjE2LjQ5YTEuNTUsMS41NSwwLDAsMSwxLjU0LTEuNTVIMjRhMS41NSwxLjU1LDAsMCwxLDEuNTUsMS41NXY3LjczQTEuNTQsMS41NCwwLDAsMSwyNCwyNS43N1oiLz48cGF0aCBpZD0iRmlsbC0zIiBjbGFzcz0iY2xzLTMiIGQ9Ik0zMS43MiwxOS41OGgtMy4xYTEuNTUsMS41NSwwLDAsMC0xLjU0LDEuNTV2My4wOWExLjU0LDEuNTQsMCwwLDAsMS41NCwxLjU1aDMuMWExLjU0LDEuNTQsMCwwLDAsMS41NC0xLjU1VjIxLjEzYTEuNTUsMS41NSwwLDAsMC0xLjU0LTEuNTVabS0zLjEsNC42NGgzLjFWMjEuMTNoLTMuMVoiLz48cGF0aCBpZD0iRmlsbC00IiBjbGFzcz0iY2xzLTMiIGQ9Ik0zMS43MiwyNy4zMWgtMy4xYTEuNTUsMS41NSwwLDAsMC0xLjU0LDEuNTVWMzJhMS41NCwxLjU0LDAsMCwwLDEuNTQsMS41NWgzLjFBMS41NCwxLjU0LDAsMCwwLDMzLjI2LDMyVjI4Ljg2YTEuNTUsMS41NSwwLDAsMC0xLjU0LTEuNTVaTTI4LjYyLDMyaDMuMVYyOC44NmgtMy4xWiIvPjxwYXRoIGlkPSJGaWxsLTUiIGNsYXNzPSJjbHMtMyIgZD0iTTI0LDI3LjMxSDIwLjg5YTEuNTUsMS41NSwwLDAsMC0xLjU0LDEuNTVWMzJhMS41NCwxLjU0LDAsMCwwLDEuNTQsMS41NUgyNEExLjU0LDEuNTQsMCwwLDAsMjUuNTMsMzJWMjguODZBMS41NSwxLjU1LDAsMCwwLDI0LDI3LjMxWk0yMC44OSwzMkgyNFYyOC44NkgyMC44OVoiLz48L3N2Zz4=;align=center;verticalAlign=top;labelPosition=center;verticalLabelPosition=bottom;spacing=0;spacingLeft=16;spacingRight=16;spacingTop=0;spacingBottom=4;" parent="1" vertex="1">
            <mxGeometry x="-1904" y="20" width="48" height="48" as="geometry" />
          </mxCell>
        </UserObject>
        <UserObject placeholders="1" label="&lt;b style=&#39;font-weight:600&#39;&gt;%Primary-Label%&lt;/b&gt;&lt;br&gt;%Secondary-Text%" Badge-Text="" Icon-Name="application--web" Primary-Label="Label" Secondary-Text="[Container:Web App]&#xa;Description" id="_AgKB0M8dqoUZbRrFaeX-4">
          <mxCell style="shape=image;ibmType=nodel;ibmLayout=collapsed;strokeColor=#a56eff;fillColor=none;html=1;metaEdit=1;fontFamily=IBM Plex Sans;fontSize=14;image=data:image/svg+xml,PHN2ZyBpZD0iTGF5ZXJfMSIgZGF0YS1uYW1lPSJMYXllciAxIiB4bWxucz0iaHR0cDovL3d3dy53My5vcmcvMjAwMC9zdmciIHZpZXdCb3g9IjAgMCA0OSA0OSI+PGRlZnM+PHN0eWxlPi5jbHMtMXtmaWxsOiNhNTZlZmY7fS5jbHMtMntmaWxsOiNmZmY7fS5jbHMtM3tmaWxsOm5vbmU7fTwvc3R5bGU+PC9kZWZzPjxyZWN0IGNsYXNzPSJjbHMtMSIgeD0iMC41IiB5PSIwLjUiIHdpZHRoPSI0OCIgaGVpZ2h0PSI0OCIgcng9IjgiLz48cGF0aCBjbGFzcz0iY2xzLTIiIGQ9Ik0zMiwyNC41djMuNzVIMTd2LTEwaDcuNVYxN0gxN2ExLjI1LDEuMjUsMCwwLDAtMS4yNSwxLjI1djEwQTEuMjUsMS4yNSwwLDAsMCwxNywyOS41aDVWMzJIMTkuNXYxLjI1aDEwVjMySDI3VjI5LjVoNWExLjI1LDEuMjUsMCwwLDAsMS4yNS0xLjI1VjI0LjVaTTI1Ljc1LDMyaC0yLjVWMjkuNWgyLjVaIi8+PHJlY3QgY2xhc3M9ImNscy0yIiB4PSIzMC43NSIgeT0iMTUuNzUiIHdpZHRoPSIyLjUiIGhlaWdodD0iMi41Ii8+PHJlY3QgY2xhc3M9ImNscy0yIiB4PSIzMC43NSIgeT0iMTkuNSIgd2lkdGg9IjIuNSIgaGVpZ2h0PSIyLjUiLz48cmVjdCBjbGFzcz0iY2xzLTIiIHg9IjI3IiB5PSIxNS43NSIgd2lkdGg9IjIuNSIgaGVpZ2h0PSIyLjUiLz48cmVjdCBjbGFzcz0iY2xzLTIiIHg9IjI3IiB5PSIxOS41IiB3aWR0aD0iMi41IiBoZWlnaHQ9IjIuNSIvPjxyZWN0IGNsYXNzPSJjbHMtMyIgeD0iMTQuNSIgeT0iMTQuNSIgd2lkdGg9IjIwIiBoZWlnaHQ9IjIwIi8+PC9zdmc+;align=center;verticalAlign=top;labelPosition=center;verticalLabelPosition=bottom;spacing=0;spacingLeft=16;spacingRight=16;spacingTop=0;spacingBottom=4;" parent="1" vertex="1">
            <mxGeometry x="-1568" y="20" width="48" height="48" as="geometry" />
          </mxCell>
        </UserObject>
        <UserObject placeholders="1" label="&lt;b style=&quot;font-weight:600&quot;&gt;%Primary-Label%&lt;/b&gt;&lt;br&gt;%Secondary-Text%" Badge-Text="" Icon-Name="application--web" Primary-Label="Label" Secondary-Text="[Container:Web App]&#xa;Description" id="_AgKB0M8dqoUZbRrFaeX-5">
          <mxCell style="shape=mxgraph.ibm.base;ibmType=nodel;ibmLayout=expanded;strokeColor=#a56eff;fillColor=default;html=1;metaEdit=1;whiteSpace=wrap;fontFamily=IBM Plex Sans;fontSize=14;image=;align=center;verticalAlign=middle;labelPosition=center;verticalLabelPosition=middle;spacing=0;spacingLeft=9;spacingRight=16;spacingTop=7;spacingBottom=0;container=1;collapsible=0;expand=0;recursiveResize=0;" parent="1" vertex="1">
            <mxGeometry x="-1694" y="136" width="300" height="70" as="geometry" />
          </mxCell>
        </UserObject>
        <mxCell id="wEJ2j6Q2r-iuzvhcd4Nl-17" value="" style="group" parent="_AgKB0M8dqoUZbRrFaeX-5" vertex="1" connectable="0">
          <mxGeometry y="-4.5" width="39" height="48" as="geometry" />
        </mxCell>
        <mxCell id="wEJ2j6Q2r-iuzvhcd4Nl-9" value="" style="whiteSpace=wrap;html=1;aspect=fixed;strokeColor=none;fillColor=#a56eff;" parent="wEJ2j6Q2r-iuzvhcd4Nl-17" vertex="1">
          <mxGeometry y="4.5" width="39" height="39" as="geometry" />
        </mxCell>
        <UserObject placeholders="1" label="&lt;b style=&#39;font-weight:600&#39;&gt;%Primary-Label%&lt;/b&gt;&lt;br&gt;%Secondary-Text%" Badge-Text="" Icon-Name="application--web" Primary-Label="" Secondary-Text="" id="wEJ2j6Q2r-iuzvhcd4Nl-15">
          <mxCell style="shape=image;ibmType=nodel;ibmLayout=collapsed;strokeColor=#a56eff;fillColor=none;html=1;metaEdit=1;fontFamily=IBM Plex Sans;fontSize=14;image=data:image/svg+xml,PHN2ZyBpZD0iTGF5ZXJfMSIgZGF0YS1uYW1lPSJMYXllciAxIiB4bWxucz0iaHR0cDovL3d3dy53My5vcmcvMjAwMC9zdmciIHZpZXdCb3g9IjAgMCA0OSA0OSI+PGRlZnM+PHN0eWxlPi5jbHMtMXtmaWxsOiNhNTZlZmY7fS5jbHMtMntmaWxsOiNmZmY7fS5jbHMtM3tmaWxsOm5vbmU7fTwvc3R5bGU+PC9kZWZzPjxyZWN0IGNsYXNzPSJjbHMtMSIgeD0iMC41IiB5PSIwLjUiIHdpZHRoPSI0OCIgaGVpZ2h0PSI0OCIgcng9IjgiLz48cGF0aCBjbGFzcz0iY2xzLTIiIGQ9Ik0zMiwyNC41djMuNzVIMTd2LTEwaDcuNVYxN0gxN2ExLjI1LDEuMjUsMCwwLDAtMS4yNSwxLjI1djEwQTEuMjUsMS4yNSwwLDAsMCwxNywyOS41aDVWMzJIMTkuNXYxLjI1aDEwVjMySDI3VjI5LjVoNWExLjI1LDEuMjUsMCwwLDAsMS4yNS0xLjI1VjI0LjVaTTI1Ljc1LDMyaC0yLjVWMjkuNWgyLjVaIi8+PHJlY3QgY2xhc3M9ImNscy0yIiB4PSIzMC43NSIgeT0iMTUuNzUiIHdpZHRoPSIyLjUiIGhlaWdodD0iMi41Ii8+PHJlY3QgY2xhc3M9ImNscy0yIiB4PSIzMC43NSIgeT0iMTkuNSIgd2lkdGg9IjIuNSIgaGVpZ2h0PSIyLjUiLz48cmVjdCBjbGFzcz0iY2xzLTIiIHg9IjI3IiB5PSIxNS43NSIgd2lkdGg9IjIuNSIgaGVpZ2h0PSIyLjUiLz48cmVjdCBjbGFzcz0iY2xzLTIiIHg9IjI3IiB5PSIxOS41IiB3aWR0aD0iMi41IiBoZWlnaHQ9IjIuNSIvPjxyZWN0IGNsYXNzPSJjbHMtMyIgeD0iMTQuNSIgeT0iMTQuNSIgd2lkdGg9IjIwIiBoZWlnaHQ9IjIwIi8+PC9zdmc+;align=center;verticalAlign=top;labelPosition=center;verticalLabelPosition=bottom;spacing=0;spacingLeft=16;spacingRight=16;spacingTop=0;spacingBottom=4;" parent="wEJ2j6Q2r-iuzvhcd4Nl-17" vertex="1">
            <mxGeometry width="38" height="48" as="geometry" />
          </mxCell>
        </UserObject>
        <UserObject placeholders="1" label="&lt;b style=&#39;font-weight:600&#39;&gt;%Primary-Label%&lt;/b&gt;&lt;br&gt;%Secondary-Text%" Badge-Text="" Icon-Name="application" Primary-Label="Label" Secondary-Text="[Container: Application]&#xa;Description" id="_AgKB0M8dqoUZbRrFaeX-6">
          <mxCell style="shape=image;ibmType=nodel;ibmLayout=collapsed;strokeColor=#a56eff;fillColor=none;html=1;metaEdit=1;fontFamily=IBM Plex Sans;fontSize=14;image=data:image/svg+xml,PHN2ZyBpZD0iTGF5ZXJfMSIgZGF0YS1uYW1lPSJMYXllciAxIiB4bWxucz0iaHR0cDovL3d3dy53My5vcmcvMjAwMC9zdmciIHZpZXdCb3g9IjAgMCA0OSA0OSI+PGRlZnM+PHN0eWxlPi5jbHMtMXtmaWxsOiNhNTZlZmY7fS5jbHMtMntmaWxsOm5vbmU7fS5jbHMtM3tmaWxsOiNmZmY7ZmlsbC1ydWxlOmV2ZW5vZGQ7fTwvc3R5bGU+PC9kZWZzPjxyZWN0IGNsYXNzPSJjbHMtMSIgeD0iMC41IiB5PSIwLjUiIHdpZHRoPSI0OCIgaGVpZ2h0PSI0OCIgcng9IjgiLz48cmVjdCBjbGFzcz0iY2xzLTIiIHg9IjE0LjczIiB5PSIxNC41IiB3aWR0aD0iMjAiIGhlaWdodD0iMjAiLz48cmVjdCBjbGFzcz0iY2xzLTIiIHg9IjE0LjUiIHk9IjE0LjUiIHdpZHRoPSIyMCIgaGVpZ2h0PSIyMCIvPjxwYXRoIGlkPSJGaWxsLTEiIGNsYXNzPSJjbHMtMyIgZD0iTTE2LjI1LDI0LjIySDI0VjE2LjQ5SDE2LjI1Wk0yNCwyNS43N0gxNi4yNWExLjU0LDEuNTQsMCwwLDEtMS41NC0xLjU1VjE2LjQ5YTEuNTUsMS41NSwwLDAsMSwxLjU0LTEuNTVIMjRhMS41NSwxLjU1LDAsMCwxLDEuNTUsMS41NXY3LjczQTEuNTQsMS41NCwwLDAsMSwyNCwyNS43N1oiLz48cGF0aCBpZD0iRmlsbC0zIiBjbGFzcz0iY2xzLTMiIGQ9Ik0zMS43MiwxOS41OGgtMy4xYTEuNTUsMS41NSwwLDAsMC0xLjU0LDEuNTV2My4wOWExLjU0LDEuNTQsMCwwLDAsMS41NCwxLjU1aDMuMWExLjU0LDEuNTQsMCwwLDAsMS41NC0xLjU1VjIxLjEzYTEuNTUsMS41NSwwLDAsMC0xLjU0LTEuNTVabS0zLjEsNC42NGgzLjFWMjEuMTNoLTMuMVoiLz48cGF0aCBpZD0iRmlsbC00IiBjbGFzcz0iY2xzLTMiIGQ9Ik0zMS43MiwyNy4zMWgtMy4xYTEuNTUsMS41NSwwLDAsMC0xLjU0LDEuNTVWMzJhMS41NCwxLjU0LDAsMCwwLDEuNTQsMS41NWgzLjFBMS41NCwxLjU0LDAsMCwwLDMzLjI2LDMyVjI4Ljg2YTEuNTUsMS41NSwwLDAsMC0xLjU0LTEuNTVaTTI4LjYyLDMyaDMuMVYyOC44NmgtMy4xWiIvPjxwYXRoIGlkPSJGaWxsLTUiIGNsYXNzPSJjbHMtMyIgZD0iTTI0LDI3LjMxSDIwLjg5YTEuNTUsMS41NSwwLDAsMC0xLjU0LDEuNTVWMzJhMS41NCwxLjU0LDAsMCwwLDEuNTQsMS41NUgyNEExLjU0LDEuNTQsMCwwLDAsMjUuNTMsMzJWMjguODZBMS41NSwxLjU1LDAsMCwwLDI0LDI3LjMxWk0yMC44OSwzMkgyNFYyOC44NkgyMC44OVoiLz48L3N2Zz4=;align=center;verticalAlign=top;labelPosition=center;verticalLabelPosition=bottom;spacing=0;spacingLeft=16;spacingRight=16;spacingTop=0;spacingBottom=4;" parent="1" vertex="1">
            <mxGeometry x="-1232" y="20" width="48" height="48" as="geometry" />
          </mxCell>
        </UserObject>
        <UserObject placeholders="1" label="&lt;b style=&quot;font-weight:600&quot;&gt;%Primary-Label%&lt;/b&gt;&lt;br&gt;%Secondary-Text%" Badge-Text="" Icon-Name="application" Primary-Label="Label" Secondary-Text="[Container:Application]&#xa;Description" id="_AgKB0M8dqoUZbRrFaeX-7">
          <mxCell style="shape=mxgraph.ibm.base;ibmType=nodel;ibmLayout=expanded;strokeColor=#a56eff;fillColor=default;html=1;metaEdit=1;whiteSpace=wrap;fontFamily=IBM Plex Sans;fontSize=14;image=;align=center;verticalAlign=middle;labelPosition=center;verticalLabelPosition=middle;spacing=0;spacingLeft=9;spacingRight=16;spacingTop=7;spacingBottom=0;container=1;collapsible=0;expand=0;recursiveResize=0;" parent="1" vertex="1">
            <mxGeometry x="-1358" y="136" width="300" height="70" as="geometry" />
          </mxCell>
        </UserObject>
        <mxCell id="wEJ2j6Q2r-iuzvhcd4Nl-12" value="" style="group" parent="_AgKB0M8dqoUZbRrFaeX-7" vertex="1" connectable="0">
          <mxGeometry x="-1" width="39" height="39" as="geometry" />
        </mxCell>
        <mxCell id="wEJ2j6Q2r-iuzvhcd4Nl-13" value="" style="whiteSpace=wrap;html=1;aspect=fixed;strokeColor=none;fillColor=#a56eff;" parent="wEJ2j6Q2r-iuzvhcd4Nl-12" vertex="1">
          <mxGeometry width="39" height="39" as="geometry" />
        </mxCell>
        <mxCell id="wEJ2j6Q2r-iuzvhcd4Nl-14" value="" style="shape=image;aspect=fixed;image=data:image/svg+xml,PHN2ZyBpZD0iTGF5ZXJfMSIgZGF0YS1uYW1lPSJMYXllciAxIiB4bWxucz0iaHR0cDovL3d3dy53My5vcmcvMjAwMC9zdmciIHZpZXdCb3g9IjAgMCA0OSA0OSI+PGRlZnM+PHN0eWxlPi5jbHMtMXtmaWxsOiNhNTZlZmY7fS5jbHMtMntmaWxsOm5vbmU7fS5jbHMtM3tmaWxsOiNmZmY7ZmlsbC1ydWxlOmV2ZW5vZGQ7fTwvc3R5bGU+PC9kZWZzPjxyZWN0IGNsYXNzPSJjbHMtMSIgeD0iMC41IiB5PSIwLjUiIHdpZHRoPSI0OCIgaGVpZ2h0PSI0OCIgcng9IjgiLz48cmVjdCBjbGFzcz0iY2xzLTIiIHg9IjE0LjczIiB5PSIxNC41IiB3aWR0aD0iMjAiIGhlaWdodD0iMjAiLz48cmVjdCBjbGFzcz0iY2xzLTIiIHg9IjE0LjUiIHk9IjE0LjUiIHdpZHRoPSIyMCIgaGVpZ2h0PSIyMCIvPjxwYXRoIGlkPSJGaWxsLTEiIGNsYXNzPSJjbHMtMyIgZD0iTTE2LjI1LDI0LjIySDI0VjE2LjQ5SDE2LjI1Wk0yNCwyNS43N0gxNi4yNWExLjU0LDEuNTQsMCwwLDEtMS41NC0xLjU1VjE2LjQ5YTEuNTUsMS41NSwwLDAsMSwxLjU0LTEuNTVIMjRhMS41NSwxLjU1LDAsMCwxLDEuNTUsMS41NXY3LjczQTEuNTQsMS41NCwwLDAsMSwyNCwyNS43N1oiLz48cGF0aCBpZD0iRmlsbC0zIiBjbGFzcz0iY2xzLTMiIGQ9Ik0zMS43MiwxOS41OGgtMy4xYTEuNTUsMS41NSwwLDAsMC0xLjU0LDEuNTV2My4wOWExLjU0LDEuNTQsMCwwLDAsMS41NCwxLjU1aDMuMWExLjU0LDEuNTQsMCwwLDAsMS41NC0xLjU1VjIxLjEzYTEuNTUsMS41NSwwLDAsMC0xLjU0LTEuNTVabS0zLjEsNC42NGgzLjFWMjEuMTNoLTMuMVoiLz48cGF0aCBpZD0iRmlsbC00IiBjbGFzcz0iY2xzLTMiIGQ9Ik0zMS43MiwyNy4zMWgtMy4xYTEuNTUsMS41NSwwLDAsMC0xLjU0LDEuNTVWMzJhMS41NCwxLjU0LDAsMCwwLDEuNTQsMS41NWgzLjFBMS41NCwxLjU0LDAsMCwwLDMzLjI2LDMyVjI4Ljg2YTEuNTUsMS41NSwwLDAsMC0xLjU0LTEuNTVaTTI4LjYyLDMyaDMuMVYyOC44NmgtMy4xWiIvPjxwYXRoIGlkPSJGaWxsLTUiIGNsYXNzPSJjbHMtMyIgZD0iTTI0LDI3LjMxSDIwLjg5YTEuNTUsMS41NSwwLDAsMC0xLjU0LDEuNTVWMzJhMS41NCwxLjU0LDAsMCwwLDEuNTQsMS41NUgyNEExLjU0LDEuNTQsMCwwLDAsMjUuNTMsMzJWMjguODZBMS41NSwxLjU1LDAsMCwwLDI0LDI3LjMxWk0yMC44OSwzMkgyNFYyOC44NkgyMC44OVoiLz48L3N2Zz4=;fontFamily=IBM Plex Sans;fontSource=fonts%2FIBMPlexSans-Regular.woff;fontSize=14;labelPosition=center;verticalLabelPosition=bottom;align=center;verticalAlign=top;spacingTop=-7;" parent="wEJ2j6Q2r-iuzvhcd4Nl-12" vertex="1">
          <mxGeometry width="39" height="39" as="geometry" />
        </mxCell>
        <UserObject placeholders="1" label="&lt;b style=&#39;font-weight:600&#39;&gt;%Primary-Label%&lt;/b&gt;&lt;br&gt;%Secondary-Text%" Badge-Text="" Icon-Name="function" Primary-Label="Label" Secondary-Text="[Container:Serverless]&#xa;Description" id="_AgKB0M8dqoUZbRrFaeX-8">
          <mxCell style="shape=image;ibmType=nodep;ibmLayout=collapsed;strokeColor=#a56eff;fillColor=none;html=1;metaEdit=1;whiteSpace=wrap;fontFamily=IBM Plex Sans;fontSize=14;image=data:image/svg+xml,PHN2ZyBpZD0iTGF5ZXJfMSIgZGF0YS1uYW1lPSJMYXllciAxIiB4bWxucz0iaHR0cDovL3d3dy53My5vcmcvMjAwMC9zdmciIHZpZXdCb3g9IjAgMCA0OSA0OSI+PGRlZnM+PHN0eWxlPi5jbHMtMXtmaWxsOiNhNTZlZmY7fS5jbHMtMntmaWxsOiNmZmY7fS5jbHMtM3tmaWxsOm5vbmU7fTwvc3R5bGU+PC9kZWZzPjxyZWN0IGNsYXNzPSJjbHMtMSIgeD0iMC41IiB5PSIwLjUiIHdpZHRoPSI0OCIgaGVpZ2h0PSI0OCIvPjxwYXRoIGNsYXNzPSJjbHMtMiIgZD0iTTE3Ljc3LDMwLjA5YTguNzUsOC43NSwwLDAsMSw0LjQ3LTE0bC4zMiwxLjJhNy41LDcuNSwwLDAsMC0zLjgzLDEyWiIvPjxwYXRoIGNsYXNzPSJjbHMtMiIgZD0iTTI2Ljc3LDMzbC0uMzMtMS4yYTcuNSw3LjUsMCwwLDAsMy44My0xMmwxLS44YTguNzUsOC43NSwwLDAsMS00LjQ2LDE0WiIvPjxyZWN0IGNsYXNzPSJjbHMtMyIgeD0iMTQuNSIgeT0iMTQuNSIgd2lkdGg9IjIwIiBoZWlnaHQ9IjIwIi8+PHBhdGggY2xhc3M9ImNscy0yIiBkPSJNMjAuNzUsMzIuNjNIMTkuNVYzMC4yNGwuNS0uMWMuOTEtLjE4LDItLjg4LDItMy4xNHYtLjg2bC0yLjUtMS4yNXYtMS40TDIyLDIyLjI0VjIyYzAtMy40MiwyLjQ1LTUuNjIsNi4yNS01LjYySDI5LjV2Mi4zOGwtLjUuMWMtLjkxLjE4LTIsLjg4LTIsMy4xNHYuMjRsMi41LDEuMjV2MS40TDI3LDI2LjE0VjI3QzI3LDMwLjQyLDI0LjU1LDMyLjYzLDIwLjc1LDMyLjYzWm0wLTEuMjVjMy4wOCwwLDUtMS42OCw1LTQuMzhWMjUuMzZsMi4zNS0xLjE3TDI1Ljc1LDIzVjIyYzAtMi44NiwxLjQ5LTMuODcsMi41LTQuMjJ2LS4xNWMtMy4wOCwwLTUsMS42Ny01LDQuMzd2MUwyMC45LDI0LjE5bDIuMzUsMS4xN1YyN2MwLDIuODYtMS40OSwzLjg3LTIuNSw0LjIyWiIvPjwvc3ZnPg==;align=center;verticalAlign=top;labelPosition=center;verticalLabelPosition=bottom;spacing=0;spacingLeft=16;spacingRight=16;spacingTop=0;spacingBottom=4;" parent="1" vertex="1">
            <mxGeometry x="-896" y="20" width="48" height="48" as="geometry" />
          </mxCell>
        </UserObject>
        <UserObject placeholders="1" label="&lt;b style=&quot;font-weight:600&quot;&gt;%Primary-Label%&lt;/b&gt;&lt;br&gt;%Secondary-Text%" Badge-Text="" Icon-Name="function" Primary-Label="Label" Secondary-Text="[Container:Serverless]&#xa;Description" id="_AgKB0M8dqoUZbRrFaeX-10">
          <mxCell style="shape=mxgraph.ibm.base;ibmType=nodep;ibmLayout=expanded;strokeColor=#a56eff;fillColor=default;html=1;metaEdit=1;whiteSpace=wrap;fontFamily=IBM Plex Sans;fontSize=14;image=;align=center;verticalAlign=middle;labelPosition=center;verticalLabelPosition=middle;spacing=0;spacingLeft=9;spacingRight=16;spacingTop=8;spacingBottom=0;container=1;collapsible=0;expand=0;recursiveResize=0;" parent="1" vertex="1">
            <mxGeometry x="-1022" y="136" width="300" height="70" as="geometry" />
          </mxCell>
        </UserObject>
        <mxCell id="wEJ2j6Q2r-iuzvhcd4Nl-18" value="" style="shape=image;aspect=fixed;image=data:image/svg+xml,PHN2ZyBpZD0iTGF5ZXJfMSIgZGF0YS1uYW1lPSJMYXllciAxIiB4bWxucz0iaHR0cDovL3d3dy53My5vcmcvMjAwMC9zdmciIHZpZXdCb3g9IjAgMCA0OSA0OSI+PGRlZnM+PHN0eWxlPi5jbHMtMXtmaWxsOiNhNTZlZmY7fS5jbHMtMntmaWxsOiNmZmY7fS5jbHMtM3tmaWxsOm5vbmU7fTwvc3R5bGU+PC9kZWZzPjxyZWN0IGNsYXNzPSJjbHMtMSIgeD0iMC41IiB5PSIwLjUiIHdpZHRoPSI0OCIgaGVpZ2h0PSI0OCIvPjxwYXRoIGNsYXNzPSJjbHMtMiIgZD0iTTE3Ljc3LDMwLjA5YTguNzUsOC43NSwwLDAsMSw0LjQ3LTE0bC4zMiwxLjJhNy41LDcuNSwwLDAsMC0zLjgzLDEyWiIvPjxwYXRoIGNsYXNzPSJjbHMtMiIgZD0iTTI2Ljc3LDMzbC0uMzMtMS4yYTcuNSw3LjUsMCwwLDAsMy44My0xMmwxLS44YTguNzUsOC43NSwwLDAsMS00LjQ2LDE0WiIvPjxyZWN0IGNsYXNzPSJjbHMtMyIgeD0iMTQuNSIgeT0iMTQuNSIgd2lkdGg9IjIwIiBoZWlnaHQ9IjIwIi8+PHBhdGggY2xhc3M9ImNscy0yIiBkPSJNMjAuNzUsMzIuNjNIMTkuNVYzMC4yNGwuNS0uMWMuOTEtLjE4LDItLjg4LDItMy4xNHYtLjg2bC0yLjUtMS4yNXYtMS40TDIyLDIyLjI0VjIyYzAtMy40MiwyLjQ1LTUuNjIsNi4yNS01LjYySDI5LjV2Mi4zOGwtLjUuMWMtLjkxLjE4LTIsLjg4LTIsMy4xNHYuMjRsMi41LDEuMjV2MS40TDI3LDI2LjE0VjI3QzI3LDMwLjQyLDI0LjU1LDMyLjYzLDIwLjc1LDMyLjYzWm0wLTEuMjVjMy4wOCwwLDUtMS42OCw1LTQuMzhWMjUuMzZsMi4zNS0xLjE3TDI1Ljc1LDIzVjIyYzAtMi44NiwxLjQ5LTMuODcsMi41LTQuMjJ2LS4xNWMtMy4wOCwwLTUsMS42Ny01LDQuMzd2MUwyMC45LDI0LjE5bDIuMzUsMS4xN1YyN2MwLDIuODYtMS40OSwzLjg3LTIuNSw0LjIyWiIvPjwvc3ZnPg==;fontFamily=IBM Plex Sans;fontSource=fonts%2FIBMPlexSans-Regular.woff;labelPosition=center;verticalLabelPosition=bottom;align=center;verticalAlign=top;spacingTop=-7;fontSize=14;" parent="_AgKB0M8dqoUZbRrFaeX-10" vertex="1">
          <mxGeometry x="-1" width="39" height="39" as="geometry" />
        </mxCell>
        <UserObject placeholders="1" label="&lt;b style=&#39;font-weight:600&#39;&gt;%Primary-Label%&lt;/b&gt;&lt;br&gt;%Secondary-Text%" Badge-Text="" Icon-Name="message-queue" Primary-Label="Label" Secondary-Text="[Container:Message Queue]&#xa;Description" id="_AgKB0M8dqoUZbRrFaeX-11">
          <mxCell style="shape=image;ibmType=nodel;ibmLayout=collapsed;strokeColor=#1192e8;fillColor=none;html=1;metaEdit=1;fontFamily=IBM Plex Sans;fontSize=14;image=data:image/svg+xml,PHN2ZyBpZD0iTGF5ZXJfMSIgZGF0YS1uYW1lPSJMYXllciAxIiB4bWxucz0iaHR0cDovL3d3dy53My5vcmcvMjAwMC9zdmciIHZpZXdCb3g9IjAgMCA0OSA0OSI+PGRlZnM+PHN0eWxlPi5jbHMtMXtmaWxsOiMxMTkyZTg7fS5jbHMtMntmaWxsOiNmZmY7fS5jbHMtM3tmaWxsOm5vbmU7fTwvc3R5bGU+PC9kZWZzPjxyZWN0IGNsYXNzPSJjbHMtMSIgeD0iMC41IiB5PSIwLjUiIHdpZHRoPSI0OCIgaGVpZ2h0PSI0OCIgcng9IjgiLz48cGF0aCBjbGFzcz0iY2xzLTIiIGQ9Ik0zMiwzMkgxN2ExLjI1LDEuMjUsMCwwLDEtMS4yNS0xLjI1VjI3LjYySDE3djMuMTNIMzJWMjcuNjJoMS4yNXYzLjEzQTEuMjUsMS4yNSwwLDAsMSwzMiwzMloiLz48cmVjdCBjbGFzcz0iY2xzLTIiIHg9IjE4Ljg4IiB5PSIyNy42MiIgd2lkdGg9IjExLjI1IiBoZWlnaHQ9IjEuMjUiLz48cmVjdCBjbGFzcz0iY2xzLTIiIHg9IjE4Ljg4IiB5PSIyNC41IiB3aWR0aD0iMTEuMjUiIGhlaWdodD0iMS4yNSIvPjxyZWN0IGNsYXNzPSJjbHMtMiIgeD0iMTguODgiIHk9IjIxLjM4IiB3aWR0aD0iMTEuMjUiIGhlaWdodD0iMS4yNSIvPjxyZWN0IGNsYXNzPSJjbHMtMiIgeD0iMTguODgiIHk9IjE4LjI1IiB3aWR0aD0iMTEuMjUiIGhlaWdodD0iMS4yNSIvPjxyZWN0IGNsYXNzPSJjbHMtMyIgeD0iMTQuNSIgeT0iMTQuNSIgd2lkdGg9IjIwIiBoZWlnaHQ9IjIwIi8+PC9zdmc+;align=center;verticalAlign=top;labelPosition=center;verticalLabelPosition=bottom;spacing=0;spacingLeft=16;spacingRight=16;spacingTop=0;spacingBottom=4;" parent="1" vertex="1">
            <mxGeometry x="-224" y="20" width="48" height="48" as="geometry" />
          </mxCell>
        </UserObject>
        <UserObject placeholders="1" label="&lt;b style=&quot;font-weight:600&quot;&gt;%Primary-Label%&lt;/b&gt;&lt;br&gt;%Secondary-Text%" Badge-Text="" Icon-Name="message-queue" Primary-Label="Label" Secondary-Text="[Container:Message Queue]&#xa;Description" id="_AgKB0M8dqoUZbRrFaeX-12">
          <mxCell style="shape=mxgraph.ibm.base;ibmType=nodel;ibmLayout=expanded;strokeColor=#1192e8;fillColor=default;html=1;metaEdit=1;whiteSpace=wrap;fontFamily=IBM Plex Sans;fontSize=14;image=;align=center;verticalAlign=middle;labelPosition=center;verticalLabelPosition=middle;spacing=0;spacingLeft=9;spacingRight=16;spacingTop=7;spacingBottom=0;container=1;collapsible=0;expand=0;recursiveResize=0;" parent="1" vertex="1">
            <mxGeometry x="-350" y="136" width="300" height="70" as="geometry" />
          </mxCell>
        </UserObject>
        <mxCell id="wEJ2j6Q2r-iuzvhcd4Nl-51" value="" style="group" parent="_AgKB0M8dqoUZbRrFaeX-12" vertex="1" connectable="0">
          <mxGeometry width="39" height="39" as="geometry" />
        </mxCell>
        <mxCell id="wEJ2j6Q2r-iuzvhcd4Nl-50" value="" style="whiteSpace=wrap;html=1;aspect=fixed;strokeColor=none;fillColor=#1192E8;" parent="wEJ2j6Q2r-iuzvhcd4Nl-51" vertex="1">
          <mxGeometry width="39" height="39" as="geometry" />
        </mxCell>
        <mxCell id="wEJ2j6Q2r-iuzvhcd4Nl-47" value="" style="shape=image;aspect=fixed;image=data:image/svg+xml,PHN2ZyBpZD0iTGF5ZXJfMSIgZGF0YS1uYW1lPSJMYXllciAxIiB4bWxucz0iaHR0cDovL3d3dy53My5vcmcvMjAwMC9zdmciIHZpZXdCb3g9IjAgMCA0OSA0OSI+PGRlZnM+PHN0eWxlPi5jbHMtMXtmaWxsOiMxMTkyZTg7fS5jbHMtMntmaWxsOiNmZmY7fS5jbHMtM3tmaWxsOm5vbmU7fTwvc3R5bGU+PC9kZWZzPjxyZWN0IGNsYXNzPSJjbHMtMSIgeD0iMC41IiB5PSIwLjUiIHdpZHRoPSI0OCIgaGVpZ2h0PSI0OCIgcng9IjgiLz48cGF0aCBjbGFzcz0iY2xzLTIiIGQ9Ik0zMiwzMkgxN2ExLjI1LDEuMjUsMCwwLDEtMS4yNS0xLjI1VjI3LjYySDE3djMuMTNIMzJWMjcuNjJoMS4yNXYzLjEzQTEuMjUsMS4yNSwwLDAsMSwzMiwzMloiLz48cmVjdCBjbGFzcz0iY2xzLTIiIHg9IjE4Ljg4IiB5PSIyNy42MiIgd2lkdGg9IjExLjI1IiBoZWlnaHQ9IjEuMjUiLz48cmVjdCBjbGFzcz0iY2xzLTIiIHg9IjE4Ljg4IiB5PSIyNC41IiB3aWR0aD0iMTEuMjUiIGhlaWdodD0iMS4yNSIvPjxyZWN0IGNsYXNzPSJjbHMtMiIgeD0iMTguODgiIHk9IjIxLjM4IiB3aWR0aD0iMTEuMjUiIGhlaWdodD0iMS4yNSIvPjxyZWN0IGNsYXNzPSJjbHMtMiIgeD0iMTguODgiIHk9IjE4LjI1IiB3aWR0aD0iMTEuMjUiIGhlaWdodD0iMS4yNSIvPjxyZWN0IGNsYXNzPSJjbHMtMyIgeD0iMTQuNSIgeT0iMTQuNSIgd2lkdGg9IjIwIiBoZWlnaHQ9IjIwIi8+PC9zdmc+;fontFamily=IBM Plex Sans;fontSource=fonts%2FIBMPlexSans-Regular.woff;fontSize=14;labelPosition=center;verticalLabelPosition=bottom;align=center;verticalAlign=top;spacingTop=-7;" parent="wEJ2j6Q2r-iuzvhcd4Nl-51" vertex="1">
          <mxGeometry width="39" height="39" as="geometry" />
        </mxCell>
        <UserObject placeholders="1" label="&lt;b style=&#39;font-weight:600&#39;&gt;%Primary-Label%&lt;/b&gt;&lt;br&gt;%Secondary-Text%" Badge-Text="" Icon-Name="gateway--api" Primary-Label="Label" Secondary-Text="[Container:API Gateway]&#xa;Description" id="_AgKB0M8dqoUZbRrFaeX-13">
          <mxCell style="shape=image;ibmType=nodep;ibmLayout=collapsed;strokeColor=#1192e8;fillColor=none;html=1;metaEdit=1;fontFamily=IBM Plex Sans;fontSize=14;image=data:image/svg+xml,PHN2ZyBpZD0iTGF5ZXJfMSIgZGF0YS1uYW1lPSJMYXllciAxIiB4bWxucz0iaHR0cDovL3d3dy53My5vcmcvMjAwMC9zdmciIHZpZXdCb3g9IjAgMCA0OSA0OSI+PGRlZnM+PHN0eWxlPi5jbHMtMXtmaWxsOiMxMTkyZTg7fS5jbHMtMntmaWxsOm5vbmU7fS5jbHMtM3tmaWxsOiNmZmY7fTwvc3R5bGU+PC9kZWZzPjxyZWN0IGNsYXNzPSJjbHMtMSIgeD0iMC41IiB5PSIwLjUiIHdpZHRoPSI0OCIgaGVpZ2h0PSI0OCIgcng9IjgiLz48cmVjdCBjbGFzcz0iY2xzLTIiIHg9IjE0LjUiIHk9IjE0LjUiIHdpZHRoPSIyMCIgaGVpZ2h0PSIyMCIvPjxwYXRoIGNsYXNzPSJjbHMtMyIgZD0iTTMzLjg4LDI0LjVhMS4yNiwxLjI2LDAsMCwwLS4zNy0uODhMMjkuODksMjBsMS43OS0xLjhhMS4yMiwxLjIyLDAsMCwwLDEuMi0uMzIsMS4yNCwxLjI0LDAsMCwwLTEuNzYtMS43NiwxLjIyLDEuMjIsMCwwLDAtLjMyLDEuMkwyOSwxOS4xMWwtMy42Mi0zLjYyYTEuMjMsMS4yMywwLDAsMC0xLjc2LDBMMjAsMTkuMTFsLTEuOC0xLjc5YTEuMjIsMS4yMiwwLDAsMC0uMzItMS4yLDEuMjQsMS4yNCwwLDAsMC0xLjc2LDEuNzYsMS4yMiwxLjIyLDAsMCwwLDEuMi4zMkwxOS4xMSwyMGwtMy42MiwzLjYyYTEuMjMsMS4yMywwLDAsMCwwLDEuNzZMMTkuMTEsMjlsLTEuNzksMS44YTEuMjIsMS4yMiwwLDAsMC0xLjIuMzIsMS4yNCwxLjI0LDAsMCwwLDEuNzYsMS43NiwxLjIyLDEuMjIsMCwwLDAsLjMyLTEuMkwyMCwyOS44OWwzLjYyLDMuNjJhMS4yMywxLjIzLDAsMCwwLDEuNzYsMEwyOSwyOS44OWwxLjgsMS43OWExLjIyLDEuMjIsMCwwLDAsLjMyLDEuMiwxLjI0LDEuMjQsMCwwLDAsMS43Ni0xLjc2LDEuMjIsMS4yMiwwLDAsMC0xLjItLjMyTDI5Ljg5LDI5bDMuNjItMy42MkExLjI2LDEuMjYsMCwwLDAsMzMuODgsMjQuNVpNMjksMjguMTJsLTEuNzQtMS43NC0uODguODhMMjguMTIsMjksMjQuNSwzMi42MiwyMC44OCwyOWwxLjc0LTEuNzQtLjg4LS44OEwyMCwyOC4xMiwxNi4zOCwyNC41LDIwLDIwLjg4bDEuNzQsMS43NC44OC0uODhMMjAuODgsMjBsMy42Mi0zLjYyTDI4LjEyLDIwbC0xLjc0LDEuNzQuODguODhMMjksMjAuODhsMy42MiwzLjYyWiIvPjwvc3ZnPg==;align=center;verticalAlign=top;labelPosition=center;verticalLabelPosition=bottom;spacing=0;spacingLeft=16;spacingRight=16;spacingTop=0;spacingBottom=4;" parent="1" vertex="1">
            <mxGeometry x="-560" y="20" width="48" height="48" as="geometry" />
          </mxCell>
        </UserObject>
        <UserObject placeholders="1" label="&lt;b style=&quot;font-weight:600&quot;&gt;%Primary-Label%&lt;/b&gt;&lt;br&gt;%Secondary-Text%" Badge-Text="" Icon-Name="gateway--api" Primary-Label="Label" Secondary-Text="[Container:API Gateway]&#xa;Description" id="_AgKB0M8dqoUZbRrFaeX-14">
          <mxCell style="shape=mxgraph.ibm.base;ibmType=nodel;ibmLayout=expanded;strokeColor=#1192e8;fillColor=default;html=1;metaEdit=1;whiteSpace=wrap;fontFamily=IBM Plex Sans;fontSize=14;image=;align=center;verticalAlign=middle;labelPosition=center;verticalLabelPosition=middle;spacing=0;spacingLeft=9;spacingRight=16;spacingTop=7;spacingBottom=0;container=1;collapsible=0;expand=0;recursiveResize=0;" parent="1" vertex="1">
            <mxGeometry x="-686" y="136" width="300" height="70" as="geometry" />
          </mxCell>
        </UserObject>
        <mxCell id="wEJ2j6Q2r-iuzvhcd4Nl-46" value="" style="group" parent="_AgKB0M8dqoUZbRrFaeX-14" vertex="1" connectable="0">
          <mxGeometry x="-1" width="39" height="39" as="geometry" />
        </mxCell>
        <mxCell id="wEJ2j6Q2r-iuzvhcd4Nl-44" value="" style="whiteSpace=wrap;html=1;aspect=fixed;strokeColor=none;fillColor=#1192e8;" parent="wEJ2j6Q2r-iuzvhcd4Nl-46" vertex="1">
          <mxGeometry width="39" height="39" as="geometry" />
        </mxCell>
        <mxCell id="wEJ2j6Q2r-iuzvhcd4Nl-41" value="" style="shape=image;aspect=fixed;image=data:image/svg+xml,PHN2ZyBpZD0iTGF5ZXJfMSIgZGF0YS1uYW1lPSJMYXllciAxIiB4bWxucz0iaHR0cDovL3d3dy53My5vcmcvMjAwMC9zdmciIHZpZXdCb3g9IjAgMCA0OSA0OSI+PGRlZnM+PHN0eWxlPi5jbHMtMXtmaWxsOiMxMTkyZTg7fS5jbHMtMntmaWxsOm5vbmU7fS5jbHMtM3tmaWxsOiNmZmY7fTwvc3R5bGU+PC9kZWZzPjxyZWN0IGNsYXNzPSJjbHMtMSIgeD0iMC41IiB5PSIwLjUiIHdpZHRoPSI0OCIgaGVpZ2h0PSI0OCIgcng9IjgiLz48cmVjdCBjbGFzcz0iY2xzLTIiIHg9IjE0LjUiIHk9IjE0LjUiIHdpZHRoPSIyMCIgaGVpZ2h0PSIyMCIvPjxwYXRoIGNsYXNzPSJjbHMtMyIgZD0iTTMzLjg4LDI0LjVhMS4yNiwxLjI2LDAsMCwwLS4zNy0uODhMMjkuODksMjBsMS43OS0xLjhhMS4yMiwxLjIyLDAsMCwwLDEuMi0uMzIsMS4yNCwxLjI0LDAsMCwwLTEuNzYtMS43NiwxLjIyLDEuMjIsMCwwLDAtLjMyLDEuMkwyOSwxOS4xMWwtMy42Mi0zLjYyYTEuMjMsMS4yMywwLDAsMC0xLjc2LDBMMjAsMTkuMTFsLTEuOC0xLjc5YTEuMjIsMS4yMiwwLDAsMC0uMzItMS4yLDEuMjQsMS4yNCwwLDAsMC0xLjc2LDEuNzYsMS4yMiwxLjIyLDAsMCwwLDEuMi4zMkwxOS4xMSwyMGwtMy42MiwzLjYyYTEuMjMsMS4yMywwLDAsMCwwLDEuNzZMMTkuMTEsMjlsLTEuNzksMS44YTEuMjIsMS4yMiwwLDAsMC0xLjIuMzIsMS4yNCwxLjI0LDAsMCwwLDEuNzYsMS43NiwxLjIyLDEuMjIsMCwwLDAsLjMyLTEuMkwyMCwyOS44OWwzLjYyLDMuNjJhMS4yMywxLjIzLDAsMCwwLDEuNzYsMEwyOSwyOS44OWwxLjgsMS43OWExLjIyLDEuMjIsMCwwLDAsLjMyLDEuMiwxLjI0LDEuMjQsMCwwLDAsMS43Ni0xLjc2LDEuMjIsMS4yMiwwLDAsMC0xLjItLjMyTDI5Ljg5LDI5bDMuNjItMy42MkExLjI2LDEuMjYsMCwwLDAsMzMuODgsMjQuNVpNMjksMjguMTJsLTEuNzQtMS43NC0uODguODhMMjguMTIsMjksMjQuNSwzMi42MiwyMC44OCwyOWwxLjc0LTEuNzQtLjg4LS44OEwyMCwyOC4xMiwxNi4zOCwyNC41LDIwLDIwLjg4bDEuNzQsMS43NC44OC0uODhMMjAuODgsMjBsMy42Mi0zLjYyTDI4LjEyLDIwbC0xLjc0LDEuNzQuODguODhMMjksMjAuODhsMy42MiwzLjYyWiIvPjwvc3ZnPg==;fontSize=14;fontFamily=IBM Plex Sans;fontSource=fonts%2FIBMPlexSans-Regular.woff;spacingTop=-6;labelPosition=center;verticalLabelPosition=bottom;align=center;verticalAlign=top;" parent="wEJ2j6Q2r-iuzvhcd4Nl-46" vertex="1">
          <mxGeometry width="38" height="38" as="geometry" />
        </mxCell>
        <UserObject placeholders="1" label="&lt;b style=&#39;font-weight:600&#39;&gt;%Primary-Label%&lt;/b&gt;&lt;br&gt;%Secondary-Text%" Badge-Text="" Icon-Name="application--mobile" Primary-Label="Label" Secondary-Text="[Container:Mobile App]&#xa;Description" id="_AgKB0M8dqoUZbRrFaeX-15">
          <mxCell style="shape=image;ibmType=nodel;ibmLayout=collapsed;strokeColor=#a56eff;fillColor=none;html=1;metaEdit=1;fontFamily=IBM Plex Sans;fontSize=14;image=data:image/svg+xml,PHN2ZyBpZD0iTGF5ZXJfMSIgZGF0YS1uYW1lPSJMYXllciAxIiB4bWxucz0iaHR0cDovL3d3dy53My5vcmcvMjAwMC9zdmciIHZpZXdCb3g9IjAgMCA0OSA0OSI+PGRlZnM+PHN0eWxlPi5jbHMtMXtmaWxsOiNhNTZlZmY7fS5jbHMtMntmaWxsOiNmZmY7fS5jbHMtM3tmaWxsOm5vbmU7fTwvc3R5bGU+PC9kZWZzPjxyZWN0IGNsYXNzPSJjbHMtMSIgeD0iMC41IiB5PSIwLjUiIHdpZHRoPSI0OCIgaGVpZ2h0PSI0OCIgcng9IjgiLz48cmVjdCBjbGFzcz0iY2xzLTIiIHg9IjI4Ljg3IiB5PSIxOC44OCIgd2lkdGg9IjIuNSIgaGVpZ2h0PSIyLjUiLz48cmVjdCBjbGFzcz0iY2xzLTIiIHg9IjI4Ljg3IiB5PSIyMi42MyIgd2lkdGg9IjIuNSIgaGVpZ2h0PSIyLjUiLz48cmVjdCBjbGFzcz0iY2xzLTIiIHg9IjI1LjEyIiB5PSIxOC44OCIgd2lkdGg9IjIuNSIgaGVpZ2h0PSIyLjUiLz48cmVjdCBjbGFzcz0iY2xzLTIiIHg9IjI1LjEyIiB5PSIyMi42MyIgd2lkdGg9IjIuNSIgaGVpZ2h0PSIyLjUiLz48cGF0aCBjbGFzcz0iY2xzLTIiIGQ9Ik0yNy42MiwzMy4yNUgxOS41QTEuMjUsMS4yNSwwLDAsMSwxOC4yNSwzMlYxN2ExLjI1LDEuMjUsMCwwLDEsMS4yNS0xLjI1aDguMTJWMTdIMTkuNVYzMmg4LjEyVjI3aDEuMjV2NUExLjI1LDEuMjUsMCwwLDEsMjcuNjIsMzMuMjVaIi8+PGNpcmNsZSBjbGFzcz0iY2xzLTIiIGN4PSIyMy41NiIgY3k9IjI5LjgxIiByPSIwLjk0Ii8+PHJlY3QgY2xhc3M9ImNscy0zIiB4PSIxNC41IiB5PSIxNC41IiB3aWR0aD0iMjAiIGhlaWdodD0iMjAiLz48L3N2Zz4=;align=center;verticalAlign=top;labelPosition=center;verticalLabelPosition=bottom;spacing=0;spacingLeft=16;spacingRight=16;spacingTop=0;spacingBottom=4;" parent="1" vertex="1">
            <mxGeometry x="-1904" y="260" width="48" height="48" as="geometry" />
          </mxCell>
        </UserObject>
        <UserObject placeholders="1" label="&lt;b style=&quot;font-weight:600&quot;&gt;%Primary-Label%&lt;/b&gt;&lt;br&gt;%Secondary-Text%" Badge-Text="" Icon-Name="application--mobile" Primary-Label="Label" Secondary-Text="[Container:Mobile App]&#xa;Description" id="_AgKB0M8dqoUZbRrFaeX-16">
          <mxCell style="shape=mxgraph.ibm.base;ibmType=nodel;ibmLayout=expanded;strokeColor=#a56eff;fillColor=default;html=1;metaEdit=1;whiteSpace=wrap;fontFamily=IBM Plex Sans;fontSize=14;image=;align=center;verticalAlign=middle;labelPosition=center;verticalLabelPosition=middle;spacing=0;spacingLeft=9;spacingRight=16;spacingTop=7;spacingBottom=0;container=1;collapsible=0;expand=0;recursiveResize=0;" parent="1" vertex="1">
            <mxGeometry x="-2030" y="380" width="300" height="70" as="geometry" />
          </mxCell>
        </UserObject>
        <mxCell id="wEJ2j6Q2r-iuzvhcd4Nl-29" value="" style="group" parent="_AgKB0M8dqoUZbRrFaeX-16" vertex="1" connectable="0">
          <mxGeometry width="39" height="39" as="geometry" />
        </mxCell>
        <mxCell id="wEJ2j6Q2r-iuzvhcd4Nl-27" value="" style="whiteSpace=wrap;html=1;aspect=fixed;strokeColor=none;fillColor=#a56eff;" parent="wEJ2j6Q2r-iuzvhcd4Nl-29" vertex="1">
          <mxGeometry width="39" height="39" as="geometry" />
        </mxCell>
        <mxCell id="wEJ2j6Q2r-iuzvhcd4Nl-22" value="" style="shape=image;aspect=fixed;image=data:image/svg+xml,PHN2ZyBpZD0iTGF5ZXJfMSIgZGF0YS1uYW1lPSJMYXllciAxIiB4bWxucz0iaHR0cDovL3d3dy53My5vcmcvMjAwMC9zdmciIHZpZXdCb3g9IjAgMCA0OSA0OSI+PGRlZnM+PHN0eWxlPi5jbHMtMXtmaWxsOiNhNTZlZmY7fS5jbHMtMntmaWxsOiNmZmY7fS5jbHMtM3tmaWxsOm5vbmU7fTwvc3R5bGU+PC9kZWZzPjxyZWN0IGNsYXNzPSJjbHMtMSIgeD0iMC41IiB5PSIwLjUiIHdpZHRoPSI0OCIgaGVpZ2h0PSI0OCIgcng9IjgiLz48cmVjdCBjbGFzcz0iY2xzLTIiIHg9IjI4Ljg3IiB5PSIxOC44OCIgd2lkdGg9IjIuNSIgaGVpZ2h0PSIyLjUiLz48cmVjdCBjbGFzcz0iY2xzLTIiIHg9IjI4Ljg3IiB5PSIyMi42MyIgd2lkdGg9IjIuNSIgaGVpZ2h0PSIyLjUiLz48cmVjdCBjbGFzcz0iY2xzLTIiIHg9IjI1LjEyIiB5PSIxOC44OCIgd2lkdGg9IjIuNSIgaGVpZ2h0PSIyLjUiLz48cmVjdCBjbGFzcz0iY2xzLTIiIHg9IjI1LjEyIiB5PSIyMi42MyIgd2lkdGg9IjIuNSIgaGVpZ2h0PSIyLjUiLz48cGF0aCBjbGFzcz0iY2xzLTIiIGQ9Ik0yNy42MiwzMy4yNUgxOS41QTEuMjUsMS4yNSwwLDAsMSwxOC4yNSwzMlYxN2ExLjI1LDEuMjUsMCwwLDEsMS4yNS0xLjI1aDguMTJWMTdIMTkuNVYzMmg4LjEyVjI3aDEuMjV2NUExLjI1LDEuMjUsMCwwLDEsMjcuNjIsMzMuMjVaIi8+PGNpcmNsZSBjbGFzcz0iY2xzLTIiIGN4PSIyMy41NiIgY3k9IjI5LjgxIiByPSIwLjk0Ii8+PHJlY3QgY2xhc3M9ImNscy0zIiB4PSIxNC41IiB5PSIxNC41IiB3aWR0aD0iMjAiIGhlaWdodD0iMjAiLz48L3N2Zz4=;fontFamily=IBM Plex Sans;fontSource=fonts%2FIBMPlexSans-Regular.woff;fontSize=14;labelPosition=center;verticalLabelPosition=bottom;align=center;verticalAlign=top;spacingTop=-7;" parent="wEJ2j6Q2r-iuzvhcd4Nl-29" vertex="1">
          <mxGeometry width="39" height="39" as="geometry" />
        </mxCell>
        <UserObject placeholders="1" label="&lt;b style=&#39;font-weight:600&#39;&gt;%Primary-Label%&lt;/b&gt;&lt;br&gt;%Secondary-Text%" Badge-Text="" Icon-Name="terminal" Primary-Label="Label" Secondary-Text="[Container:Command Line]&#xa;Description" id="_AgKB0M8dqoUZbRrFaeX-17">
          <mxCell style="shape=image;ibmType=nodel;ibmLayout=collapsed;strokeColor=#a56eff;fillColor=none;html=1;metaEdit=1;fontFamily=IBM Plex Sans;fontSize=14;image=data:image/svg+xml,PHN2ZyBpZD0iTGF5ZXJfMSIgZGF0YS1uYW1lPSJMYXllciAxIiB4bWxucz0iaHR0cDovL3d3dy53My5vcmcvMjAwMC9zdmciIHZpZXdCb3g9IjAgMCA0OSA0OSI+PGRlZnM+PHN0eWxlPi5jbHMtMXtmaWxsOiNhNTZlZmY7fS5jbHMtMntmaWxsOm5vbmU7fS5jbHMtM3tmaWxsOiNmZmY7ZmlsbC1ydWxlOmV2ZW5vZGQ7fTwvc3R5bGU+PC9kZWZzPjxyZWN0IGNsYXNzPSJjbHMtMSIgeD0iMC41IiB5PSIwLjUiIHdpZHRoPSI0OCIgaGVpZ2h0PSI0OCIgcng9IjgiLz48cmVjdCBjbGFzcz0iY2xzLTIiIHg9IjE0LjUiIHk9IjE0LjUiIHdpZHRoPSIyMCIgaGVpZ2h0PSIyMCIvPjxwYXRoIGlkPSJGaWxsLTEiIGNsYXNzPSJjbHMtMyIgZD0iTTE2Ljc5LDMyLjIxSDMyLjIxVjIxLjQySDE2Ljc5Wm0wLTEyLjM0SDMyLjIxVjE2Ljc5SDE2Ljc5Wm0xNS40Mi00LjYySDE2Ljc5YTEuNTQsMS41NCwwLDAsMC0xLjU0LDEuNTRWMzIuMjFhMS41NCwxLjU0LDAsMCwwLDEuNTQsMS41NEgzMi4yMWExLjU0LDEuNTQsMCwwLDAsMS41NC0xLjU0VjE2Ljc5YTEuNTQsMS41NCwwLDAsMC0xLjU0LTEuNTRaIi8+PHBvbHlnb24gaWQ9IkZpbGwtMyIgY2xhc3M9ImNscy0zIiBwb2ludHM9IjIwLjQ2IDI0LjYzIDIyLjYzIDI2LjgxIDIwLjQ2IDI5IDIxLjU1IDMwLjA4IDI0LjgyIDI2LjgxIDIxLjU1IDIzLjU0IDIwLjQ2IDI0LjYzIi8+PC9zdmc+;align=center;verticalAlign=top;labelPosition=center;verticalLabelPosition=bottom;spacing=0;spacingLeft=16;spacingRight=16;spacingTop=0;spacingBottom=4;" parent="1" vertex="1">
            <mxGeometry x="-1568" y="260" width="48" height="48" as="geometry" />
          </mxCell>
        </UserObject>
        <UserObject placeholders="1" label="&lt;b style=&quot;font-weight:600&quot;&gt;%Primary-Label%&lt;/b&gt;&lt;br&gt;%Secondary-Text%" Badge-Text="" Icon-Name="terminal" Primary-Label="Label" Secondary-Text="[Container:Command Line]&#xa;Description" id="_AgKB0M8dqoUZbRrFaeX-18">
          <mxCell style="shape=mxgraph.ibm.base;ibmType=nodel;ibmLayout=expanded;strokeColor=#a56eff;fillColor=default;html=1;metaEdit=1;whiteSpace=wrap;fontFamily=IBM Plex Sans;fontSize=14;image=;align=center;verticalAlign=middle;labelPosition=center;verticalLabelPosition=middle;spacing=0;spacingLeft=9;spacingRight=16;spacingTop=7;spacingBottom=0;container=1;collapsible=0;expand=0;recursiveResize=0;" parent="1" vertex="1">
            <mxGeometry x="-1694" y="380" width="300" height="70" as="geometry" />
          </mxCell>
        </UserObject>
        <mxCell id="wEJ2j6Q2r-iuzvhcd4Nl-34" value="" style="group" parent="_AgKB0M8dqoUZbRrFaeX-18" vertex="1" connectable="0">
          <mxGeometry width="39" height="39" as="geometry" />
        </mxCell>
        <mxCell id="wEJ2j6Q2r-iuzvhcd4Nl-32" value="" style="whiteSpace=wrap;html=1;aspect=fixed;strokeColor=none;fillColor=#a56eff;" parent="wEJ2j6Q2r-iuzvhcd4Nl-34" vertex="1">
          <mxGeometry width="39" height="39" as="geometry" />
        </mxCell>
        <mxCell id="wEJ2j6Q2r-iuzvhcd4Nl-31" value="" style="shape=image;aspect=fixed;image=data:image/svg+xml,PHN2ZyBpZD0iTGF5ZXJfMSIgZGF0YS1uYW1lPSJMYXllciAxIiB4bWxucz0iaHR0cDovL3d3dy53My5vcmcvMjAwMC9zdmciIHZpZXdCb3g9IjAgMCA0OSA0OSI+PGRlZnM+PHN0eWxlPi5jbHMtMXtmaWxsOiNhNTZlZmY7fS5jbHMtMntmaWxsOm5vbmU7fS5jbHMtM3tmaWxsOiNmZmY7ZmlsbC1ydWxlOmV2ZW5vZGQ7fTwvc3R5bGU+PC9kZWZzPjxyZWN0IGNsYXNzPSJjbHMtMSIgeD0iMC41IiB5PSIwLjUiIHdpZHRoPSI0OCIgaGVpZ2h0PSI0OCIgcng9IjgiLz48cmVjdCBjbGFzcz0iY2xzLTIiIHg9IjE0LjUiIHk9IjE0LjUiIHdpZHRoPSIyMCIgaGVpZ2h0PSIyMCIvPjxwYXRoIGlkPSJGaWxsLTEiIGNsYXNzPSJjbHMtMyIgZD0iTTE2Ljc5LDMyLjIxSDMyLjIxVjIxLjQySDE2Ljc5Wm0wLTEyLjM0SDMyLjIxVjE2Ljc5SDE2Ljc5Wm0xNS40Mi00LjYySDE2Ljc5YTEuNTQsMS41NCwwLDAsMC0xLjU0LDEuNTRWMzIuMjFhMS41NCwxLjU0LDAsMCwwLDEuNTQsMS41NEgzMi4yMWExLjU0LDEuNTQsMCwwLDAsMS41NC0xLjU0VjE2Ljc5YTEuNTQsMS41NCwwLDAsMC0xLjU0LTEuNTRaIi8+PHBvbHlnb24gaWQ9IkZpbGwtMyIgY2xhc3M9ImNscy0zIiBwb2ludHM9IjIwLjQ2IDI0LjYzIDIyLjYzIDI2LjgxIDIwLjQ2IDI5IDIxLjU1IDMwLjA4IDI0LjgyIDI2LjgxIDIxLjU1IDIzLjU0IDIwLjQ2IDI0LjYzIi8+PC9zdmc+;fontFamily=IBM Plex Sans;fontSource=fonts%2FIBMPlexSans-Regular.woff;fontSize=14;labelPosition=center;verticalLabelPosition=bottom;align=center;verticalAlign=top;spacingTop=-7;" parent="wEJ2j6Q2r-iuzvhcd4Nl-34" vertex="1">
          <mxGeometry x="0.5" y="0.5" width="38" height="38" as="geometry" />
        </mxCell>
        <UserObject placeholders="1" label="&lt;b style=&#39;font-weight:600&#39;&gt;%Primary-Label%&lt;/b&gt;&lt;br&gt;%Secondary-Text%" Badge-Text="" Icon-Name="script" Primary-Label="Label" Secondary-Text="[Container:Automation Script]&#xa;Description" id="_AgKB0M8dqoUZbRrFaeX-19">
          <mxCell style="shape=image;ibmType=nodel;ibmLayout=collapsed;strokeColor=#a56eff;fillColor=none;html=1;metaEdit=1;fontFamily=IBM Plex Sans;fontSize=14;image=data:image/svg+xml,PHN2ZyBpZD0iTGF5ZXJfMSIgZGF0YS1uYW1lPSJMYXllciAxIiB4bWxucz0iaHR0cDovL3d3dy53My5vcmcvMjAwMC9zdmciIHhtbG5zOnhsaW5rPSJodHRwOi8vd3d3LnczLm9yZy8xOTk5L3hsaW5rIiB2aWV3Qm94PSIwIDAgNDkgNDkiPjxkZWZzPjxzdHlsZT4uY2xzLTF7ZmlsbDojZmZmO2ZpbGwtcnVsZTpldmVub2RkO30uY2xzLTJ7ZmlsbDojYTU2ZWZmO30uY2xzLTN7ZmlsbDpub25lO30uY2xzLTR7bWFzazp1cmwoI21hc2spO308L3N0eWxlPjxtYXNrIGlkPSJtYXNrIiB4PSIxNy4zMyIgeT0iMTUuMTMiIHdpZHRoPSIxMy41NyIgaGVpZ2h0PSIxOC45OSIgbWFza1VuaXRzPSJ1c2VyU3BhY2VPblVzZSI+PGcgaWQ9Im1hc2stMiI+PHBvbHlnb24gaWQ9InBhdGgtMSIgY2xhc3M9ImNscy0xIiBwb2ludHM9IjE3LjMzIDE1LjEzIDMwLjkgMTUuMTMgMzAuOSAzNC4xMyAxNy4zMyAzNC4xMyAxNy4zMyAxNS4xMyIvPjwvZz48L21hc2s+PC9kZWZzPjxyZWN0IGNsYXNzPSJjbHMtMiIgeD0iMC41IiB5PSIwLjUiIHdpZHRoPSI0OCIgaGVpZ2h0PSI0OCIgcng9IjgiLz48cmVjdCBjbGFzcz0iY2xzLTMiIHg9IjE0LjUiIHk9IjE0LjUiIHdpZHRoPSIyMCIgaGVpZ2h0PSIyMCIvPjxwYXRoIGlkPSJGaWxsLTEiIGNsYXNzPSJjbHMtMSIgZD0iTTI5LjkzLDI5LjY1bDEuNzYsMS43Ni0xLjc1LDEuNzUsMSwxLDIuNzEtMi43MkwzMC45LDI4LjdabS01LjgyLDEuNzYsMi43MiwyLjcyLDEtMUwyNiwzMS40MWwxLjc1LTEuNzUtMS0xWiIvPjxnIGNsYXNzPSJjbHMtNCI+PHBhdGggaWQ9IkZpbGwtMiIgY2xhc3M9ImNscy0xIiBkPSJNMjUuNDcsMTYuNzZsMy44LDMuOGgtMy44Wm0tMi43MSwxNkgxOC42OVYxNi40OWg1LjQydjQuMDdhMS4zNSwxLjM1LDAsMCwwLDEuMzYsMS4zNWg0LjA3VjI2SDMwLjlWMjAuNTZhLjYzLjYzLDAsMCwwLS4yMS0uNDhsLTQuNzUtNC43NWEuNjMuNjMsMCwwLDAtLjQ3LS4ySDE4LjY5YTEuMzYsMS4zNiwwLDAsMC0xLjM2LDEuMzZWMzIuNzdhMS4zNywxLjM3LDAsMCwwLDEuMzYsMS4zNmg0LjA3WiIvPjwvZz48L3N2Zz4=;align=center;verticalAlign=top;labelPosition=center;verticalLabelPosition=bottom;spacing=0;spacingLeft=16;spacingRight=16;spacingTop=0;spacingBottom=4;" parent="1" vertex="1">
            <mxGeometry x="-896" y="260" width="48" height="48" as="geometry" />
          </mxCell>
        </UserObject>
        <UserObject placeholders="1" label="&lt;b style=&#39;font-weight:600&#39;&gt;%Primary-Label%&lt;/b&gt;&lt;br&gt;%Secondary-Text%" Badge-Text="" Icon-Name="script" Primary-Label="Label" Secondary-Text="[Container:Shell Script]&#xa;Description" id="_AgKB0M8dqoUZbRrFaeX-20">
          <mxCell style="shape=image;ibmType=nodel;ibmLayout=collapsed;strokeColor=#a56eff;fillColor=none;html=1;metaEdit=1;fontFamily=IBM Plex Sans;fontSize=14;image=data:image/svg+xml,PHN2ZyBpZD0iTGF5ZXJfMSIgZGF0YS1uYW1lPSJMYXllciAxIiB4bWxucz0iaHR0cDovL3d3dy53My5vcmcvMjAwMC9zdmciIHhtbG5zOnhsaW5rPSJodHRwOi8vd3d3LnczLm9yZy8xOTk5L3hsaW5rIiB2aWV3Qm94PSIwIDAgNDkgNDkiPjxkZWZzPjxzdHlsZT4uY2xzLTF7ZmlsbDojZmZmO2ZpbGwtcnVsZTpldmVub2RkO30uY2xzLTJ7ZmlsbDojYTU2ZWZmO30uY2xzLTN7ZmlsbDpub25lO30uY2xzLTR7bWFzazp1cmwoI21hc2spO308L3N0eWxlPjxtYXNrIGlkPSJtYXNrIiB4PSIxNy4zMyIgeT0iMTUuMTMiIHdpZHRoPSIxMy41NyIgaGVpZ2h0PSIxOC45OSIgbWFza1VuaXRzPSJ1c2VyU3BhY2VPblVzZSI+PGcgaWQ9Im1hc2stMiI+PHBvbHlnb24gaWQ9InBhdGgtMSIgY2xhc3M9ImNscy0xIiBwb2ludHM9IjE3LjMzIDE1LjEzIDMwLjkgMTUuMTMgMzAuOSAzNC4xMyAxNy4zMyAzNC4xMyAxNy4zMyAxNS4xMyIvPjwvZz48L21hc2s+PC9kZWZzPjxyZWN0IGNsYXNzPSJjbHMtMiIgeD0iMC41IiB5PSIwLjUiIHdpZHRoPSI0OCIgaGVpZ2h0PSI0OCIgcng9IjgiLz48cmVjdCBjbGFzcz0iY2xzLTMiIHg9IjE0LjUiIHk9IjE0LjUiIHdpZHRoPSIyMCIgaGVpZ2h0PSIyMCIvPjxwYXRoIGlkPSJGaWxsLTEiIGNsYXNzPSJjbHMtMSIgZD0iTTI5LjkzLDI5LjY1bDEuNzYsMS43Ni0xLjc1LDEuNzUsMSwxLDIuNzEtMi43MkwzMC45LDI4LjdabS01LjgyLDEuNzYsMi43MiwyLjcyLDEtMUwyNiwzMS40MWwxLjc1LTEuNzUtMS0xWiIvPjxnIGNsYXNzPSJjbHMtNCI+PHBhdGggaWQ9IkZpbGwtMiIgY2xhc3M9ImNscy0xIiBkPSJNMjUuNDcsMTYuNzZsMy44LDMuOGgtMy44Wm0tMi43MSwxNkgxOC42OVYxNi40OWg1LjQydjQuMDdhMS4zNSwxLjM1LDAsMCwwLDEuMzYsMS4zNWg0LjA3VjI2SDMwLjlWMjAuNTZhLjYzLjYzLDAsMCwwLS4yMS0uNDhsLTQuNzUtNC43NWEuNjMuNjMsMCwwLDAtLjQ3LS4ySDE4LjY5YTEuMzYsMS4zNiwwLDAsMC0xLjM2LDEuMzZWMzIuNzdhMS4zNywxLjM3LDAsMCwwLDEuMzYsMS4zNmg0LjA3WiIvPjwvZz48L3N2Zz4=;align=center;verticalAlign=top;labelPosition=center;verticalLabelPosition=bottom;spacing=0;spacingLeft=16;spacingRight=16;spacingTop=0;spacingBottom=4;" parent="1" vertex="1">
            <mxGeometry x="-1232" y="260" width="48" height="48" as="geometry" />
          </mxCell>
        </UserObject>
        <UserObject placeholders="1" label="&lt;b style=&quot;font-weight:600&quot;&gt;%Primary-Label%&lt;/b&gt;&lt;br&gt;%Secondary-Text%" Badge-Text="" Icon-Name="script" Primary-Label="Label" Secondary-Text="[Container:Shell Script]&#xa;Description" id="_AgKB0M8dqoUZbRrFaeX-21">
          <mxCell style="shape=mxgraph.ibm.base;ibmType=nodel;ibmLayout=expanded;strokeColor=#a56eff;fillColor=default;html=1;metaEdit=1;whiteSpace=wrap;fontFamily=IBM Plex Sans;fontSize=14;image=;align=center;verticalAlign=middle;labelPosition=center;verticalLabelPosition=middle;spacing=0;spacingLeft=9;spacingRight=16;spacingTop=7;spacingBottom=0;container=1;collapsible=0;expand=0;recursiveResize=0;" parent="1" vertex="1">
            <mxGeometry x="-1358" y="390" width="300" height="70" as="geometry" />
          </mxCell>
        </UserObject>
        <mxCell id="wEJ2j6Q2r-iuzvhcd4Nl-37" value="" style="group" parent="_AgKB0M8dqoUZbRrFaeX-21" vertex="1" connectable="0">
          <mxGeometry x="-1" width="39" height="39" as="geometry" />
        </mxCell>
        <mxCell id="wEJ2j6Q2r-iuzvhcd4Nl-36" value="" style="whiteSpace=wrap;html=1;aspect=fixed;strokeColor=none;fillColor=#a56eff;" parent="wEJ2j6Q2r-iuzvhcd4Nl-37" vertex="1">
          <mxGeometry width="39" height="39" as="geometry" />
        </mxCell>
        <mxCell id="wEJ2j6Q2r-iuzvhcd4Nl-35" value="" style="shape=image;aspect=fixed;image=data:image/svg+xml,PHN2ZyBpZD0iTGF5ZXJfMSIgZGF0YS1uYW1lPSJMYXllciAxIiB4bWxucz0iaHR0cDovL3d3dy53My5vcmcvMjAwMC9zdmciIHhtbG5zOnhsaW5rPSJodHRwOi8vd3d3LnczLm9yZy8xOTk5L3hsaW5rIiB2aWV3Qm94PSIwIDAgNDkgNDkiPjxkZWZzPjxzdHlsZT4uY2xzLTF7ZmlsbDojZmZmO2ZpbGwtcnVsZTpldmVub2RkO30uY2xzLTJ7ZmlsbDojYTU2ZWZmO30uY2xzLTN7ZmlsbDpub25lO30uY2xzLTR7bWFzazp1cmwoI21hc2spO308L3N0eWxlPjxtYXNrIGlkPSJtYXNrIiB4PSIxNy4zMyIgeT0iMTUuMTMiIHdpZHRoPSIxMy41NyIgaGVpZ2h0PSIxOC45OSIgbWFza1VuaXRzPSJ1c2VyU3BhY2VPblVzZSI+PGcgaWQ9Im1hc2stMiI+PHBvbHlnb24gaWQ9InBhdGgtMSIgY2xhc3M9ImNscy0xIiBwb2ludHM9IjE3LjMzIDE1LjEzIDMwLjkgMTUuMTMgMzAuOSAzNC4xMyAxNy4zMyAzNC4xMyAxNy4zMyAxNS4xMyIvPjwvZz48L21hc2s+PC9kZWZzPjxyZWN0IGNsYXNzPSJjbHMtMiIgeD0iMC41IiB5PSIwLjUiIHdpZHRoPSI0OCIgaGVpZ2h0PSI0OCIgcng9IjgiLz48cmVjdCBjbGFzcz0iY2xzLTMiIHg9IjE0LjUiIHk9IjE0LjUiIHdpZHRoPSIyMCIgaGVpZ2h0PSIyMCIvPjxwYXRoIGlkPSJGaWxsLTEiIGNsYXNzPSJjbHMtMSIgZD0iTTI5LjkzLDI5LjY1bDEuNzYsMS43Ni0xLjc1LDEuNzUsMSwxLDIuNzEtMi43MkwzMC45LDI4LjdabS01LjgyLDEuNzYsMi43MiwyLjcyLDEtMUwyNiwzMS40MWwxLjc1LTEuNzUtMS0xWiIvPjxnIGNsYXNzPSJjbHMtNCI+PHBhdGggaWQ9IkZpbGwtMiIgY2xhc3M9ImNscy0xIiBkPSJNMjUuNDcsMTYuNzZsMy44LDMuOGgtMy44Wm0tMi43MSwxNkgxOC42OVYxNi40OWg1LjQydjQuMDdhMS4zNSwxLjM1LDAsMCwwLDEuMzYsMS4zNWg0LjA3VjI2SDMwLjlWMjAuNTZhLjYzLjYzLDAsMCwwLS4yMS0uNDhsLTQuNzUtNC43NWEuNjMuNjMsMCwwLDAtLjQ3LS4ySDE4LjY5YTEuMzYsMS4zNiwwLDAsMC0xLjM2LDEuMzZWMzIuNzdhMS4zNywxLjM3LDAsMCwwLDEuMzYsMS4zNmg0LjA3WiIvPjwvZz48L3N2Zz4=;fontSize=14;fontFamily=IBM Plex Sans;fontSource=fonts%2FIBMPlexSans-Regular.woff;spacingTop=-7;labelPosition=center;verticalLabelPosition=bottom;align=center;verticalAlign=top;" parent="wEJ2j6Q2r-iuzvhcd4Nl-37" vertex="1">
          <mxGeometry width="39" height="39" as="geometry" />
        </mxCell>
        <UserObject placeholders="1" label="&lt;b style=&quot;font-weight:600&quot;&gt;%Primary-Label%&lt;/b&gt;&lt;br&gt;%Secondary-Text%" Badge-Text="" Icon-Name="script" Primary-Label="Label" Secondary-Text="[Container:Automation Script]&#xa;Description" id="_AgKB0M8dqoUZbRrFaeX-22">
          <mxCell style="shape=mxgraph.ibm.base;ibmType=nodel;ibmLayout=expanded;strokeColor=#a56eff;fillColor=default;html=1;metaEdit=1;whiteSpace=wrap;fontFamily=IBM Plex Sans;fontSize=14;image=;align=center;verticalAlign=middle;labelPosition=center;verticalLabelPosition=middle;spacing=0;spacingLeft=9;spacingRight=16;spacingTop=7;spacingBottom=0;container=1;collapsible=0;expand=0;recursiveResize=0;" parent="1" vertex="1">
            <mxGeometry x="-1022" y="390" width="300" height="70" as="geometry" />
          </mxCell>
        </UserObject>
        <mxCell id="wEJ2j6Q2r-iuzvhcd4Nl-38" value="" style="group" parent="_AgKB0M8dqoUZbRrFaeX-22" vertex="1" connectable="0">
          <mxGeometry width="39" height="39" as="geometry" />
        </mxCell>
        <mxCell id="wEJ2j6Q2r-iuzvhcd4Nl-39" value="" style="whiteSpace=wrap;html=1;aspect=fixed;strokeColor=none;fillColor=#a56eff;" parent="wEJ2j6Q2r-iuzvhcd4Nl-38" vertex="1">
          <mxGeometry width="39" height="39" as="geometry" />
        </mxCell>
        <mxCell id="wEJ2j6Q2r-iuzvhcd4Nl-40" value="" style="shape=image;aspect=fixed;image=data:image/svg+xml,PHN2ZyBpZD0iTGF5ZXJfMSIgZGF0YS1uYW1lPSJMYXllciAxIiB4bWxucz0iaHR0cDovL3d3dy53My5vcmcvMjAwMC9zdmciIHhtbG5zOnhsaW5rPSJodHRwOi8vd3d3LnczLm9yZy8xOTk5L3hsaW5rIiB2aWV3Qm94PSIwIDAgNDkgNDkiPjxkZWZzPjxzdHlsZT4uY2xzLTF7ZmlsbDojZmZmO2ZpbGwtcnVsZTpldmVub2RkO30uY2xzLTJ7ZmlsbDojYTU2ZWZmO30uY2xzLTN7ZmlsbDpub25lO30uY2xzLTR7bWFzazp1cmwoI21hc2spO308L3N0eWxlPjxtYXNrIGlkPSJtYXNrIiB4PSIxNy4zMyIgeT0iMTUuMTMiIHdpZHRoPSIxMy41NyIgaGVpZ2h0PSIxOC45OSIgbWFza1VuaXRzPSJ1c2VyU3BhY2VPblVzZSI+PGcgaWQ9Im1hc2stMiI+PHBvbHlnb24gaWQ9InBhdGgtMSIgY2xhc3M9ImNscy0xIiBwb2ludHM9IjE3LjMzIDE1LjEzIDMwLjkgMTUuMTMgMzAuOSAzNC4xMyAxNy4zMyAzNC4xMyAxNy4zMyAxNS4xMyIvPjwvZz48L21hc2s+PC9kZWZzPjxyZWN0IGNsYXNzPSJjbHMtMiIgeD0iMC41IiB5PSIwLjUiIHdpZHRoPSI0OCIgaGVpZ2h0PSI0OCIgcng9IjgiLz48cmVjdCBjbGFzcz0iY2xzLTMiIHg9IjE0LjUiIHk9IjE0LjUiIHdpZHRoPSIyMCIgaGVpZ2h0PSIyMCIvPjxwYXRoIGlkPSJGaWxsLTEiIGNsYXNzPSJjbHMtMSIgZD0iTTI5LjkzLDI5LjY1bDEuNzYsMS43Ni0xLjc1LDEuNzUsMSwxLDIuNzEtMi43MkwzMC45LDI4LjdabS01LjgyLDEuNzYsMi43MiwyLjcyLDEtMUwyNiwzMS40MWwxLjc1LTEuNzUtMS0xWiIvPjxnIGNsYXNzPSJjbHMtNCI+PHBhdGggaWQ9IkZpbGwtMiIgY2xhc3M9ImNscy0xIiBkPSJNMjUuNDcsMTYuNzZsMy44LDMuOGgtMy44Wm0tMi43MSwxNkgxOC42OVYxNi40OWg1LjQydjQuMDdhMS4zNSwxLjM1LDAsMCwwLDEuMzYsMS4zNWg0LjA3VjI2SDMwLjlWMjAuNTZhLjYzLjYzLDAsMCwwLS4yMS0uNDhsLTQuNzUtNC43NWEuNjMuNjMsMCwwLDAtLjQ3LS4ySDE4LjY5YTEuMzYsMS4zNiwwLDAsMC0xLjM2LDEuMzZWMzIuNzdhMS4zNywxLjM3LDAsMCwwLDEuMzYsMS4zNmg0LjA3WiIvPjwvZz48L3N2Zz4=;fontSize=14;fontFamily=IBM Plex Sans;fontSource=fonts%2FIBMPlexSans-Regular.woff;spacingTop=-7;labelPosition=center;verticalLabelPosition=bottom;align=center;verticalAlign=top;" parent="wEJ2j6Q2r-iuzvhcd4Nl-38" vertex="1">
          <mxGeometry width="39" height="39" as="geometry" />
        </mxCell>
        <UserObject placeholders="1" label="&lt;b style=&#39;font-weight:600&#39;&gt;%Primary-Label%&lt;/b&gt;&lt;br&gt;%Secondary-Text%" Badge-Text="" Icon-Name="data-blob" Primary-Label="Label" Secondary-Text="[Container: Virtual Image Repository]&#xa;Description" id="_AgKB0M8dqoUZbRrFaeX-23">
          <mxCell style="shape=image;ibmType=nodel;ibmLayout=collapsed;strokeColor=#0f62fe;fillColor=none;html=1;metaEdit=1;fontFamily=IBM Plex Sans;fontSize=14;image=data:image/svg+xml,PD94bWwgdmVyc2lvbj0iMS4wIiBlbmNvZGluZz0iVVRGLTgiPz4KPHN2ZyB3aWR0aD0iNDlweCIgaGVpZ2h0PSI0OXB4IiB2aWV3Qm94PSIwIDAgNDkgNDkiIHZlcnNpb249IjEuMSIgeG1sbnM9Imh0dHA6Ly93d3cudzMub3JnLzIwMDAvc3ZnIiB4bWxuczp4bGluaz0iaHR0cDovL3d3dy53My5vcmcvMTk5OS94bGluayI+CiAgICA8dGl0bGU+R3JvdXAgNzkgQ29weSAyPC90aXRsZT4KICAgIDxnIGlkPSJQYWdlLTEiIHN0cm9rZT0ibm9uZSIgc3Ryb2tlLXdpZHRoPSIxIiBmaWxsPSJub25lIiBmaWxsLXJ1bGU9ImV2ZW5vZGQiPgogICAgICAgIDxnIGlkPSJ2Mi00OHg0OCIgdHJhbnNmb3JtPSJ0cmFuc2xhdGUoLTIxMzkuMDAwMDAwLCAtODU3LjAwMDAwMCkiPgogICAgICAgICAgICA8ZyBpZD0iR3JvdXAtNzktQ29weSIgdHJhbnNmb3JtPSJ0cmFuc2xhdGUoMjEzOS41MDAwMDAsIDg1Ny45MzYyMjMpIj4KICAgICAgICAgICAgICAgIDxnIGlkPSJDbG91ZC1QYWstRGF0YS12Mi1JY29uIiBmaWxsPSIjMEY2MkZFIj4KICAgICAgICAgICAgICAgICAgICA8cG9seWdvbiBpZD0iRmlsbC00IiBwb2ludHM9IjAgNDggNDggNDggNDggMCAwIDAiPjwvcG9seWdvbj4KICAgICAgICAgICAgICAgIDwvZz4KICAgICAgICAgICAgICAgIDxnIGlkPSJkYXRhLWJsb2IoMSkiIHRyYW5zZm9ybT0idHJhbnNsYXRlKDguMDAwMDAwLCA4LjAwMDAwMCkiPgogICAgICAgICAgICAgICAgICAgIDxwYXRoIGQ9Ik0yOCwzMCBMNCwzMCBDMi44OTU5MTAzLDI5Ljk5ODg0MjUgMi4wMDExNTc0NywyOS4xMDQwODk3IDIsMjggTDIsNCBDMi4wMDExNTc0NywyLjg5NTkxMDMgMi44OTU5MTAzLDIuMDAxMTU3NDcgNCwyIEwyOCwyIEMyOS4xMDQwODk3LDIuMDAxMTU3NDcgMjkuOTk4ODQyNSwyLjg5NTkxMDMgMzAsNCBMMzAsMjggQzI5Ljk5ODg0MjUsMjkuMTA0MDg5NyAyOS4xMDQwODk3LDI5Ljk5ODg0MjUgMjgsMzAgWiBNNCw0IEw0LDI4IEwyOCwyOCBMMjgsNCBMNCw0IFoiIGlkPSJTaGFwZSIgZmlsbD0iI0ZGRkZGRiIgZmlsbC1ydWxlPSJub256ZXJvIj48L3BhdGg+CiAgICAgICAgICAgICAgICAgICAgPHJlY3QgaWQ9IlJlY3RhbmdsZSIgZmlsbD0iI0ZGRkZGRiIgZmlsbC1ydWxlPSJub256ZXJvIiB4PSIxMyIgeT0iNyIgd2lkdGg9IjIiIGhlaWdodD0iNyI+PC9yZWN0PgogICAgICAgICAgICAgICAgICAgIDxyZWN0IGlkPSJSZWN0YW5nbGUiIGZpbGw9IiNGRkZGRkYiIGZpbGwtcnVsZT0ibm9uemVybyIgeD0iOCIgeT0iNyIgd2lkdGg9IjIiIGhlaWdodD0iNyI+PC9yZWN0PgogICAgICAgICAgICAgICAgICAgIDxwYXRoIGQ9Ik0yMiwxNCBMMjAsMTQgQzE4Ljg5NTkxMDMsMTMuOTk4ODQyNSAxOC4wMDExNTc1LDEzLjEwNDA4OTcgMTgsMTIgTDE4LDkgQzE4LjAwMTE1NzUsNy44OTU5MTAzIDE4Ljg5NTkxMDMsNy4wMDExNTc0NyAyMCw3IEwyMiw3IEMyMy4xMDQwODk3LDcuMDAxMTU3NDcgMjMuOTk4ODQyNSw3Ljg5NTkxMDMgMjQsOSBMMjQsMTIgQzIzLjk5ODg0MjUsMTMuMTA0MDg5NyAyMy4xMDQwODk3LDEzLjk5ODg0MjUgMjIsMTQgWiBNMjAsOSBMMjAsMTIgTDIyLDEyIEwyMiw5IEwyMCw5IFoiIGlkPSJTaGFwZSIgZmlsbD0iI0ZGRkZGRiIgZmlsbC1ydWxlPSJub256ZXJvIj48L3BhdGg+CiAgICAgICAgICAgICAgICAgICAgPHJlY3QgaWQ9IlJlY3RhbmdsZSIgZmlsbD0iI0ZGRkZGRiIgZmlsbC1ydWxlPSJub256ZXJvIiB4PSIyMiIgeT0iMTgiIHdpZHRoPSIyIiBoZWlnaHQ9IjciPjwvcmVjdD4KICAgICAgICAgICAgICAgICAgICA8cmVjdCBpZD0iUmVjdGFuZ2xlIiBmaWxsPSIjRkZGRkZGIiBmaWxsLXJ1bGU9Im5vbnplcm8iIHg9IjgiIHk9IjE4IiB3aWR0aD0iMiIgaGVpZ2h0PSI3Ij48L3JlY3Q+CiAgICAgICAgICAgICAgICAgICAgPHBhdGggZD0iTTE3LDI1IEwxNSwyNSBDMTMuODk1OTEwMywyNC45OTg4NDI1IDEzLjAwMTE1NzUsMjQuMTA0MDg5NyAxMywyMyBMMTMsMjAgQzEzLjAwMTE1NzUsMTguODk1OTEwMyAxMy44OTU5MTAzLDE4LjAwMTE1NzUgMTUsMTggTDE3LDE4IEMxOC4xMDQwODk3LDE4LjAwMTE1NzUgMTguOTk4ODQyNSwxOC44OTU5MTAzIDE5LDIwIEwxOSwyMyBDMTguOTk4ODQyNSwyNC4xMDQwODk3IDE4LjEwNDA4OTcsMjQuOTk4ODQyNSAxNywyNSBMMTcsMjUgWiBNMTUsMjAgTDE1LDIzIEwxNywyMyBMMTcsMjAgTDE1LDIwIFoiIGlkPSJTaGFwZSIgZmlsbD0iI0ZGRkZGRiIgZmlsbC1ydWxlPSJub256ZXJvIj48L3BhdGg+CiAgICAgICAgICAgICAgICAgICAgPHJlY3QgaWQ9Il9UcmFuc3BhcmVudF9SZWN0YW5nbGVfIiB4PSIwIiB5PSIwIiB3aWR0aD0iMzIiIGhlaWdodD0iMzIiPjwvcmVjdD4KICAgICAgICAgICAgICAgIDwvZz4KICAgICAgICAgICAgPC9nPgogICAgICAgIDwvZz4KICAgIDwvZz4KPC9zdmc+;align=center;verticalAlign=top;labelPosition=center;verticalLabelPosition=bottom;spacing=0;spacingLeft=16;spacingRight=16;spacingTop=0;spacingBottom=4;" parent="1" vertex="1">
            <mxGeometry x="-224" y="260" width="48" height="48" as="geometry" />
          </mxCell>
        </UserObject>
        <UserObject placeholders="1" label="&lt;b style=&quot;font-weight:600&quot;&gt;%Primary-Label%&lt;/b&gt;&lt;br&gt;%Secondary-Text%" Badge-Text="" Icon-Name="data-blob" Primary-Label="Label" Secondary-Text="[Container:Virtual Image Repository]&#xa;Description" id="_AgKB0M8dqoUZbRrFaeX-24">
          <mxCell style="shape=mxgraph.ibm.base;ibmType=nodel;ibmLayout=expanded;strokeColor=#0f62fe;fillColor=default;html=1;metaEdit=1;whiteSpace=wrap;fontFamily=IBM Plex Sans;fontSize=14;image=;align=center;verticalAlign=middle;labelPosition=center;verticalLabelPosition=middle;spacing=0;spacingLeft=9;spacingRight=16;spacingTop=7;spacingBottom=0;container=1;collapsible=0;expand=0;recursiveResize=0;" parent="1" vertex="1">
            <mxGeometry x="-350" y="390" width="300" height="70" as="geometry" />
          </mxCell>
        </UserObject>
        <mxCell id="wEJ2j6Q2r-iuzvhcd4Nl-52" value="" style="shape=image;aspect=fixed;image=data:image/svg+xml,PD94bWwgdmVyc2lvbj0iMS4wIiBlbmNvZGluZz0iVVRGLTgiPz4KPHN2ZyB3aWR0aD0iNDlweCIgaGVpZ2h0PSI0OXB4IiB2aWV3Qm94PSIwIDAgNDkgNDkiIHZlcnNpb249IjEuMSIgeG1sbnM9Imh0dHA6Ly93d3cudzMub3JnLzIwMDAvc3ZnIiB4bWxuczp4bGluaz0iaHR0cDovL3d3dy53My5vcmcvMTk5OS94bGluayI+CiAgICA8dGl0bGU+R3JvdXAgNzkgQ29weSAyPC90aXRsZT4KICAgIDxnIGlkPSJQYWdlLTEiIHN0cm9rZT0ibm9uZSIgc3Ryb2tlLXdpZHRoPSIxIiBmaWxsPSJub25lIiBmaWxsLXJ1bGU9ImV2ZW5vZGQiPgogICAgICAgIDxnIGlkPSJ2Mi00OHg0OCIgdHJhbnNmb3JtPSJ0cmFuc2xhdGUoLTIxMzkuMDAwMDAwLCAtODU3LjAwMDAwMCkiPgogICAgICAgICAgICA8ZyBpZD0iR3JvdXAtNzktQ29weSIgdHJhbnNmb3JtPSJ0cmFuc2xhdGUoMjEzOS41MDAwMDAsIDg1Ny45MzYyMjMpIj4KICAgICAgICAgICAgICAgIDxnIGlkPSJDbG91ZC1QYWstRGF0YS12Mi1JY29uIiBmaWxsPSIjMEY2MkZFIj4KICAgICAgICAgICAgICAgICAgICA8cG9seWdvbiBpZD0iRmlsbC00IiBwb2ludHM9IjAgNDggNDggNDggNDggMCAwIDAiPjwvcG9seWdvbj4KICAgICAgICAgICAgICAgIDwvZz4KICAgICAgICAgICAgICAgIDxnIGlkPSJkYXRhLWJsb2IoMSkiIHRyYW5zZm9ybT0idHJhbnNsYXRlKDguMDAwMDAwLCA4LjAwMDAwMCkiPgogICAgICAgICAgICAgICAgICAgIDxwYXRoIGQ9Ik0yOCwzMCBMNCwzMCBDMi44OTU5MTAzLDI5Ljk5ODg0MjUgMi4wMDExNTc0NywyOS4xMDQwODk3IDIsMjggTDIsNCBDMi4wMDExNTc0NywyLjg5NTkxMDMgMi44OTU5MTAzLDIuMDAxMTU3NDcgNCwyIEwyOCwyIEMyOS4xMDQwODk3LDIuMDAxMTU3NDcgMjkuOTk4ODQyNSwyLjg5NTkxMDMgMzAsNCBMMzAsMjggQzI5Ljk5ODg0MjUsMjkuMTA0MDg5NyAyOS4xMDQwODk3LDI5Ljk5ODg0MjUgMjgsMzAgWiBNNCw0IEw0LDI4IEwyOCwyOCBMMjgsNCBMNCw0IFoiIGlkPSJTaGFwZSIgZmlsbD0iI0ZGRkZGRiIgZmlsbC1ydWxlPSJub256ZXJvIj48L3BhdGg+CiAgICAgICAgICAgICAgICAgICAgPHJlY3QgaWQ9IlJlY3RhbmdsZSIgZmlsbD0iI0ZGRkZGRiIgZmlsbC1ydWxlPSJub256ZXJvIiB4PSIxMyIgeT0iNyIgd2lkdGg9IjIiIGhlaWdodD0iNyI+PC9yZWN0PgogICAgICAgICAgICAgICAgICAgIDxyZWN0IGlkPSJSZWN0YW5nbGUiIGZpbGw9IiNGRkZGRkYiIGZpbGwtcnVsZT0ibm9uemVybyIgeD0iOCIgeT0iNyIgd2lkdGg9IjIiIGhlaWdodD0iNyI+PC9yZWN0PgogICAgICAgICAgICAgICAgICAgIDxwYXRoIGQ9Ik0yMiwxNCBMMjAsMTQgQzE4Ljg5NTkxMDMsMTMuOTk4ODQyNSAxOC4wMDExNTc1LDEzLjEwNDA4OTcgMTgsMTIgTDE4LDkgQzE4LjAwMTE1NzUsNy44OTU5MTAzIDE4Ljg5NTkxMDMsNy4wMDExNTc0NyAyMCw3IEwyMiw3IEMyMy4xMDQwODk3LDcuMDAxMTU3NDcgMjMuOTk4ODQyNSw3Ljg5NTkxMDMgMjQsOSBMMjQsMTIgQzIzLjk5ODg0MjUsMTMuMTA0MDg5NyAyMy4xMDQwODk3LDEzLjk5ODg0MjUgMjIsMTQgWiBNMjAsOSBMMjAsMTIgTDIyLDEyIEwyMiw5IEwyMCw5IFoiIGlkPSJTaGFwZSIgZmlsbD0iI0ZGRkZGRiIgZmlsbC1ydWxlPSJub256ZXJvIj48L3BhdGg+CiAgICAgICAgICAgICAgICAgICAgPHJlY3QgaWQ9IlJlY3RhbmdsZSIgZmlsbD0iI0ZGRkZGRiIgZmlsbC1ydWxlPSJub256ZXJvIiB4PSIyMiIgeT0iMTgiIHdpZHRoPSIyIiBoZWlnaHQ9IjciPjwvcmVjdD4KICAgICAgICAgICAgICAgICAgICA8cmVjdCBpZD0iUmVjdGFuZ2xlIiBmaWxsPSIjRkZGRkZGIiBmaWxsLXJ1bGU9Im5vbnplcm8iIHg9IjgiIHk9IjE4IiB3aWR0aD0iMiIgaGVpZ2h0PSI3Ij48L3JlY3Q+CiAgICAgICAgICAgICAgICAgICAgPHBhdGggZD0iTTE3LDI1IEwxNSwyNSBDMTMuODk1OTEwMywyNC45OTg4NDI1IDEzLjAwMTE1NzUsMjQuMTA0MDg5NyAxMywyMyBMMTMsMjAgQzEzLjAwMTE1NzUsMTguODk1OTEwMyAxMy44OTU5MTAzLDE4LjAwMTE1NzUgMTUsMTggTDE3LDE4IEMxOC4xMDQwODk3LDE4LjAwMTE1NzUgMTguOTk4ODQyNSwxOC44OTU5MTAzIDE5LDIwIEwxOSwyMyBDMTguOTk4ODQyNSwyNC4xMDQwODk3IDE4LjEwNDA4OTcsMjQuOTk4ODQyNSAxNywyNSBMMTcsMjUgWiBNMTUsMjAgTDE1LDIzIEwxNywyMyBMMTcsMjAgTDE1LDIwIFoiIGlkPSJTaGFwZSIgZmlsbD0iI0ZGRkZGRiIgZmlsbC1ydWxlPSJub256ZXJvIj48L3BhdGg+CiAgICAgICAgICAgICAgICAgICAgPHJlY3QgaWQ9Il9UcmFuc3BhcmVudF9SZWN0YW5nbGVfIiB4PSIwIiB5PSIwIiB3aWR0aD0iMzIiIGhlaWdodD0iMzIiPjwvcmVjdD4KICAgICAgICAgICAgICAgIDwvZz4KICAgICAgICAgICAgPC9nPgogICAgICAgIDwvZz4KICAgIDwvZz4KPC9zdmc+;" parent="_AgKB0M8dqoUZbRrFaeX-24" vertex="1">
          <mxGeometry y="-1" width="39" height="39" as="geometry" />
        </mxCell>
        <UserObject placeholders="1" label="&lt;b style=&#39;font-weight:600&#39;&gt;%Primary-Label%&lt;/b&gt;&lt;br&gt;%Secondary-Text%" Badge-Text="" Icon-Name="object-storage" Primary-Label="Label" Secondary-Text="[Container:Container Registry]&#xa;Description" id="_AgKB0M8dqoUZbRrFaeX-25">
          <mxCell style="shape=image;ibmType=nodep;ibmLayout=collapsed;strokeColor=#0f62fe;fillColor=none;html=1;metaEdit=1;fontFamily=IBM Plex Sans;fontSize=14;image=data:image/svg+xml,PD94bWwgdmVyc2lvbj0iMS4wIiBlbmNvZGluZz0iVVRGLTgiPz4KPHN2ZyB3aWR0aD0iNDlweCIgaGVpZ2h0PSI0OXB4IiB2aWV3Qm94PSIwIDAgNDkgNDkiIHZlcnNpb249IjEuMSIgeG1sbnM9Imh0dHA6Ly93d3cudzMub3JnLzIwMDAvc3ZnIiB4bWxuczp4bGluaz0iaHR0cDovL3d3dy53My5vcmcvMTk5OS94bGluayI+CiAgICA8dGl0bGU+T2JqZWN0IFN0b3JhZ2UgQXBwbGljYXRpb24gdjIgSWNvbjwvdGl0bGU+CiAgICA8ZyBpZD0iUGFnZS0xIiBzdHJva2U9Im5vbmUiIHN0cm9rZS13aWR0aD0iMSIgZmlsbD0ibm9uZSIgZmlsbC1ydWxlPSJldmVub2RkIj4KICAgICAgICA8ZyBpZD0idjItNDh4NDgiIHRyYW5zZm9ybT0idHJhbnNsYXRlKC0yMTM5LjAwMDAwMCwgLTQ4MC4wMDAwMDApIj4KICAgICAgICAgICAgPGcgaWQ9Ik9iamVjdC1TdG9yYWdlLUFwcGxpY2F0aW9uLXYyLUljb24iIHRyYW5zZm9ybT0idHJhbnNsYXRlKDIxMzkuNTAwMDAwLCA0ODAuMTgyNzY1KSI+CiAgICAgICAgICAgICAgICA8ZyBpZD0iQ2xvdWQtUGFrLURhdGEtdjItSWNvbiIgZmlsbD0iIzBGNjJGRSI+CiAgICAgICAgICAgICAgICAgICAgPHBvbHlnb24gaWQ9IkZpbGwtNCIgcG9pbnRzPSIwIDQ4IDQ4IDQ4IDQ4IDAgMCAwIj48L3BvbHlnb24+CiAgICAgICAgICAgICAgICA8L2c+CiAgICAgICAgICAgICAgICA8ZyBpZD0ib2JqZWN0LXN0b3JhZ2UoNikiIHRyYW5zZm9ybT0idHJhbnNsYXRlKDguMDAwMDAwLCA4LjAwMDAwMCkiPgogICAgICAgICAgICAgICAgICAgIDxwYXRoIGQ9Ik0yOCwyMCBMMjYsMjAgTDI2LDIyIEwyOCwyMiBMMjgsMjggTDQsMjggTDQsMjIgTDE0LDIyIEwxNCwyMCBMNCwyMCBDMi44OTU5NTU5MywyMC4wMDEyNjc1IDIuMDAxMjY3NDcsMjAuODk1OTU1OSAyLDIyIEwyLDI4IEMyLjAwMTI2NzQ3LDI5LjEwNDA0NDEgMi44OTU5NTU5MywyOS45OTg3MzI1IDQsMzAgTDI4LDMwIEMyOS4xMDQwNDQxLDI5Ljk5ODczMjUgMjkuOTk4NzMyNSwyOS4xMDQwNDQxIDMwLDI4IEwzMCwyMiBDMjkuOTk4NzMyNSwyMC44OTU5NTU5IDI5LjEwNDA0NDEsMjAuMDAxMjY3NSAyOCwyMCBaIiBpZD0iUGF0aCIgZmlsbD0iI0ZGRkZGRiIgZmlsbC1ydWxlPSJub256ZXJvIj48L3BhdGg+CiAgICAgICAgICAgICAgICAgICAgPGNpcmNsZSBpZD0iT3ZhbCIgZmlsbD0iI0ZGRkZGRiIgZmlsbC1ydWxlPSJub256ZXJvIiBjeD0iNyIgY3k9IjI1IiByPSIxIj48L2NpcmNsZT4KICAgICAgICAgICAgICAgICAgICA8cGF0aCBkPSJNMzAsOCBMMjIsOCBMMjIsMTQgTDE2LDE0IEwxNiwyMiBMMjQsMjIgTDI0LDE2IEwzMCwxNiBMMzAsOCBaIE0yMiwyMCBMMTgsMjAgTDE4LDE2IEwyMiwxNiBMMjIsMjAgWiBNMjgsMTQgTDI0LDE0IEwyNCwxMCBMMjgsMTAgTDI4LDE0IFoiIGlkPSJTaGFwZSIgZmlsbD0iI0ZGRkZGRiIgZmlsbC1ydWxlPSJub256ZXJvIj48L3BhdGg+CiAgICAgICAgICAgICAgICAgICAgPHBhdGggZD0iTTE4LDEwIEwxMCwxMCBMMTAsMiBMMTgsMiBMMTgsMTAgWiBNMTIsOCBMMTYsOCBMMTYsNCBMMTIsNCBMMTIsOCBaIiBpZD0iU2hhcGUiIGZpbGw9IiNGRkZGRkYiIGZpbGwtcnVsZT0ibm9uemVybyI+PC9wYXRoPgogICAgICAgICAgICAgICAgICAgIDxyZWN0IGlkPSJfVHJhbnNwYXJlbnRfUmVjdGFuZ2xlXyIgeD0iMCIgeT0iMCIgd2lkdGg9IjMyIiBoZWlnaHQ9IjMyIj48L3JlY3Q+CiAgICAgICAgICAgICAgICA8L2c+CiAgICAgICAgICAgIDwvZz4KICAgICAgICA8L2c+CiAgICA8L2c+Cjwvc3ZnPg==;align=center;verticalAlign=top;labelPosition=center;verticalLabelPosition=bottom;spacing=0;spacingLeft=16;spacingRight=16;spacingTop=0;spacingBottom=4;" parent="1" vertex="1">
            <mxGeometry x="-560" y="260" width="48" height="48" as="geometry" />
          </mxCell>
        </UserObject>
        <UserObject placeholders="1" label="&lt;b style=&quot;font-weight:600&quot;&gt;%Primary-Label%&lt;/b&gt;&lt;br&gt;%Secondary-Text%" Badge-Text="" Icon-Name="object-storage" Primary-Label="Label" Secondary-Text="[Container:Container Registry]&#xa;Description" id="_AgKB0M8dqoUZbRrFaeX-26">
          <mxCell style="shape=mxgraph.ibm.base;ibmType=nodel;ibmLayout=expanded;strokeColor=#0f62fe;fillColor=default;html=1;metaEdit=1;whiteSpace=wrap;fontFamily=IBM Plex Sans;fontSize=14;image=;align=center;verticalAlign=middle;labelPosition=center;verticalLabelPosition=middle;spacing=0;spacingLeft=9;spacingRight=16;spacingTop=7;spacingBottom=0;container=1;collapsible=0;expand=0;recursiveResize=0;" parent="1" vertex="1">
            <mxGeometry x="-686" y="390" width="300" height="70" as="geometry" />
          </mxCell>
        </UserObject>
        <mxCell id="wEJ2j6Q2r-iuzvhcd4Nl-53" value="" style="shape=image;aspect=fixed;image=data:image/svg+xml,PD94bWwgdmVyc2lvbj0iMS4wIiBlbmNvZGluZz0iVVRGLTgiPz4KPHN2ZyB3aWR0aD0iNDlweCIgaGVpZ2h0PSI0OXB4IiB2aWV3Qm94PSIwIDAgNDkgNDkiIHZlcnNpb249IjEuMSIgeG1sbnM9Imh0dHA6Ly93d3cudzMub3JnLzIwMDAvc3ZnIiB4bWxuczp4bGluaz0iaHR0cDovL3d3dy53My5vcmcvMTk5OS94bGluayI+CiAgICA8dGl0bGU+T2JqZWN0IFN0b3JhZ2UgQXBwbGljYXRpb24gdjIgSWNvbjwvdGl0bGU+CiAgICA8ZyBpZD0iUGFnZS0xIiBzdHJva2U9Im5vbmUiIHN0cm9rZS13aWR0aD0iMSIgZmlsbD0ibm9uZSIgZmlsbC1ydWxlPSJldmVub2RkIj4KICAgICAgICA8ZyBpZD0idjItNDh4NDgiIHRyYW5zZm9ybT0idHJhbnNsYXRlKC0yMTM5LjAwMDAwMCwgLTQ4MC4wMDAwMDApIj4KICAgICAgICAgICAgPGcgaWQ9Ik9iamVjdC1TdG9yYWdlLUFwcGxpY2F0aW9uLXYyLUljb24iIHRyYW5zZm9ybT0idHJhbnNsYXRlKDIxMzkuNTAwMDAwLCA0ODAuMTgyNzY1KSI+CiAgICAgICAgICAgICAgICA8ZyBpZD0iQ2xvdWQtUGFrLURhdGEtdjItSWNvbiIgZmlsbD0iIzBGNjJGRSI+CiAgICAgICAgICAgICAgICAgICAgPHBvbHlnb24gaWQ9IkZpbGwtNCIgcG9pbnRzPSIwIDQ4IDQ4IDQ4IDQ4IDAgMCAwIj48L3BvbHlnb24+CiAgICAgICAgICAgICAgICA8L2c+CiAgICAgICAgICAgICAgICA8ZyBpZD0ib2JqZWN0LXN0b3JhZ2UoNikiIHRyYW5zZm9ybT0idHJhbnNsYXRlKDguMDAwMDAwLCA4LjAwMDAwMCkiPgogICAgICAgICAgICAgICAgICAgIDxwYXRoIGQ9Ik0yOCwyMCBMMjYsMjAgTDI2LDIyIEwyOCwyMiBMMjgsMjggTDQsMjggTDQsMjIgTDE0LDIyIEwxNCwyMCBMNCwyMCBDMi44OTU5NTU5MywyMC4wMDEyNjc1IDIuMDAxMjY3NDcsMjAuODk1OTU1OSAyLDIyIEwyLDI4IEMyLjAwMTI2NzQ3LDI5LjEwNDA0NDEgMi44OTU5NTU5MywyOS45OTg3MzI1IDQsMzAgTDI4LDMwIEMyOS4xMDQwNDQxLDI5Ljk5ODczMjUgMjkuOTk4NzMyNSwyOS4xMDQwNDQxIDMwLDI4IEwzMCwyMiBDMjkuOTk4NzMyNSwyMC44OTU5NTU5IDI5LjEwNDA0NDEsMjAuMDAxMjY3NSAyOCwyMCBaIiBpZD0iUGF0aCIgZmlsbD0iI0ZGRkZGRiIgZmlsbC1ydWxlPSJub256ZXJvIj48L3BhdGg+CiAgICAgICAgICAgICAgICAgICAgPGNpcmNsZSBpZD0iT3ZhbCIgZmlsbD0iI0ZGRkZGRiIgZmlsbC1ydWxlPSJub256ZXJvIiBjeD0iNyIgY3k9IjI1IiByPSIxIj48L2NpcmNsZT4KICAgICAgICAgICAgICAgICAgICA8cGF0aCBkPSJNMzAsOCBMMjIsOCBMMjIsMTQgTDE2LDE0IEwxNiwyMiBMMjQsMjIgTDI0LDE2IEwzMCwxNiBMMzAsOCBaIE0yMiwyMCBMMTgsMjAgTDE4LDE2IEwyMiwxNiBMMjIsMjAgWiBNMjgsMTQgTDI0LDE0IEwyNCwxMCBMMjgsMTAgTDI4LDE0IFoiIGlkPSJTaGFwZSIgZmlsbD0iI0ZGRkZGRiIgZmlsbC1ydWxlPSJub256ZXJvIj48L3BhdGg+CiAgICAgICAgICAgICAgICAgICAgPHBhdGggZD0iTTE4LDEwIEwxMCwxMCBMMTAsMiBMMTgsMiBMMTgsMTAgWiBNMTIsOCBMMTYsOCBMMTYsNCBMMTIsNCBMMTIsOCBaIiBpZD0iU2hhcGUiIGZpbGw9IiNGRkZGRkYiIGZpbGwtcnVsZT0ibm9uemVybyI+PC9wYXRoPgogICAgICAgICAgICAgICAgICAgIDxyZWN0IGlkPSJfVHJhbnNwYXJlbnRfUmVjdGFuZ2xlXyIgeD0iMCIgeT0iMCIgd2lkdGg9IjMyIiBoZWlnaHQ9IjMyIj48L3JlY3Q+CiAgICAgICAgICAgICAgICA8L2c+CiAgICAgICAgICAgIDwvZz4KICAgICAgICA8L2c+CiAgICA8L2c+Cjwvc3ZnPg==;fontFamily=IBM Plex Sans;fontSource=fonts%2FIBMPlexSans-Regular.woff;fontSize=14;labelPosition=center;verticalLabelPosition=bottom;align=center;verticalAlign=top;spacingTop=-8;" parent="_AgKB0M8dqoUZbRrFaeX-26" vertex="1">
          <mxGeometry x="-1" width="39" height="39" as="geometry" />
        </mxCell>
        <UserObject placeholders="1" label="&lt;b style=&#39;font-weight:600&#39;&gt;%Primary-Label%&lt;/b&gt;&lt;br&gt;%Secondary-Text%" Badge-Text="" Icon-Name="data-blob" Primary-Label="Label" Secondary-Text="[Container: Blob]&#xa;Description" id="_AgKB0M8dqoUZbRrFaeX-27">
          <mxCell style="shape=image;ibmType=nodel;ibmLayout=collapsed;strokeColor=#0f62fe;fillColor=none;html=1;metaEdit=1;fontFamily=IBM Plex Sans;fontSize=14;image=data:image/svg+xml,PHN2ZyBpZD0iTGF5ZXJfMSIgZGF0YS1uYW1lPSJMYXllciAxIiB4bWxucz0iaHR0cDovL3d3dy53My5vcmcvMjAwMC9zdmciIHZpZXdCb3g9IjAgMCA0OSA0OSI+PGRlZnM+PHN0eWxlPi5jbHMtMXtmaWxsOiMwZjYyZmU7fS5jbHMtMntmaWxsOiNmZmY7fS5jbHMtM3tmaWxsOm5vbmU7fTwvc3R5bGU+PC9kZWZzPjxyZWN0IGNsYXNzPSJjbHMtMSIgeD0iMC41IiB5PSIwLjUiIHdpZHRoPSI0OCIgaGVpZ2h0PSI0OCIgcng9IjgiLz48cGF0aCBjbGFzcz0iY2xzLTIiIGQ9Ik0zMiwzMy4yNUgxN0ExLjI1LDEuMjUsMCwwLDEsMTUuNzUsMzJWMTdBMS4yNSwxLjI1LDAsMCwxLDE3LDE1Ljc1SDMyQTEuMjUsMS4yNSwwLDAsMSwzMy4yNSwxN1YzMkExLjI1LDEuMjUsMCwwLDEsMzIsMzMuMjVaTTE3LDE3VjMySDMyVjE3WiIvPjxyZWN0IGNsYXNzPSJjbHMtMiIgeD0iMjIuNjMiIHk9IjE4Ljg4IiB3aWR0aD0iMS4yNSIgaGVpZ2h0PSI0LjM3Ii8+PHJlY3QgY2xhc3M9ImNscy0yIiB4PSIxOS41IiB5PSIxOC44OCIgd2lkdGg9IjEuMjUiIGhlaWdodD0iNC4zNyIvPjxwYXRoIGNsYXNzPSJjbHMtMiIgZD0iTTI4LjI1LDIzLjI1SDI3QTEuMjUsMS4yNSwwLDAsMSwyNS43NSwyMlYyMC4xM0ExLjI1LDEuMjUsMCwwLDEsMjcsMTguODhoMS4yNWExLjI1LDEuMjUsMCwwLDEsMS4yNSwxLjI1VjIyQTEuMjUsMS4yNSwwLDAsMSwyOC4yNSwyMy4yNVpNMjcsMjAuMTNWMjJoMS4yNVYyMC4xM1oiLz48cmVjdCBjbGFzcz0iY2xzLTIiIHg9IjI4LjI1IiB5PSIyNS43NSIgd2lkdGg9IjEuMjUiIGhlaWdodD0iNC4zNyIvPjxyZWN0IGNsYXNzPSJjbHMtMiIgeD0iMTkuNSIgeT0iMjUuNzUiIHdpZHRoPSIxLjI1IiBoZWlnaHQ9IjQuMzciLz48cGF0aCBjbGFzcz0iY2xzLTIiIGQ9Ik0yNS4xMiwzMC4xMkgyMy44OGExLjI1LDEuMjUsMCwwLDEtMS4yNS0xLjI1VjI3YTEuMjUsMS4yNSwwLDAsMSwxLjI1LTEuMjVoMS4yNEExLjI1LDEuMjUsMCwwLDEsMjYuMzcsMjd2MS44N0ExLjI1LDEuMjUsMCwwLDEsMjUuMTIsMzAuMTJaTTIzLjg4LDI3djEuODdoMS4yNFYyN1oiLz48cmVjdCBjbGFzcz0iY2xzLTMiIHg9IjE0LjUiIHk9IjE0LjUiIHdpZHRoPSIyMCIgaGVpZ2h0PSIyMCIvPjwvc3ZnPg==;align=center;verticalAlign=top;labelPosition=center;verticalLabelPosition=bottom;spacing=0;spacingLeft=16;spacingRight=16;spacingTop=0;spacingBottom=4;" parent="1" vertex="1">
            <mxGeometry x="-1232" y="500" width="48" height="48" as="geometry" />
          </mxCell>
        </UserObject>
        <UserObject placeholders="1" label="&lt;b style=&quot;font-weight:600&quot;&gt;%Primary-Label%&lt;/b&gt;&lt;br&gt;%Secondary-Text%" Badge-Text="" Icon-Name="data-blob" Primary-Label="Label" Secondary-Text="[Container:Blob]&#xa;Description" id="_AgKB0M8dqoUZbRrFaeX-28">
          <mxCell style="shape=mxgraph.ibm.base;ibmType=nodel;ibmLayout=expanded;strokeColor=#0f62fe;fillColor=default;html=1;metaEdit=1;whiteSpace=wrap;fontFamily=IBM Plex Sans;fontSize=14;image=;align=center;verticalAlign=middle;labelPosition=center;verticalLabelPosition=middle;spacing=0;spacingLeft=9;spacingRight=16;spacingTop=7;spacingBottom=0;container=1;collapsible=0;expand=0;recursiveResize=0;" parent="1" vertex="1">
            <mxGeometry x="-1358" y="620" width="300" height="70" as="geometry" />
          </mxCell>
        </UserObject>
        <mxCell id="wEJ2j6Q2r-iuzvhcd4Nl-65" value="" style="group" parent="_AgKB0M8dqoUZbRrFaeX-28" vertex="1" connectable="0">
          <mxGeometry width="39" height="39" as="geometry" />
        </mxCell>
        <mxCell id="wEJ2j6Q2r-iuzvhcd4Nl-64" value="" style="whiteSpace=wrap;html=1;aspect=fixed;strokeColor=none;fillColor=#0F62FE;" parent="wEJ2j6Q2r-iuzvhcd4Nl-65" vertex="1">
          <mxGeometry width="39" height="39" as="geometry" />
        </mxCell>
        <mxCell id="wEJ2j6Q2r-iuzvhcd4Nl-63" value="" style="shape=image;aspect=fixed;image=data:image/svg+xml,PHN2ZyBpZD0iTGF5ZXJfMSIgZGF0YS1uYW1lPSJMYXllciAxIiB4bWxucz0iaHR0cDovL3d3dy53My5vcmcvMjAwMC9zdmciIHZpZXdCb3g9IjAgMCA0OSA0OSI+PGRlZnM+PHN0eWxlPi5jbHMtMXtmaWxsOiMwZjYyZmU7fS5jbHMtMntmaWxsOiNmZmY7fS5jbHMtM3tmaWxsOm5vbmU7fTwvc3R5bGU+PC9kZWZzPjxyZWN0IGNsYXNzPSJjbHMtMSIgeD0iMC41IiB5PSIwLjUiIHdpZHRoPSI0OCIgaGVpZ2h0PSI0OCIgcng9IjgiLz48cGF0aCBjbGFzcz0iY2xzLTIiIGQ9Ik0zMiwzMy4yNUgxN0ExLjI1LDEuMjUsMCwwLDEsMTUuNzUsMzJWMTdBMS4yNSwxLjI1LDAsMCwxLDE3LDE1Ljc1SDMyQTEuMjUsMS4yNSwwLDAsMSwzMy4yNSwxN1YzMkExLjI1LDEuMjUsMCwwLDEsMzIsMzMuMjVaTTE3LDE3VjMySDMyVjE3WiIvPjxyZWN0IGNsYXNzPSJjbHMtMiIgeD0iMjIuNjMiIHk9IjE4Ljg4IiB3aWR0aD0iMS4yNSIgaGVpZ2h0PSI0LjM3Ii8+PHJlY3QgY2xhc3M9ImNscy0yIiB4PSIxOS41IiB5PSIxOC44OCIgd2lkdGg9IjEuMjUiIGhlaWdodD0iNC4zNyIvPjxwYXRoIGNsYXNzPSJjbHMtMiIgZD0iTTI4LjI1LDIzLjI1SDI3QTEuMjUsMS4yNSwwLDAsMSwyNS43NSwyMlYyMC4xM0ExLjI1LDEuMjUsMCwwLDEsMjcsMTguODhoMS4yNWExLjI1LDEuMjUsMCwwLDEsMS4yNSwxLjI1VjIyQTEuMjUsMS4yNSwwLDAsMSwyOC4yNSwyMy4yNVpNMjcsMjAuMTNWMjJoMS4yNVYyMC4xM1oiLz48cmVjdCBjbGFzcz0iY2xzLTIiIHg9IjI4LjI1IiB5PSIyNS43NSIgd2lkdGg9IjEuMjUiIGhlaWdodD0iNC4zNyIvPjxyZWN0IGNsYXNzPSJjbHMtMiIgeD0iMTkuNSIgeT0iMjUuNzUiIHdpZHRoPSIxLjI1IiBoZWlnaHQ9IjQuMzciLz48cGF0aCBjbGFzcz0iY2xzLTIiIGQ9Ik0yNS4xMiwzMC4xMkgyMy44OGExLjI1LDEuMjUsMCwwLDEtMS4yNS0xLjI1VjI3YTEuMjUsMS4yNSwwLDAsMSwxLjI1LTEuMjVoMS4yNEExLjI1LDEuMjUsMCwwLDEsMjYuMzcsMjd2MS44N0ExLjI1LDEuMjUsMCwwLDEsMjUuMTIsMzAuMTJaTTIzLjg4LDI3djEuODdoMS4yNFYyN1oiLz48cmVjdCBjbGFzcz0iY2xzLTMiIHg9IjE0LjUiIHk9IjE0LjUiIHdpZHRoPSIyMCIgaGVpZ2h0PSIyMCIvPjwvc3ZnPg==;fontFamily=IBM Plex Sans;fontSource=fonts%2FIBMPlexSans-Regular.woff;fontSize=14;labelPosition=center;verticalLabelPosition=bottom;align=center;verticalAlign=top;spacingTop=-7;" parent="wEJ2j6Q2r-iuzvhcd4Nl-65" vertex="1">
          <mxGeometry width="39" height="39" as="geometry" />
        </mxCell>
        <UserObject placeholders="1" label="&lt;b style=&quot;font-weight:600&quot;&gt;%Primary-Label%&lt;/b&gt;&lt;br&gt;%Secondary-Text%" Badge-Text="" Icon-Name="data--base" Primary-Label="Label" Secondary-Text="[Container:Database]&#xa;Description" id="_AgKB0M8dqoUZbRrFaeX-30">
          <mxCell style="shape=mxgraph.ibm.base;ibmType=nodel;ibmLayout=expanded;strokeColor=#0f62fe;fillColor=default;html=1;metaEdit=1;whiteSpace=wrap;fontFamily=IBM Plex Sans;fontSize=14;image=;align=center;verticalAlign=middle;labelPosition=center;verticalLabelPosition=middle;spacing=0;spacingLeft=9;spacingRight=16;spacingTop=7;spacingBottom=0;container=1;collapsible=0;expand=0;recursiveResize=0;" parent="1" vertex="1">
            <mxGeometry x="-2030" y="630" width="300" height="70" as="geometry" />
          </mxCell>
        </UserObject>
        <mxCell id="wEJ2j6Q2r-iuzvhcd4Nl-42" value="" style="whiteSpace=wrap;html=1;aspect=fixed;strokeColor=none;fillColor=#0f62fe;" parent="_AgKB0M8dqoUZbRrFaeX-30" vertex="1">
          <mxGeometry y="-0.5" width="39" height="39" as="geometry" />
        </mxCell>
        <UserObject placeholders="1" label="&lt;b style=&#39;font-weight:600&#39;&gt;%Primary-Label%&lt;/b&gt;&lt;br&gt;%Secondary-Text%" Badge-Text="" Icon-Name="data--base" Primary-Label="" Secondary-Text="" id="_AgKB0M8dqoUZbRrFaeX-29">
          <mxCell style="shape=image;ibmType=nodel;ibmLayout=collapsed;strokeColor=#0f62fe;fillColor=none;html=1;metaEdit=1;whiteSpace=wrap;fontFamily=IBM Plex Sans;fontSize=14;image=data:image/svg+xml,PHN2ZyBpZD0iTGF5ZXJfMSIgZGF0YS1uYW1lPSJMYXllciAxIiB4bWxucz0iaHR0cDovL3d3dy53My5vcmcvMjAwMC9zdmciIHZpZXdCb3g9IjAgMCA0OSA0OSI+PGRlZnM+PHN0eWxlPi5jbHMtMXtmaWxsOiMwZjYyZmU7fS5jbHMtMntmaWxsOm5vbmU7fS5jbHMtM3tmaWxsOiNmZmY7ZmlsbC1ydWxlOmV2ZW5vZGQ7fTwvc3R5bGU+PC9kZWZzPjxyZWN0IGNsYXNzPSJjbHMtMSIgeD0iMC41IiB5PSIwLjUiIHdpZHRoPSI0OCIgaGVpZ2h0PSI0OCIgcng9IjgiLz48cmVjdCBjbGFzcz0iY2xzLTIiIHg9IjE0LjUiIHk9IjE0LjUiIHdpZHRoPSIyMCIgaGVpZ2h0PSIyMCIvPjxwYXRoIGlkPSJGaWxsLTEiIGNsYXNzPSJjbHMtMyIgZD0iTTE4LjY1LDMyLjU5aDExLjdWMjguMjFIMTguNjVabTAtNS44NWgxMS43VjIyLjM2SDE4LjY1Wm0wLTUuODRoMTEuN1YxNi41MUgxOC42NVptMTEuNy01Ljg1SDE4LjY1YTEuNDYsMS40NiwwLDAsMC0xLjQ2LDEuNDZWMzIuNTlhMS40NiwxLjQ2LDAsMCwwLDEuNDYsMS40NmgxMS43YTEuNDYsMS40NiwwLDAsMCwxLjQ2LTEuNDZWMTYuNTFhMS40NiwxLjQ2LDAsMCwwLTEuNDYtMS40NloiLz48cGF0aCBpZD0iRmlsbC0zIiBjbGFzcz0iY2xzLTMiIGQ9Ik0yMC44NSwxOGEuNzQuNzQsMCwxLDEtLjc0LjczLjczLjczLDAsMCwxLC43NC0uNzMiLz48cGF0aCBpZD0iRmlsbC00IiBjbGFzcz0iY2xzLTMiIGQ9Ik0yMC44NSwyMy44MmEuNzMuNzMsMCwxLDEtLjc0LjczLjczLjczLDAsMCwxLC43NC0uNzMiLz48cGF0aCBpZD0iRmlsbC01IiBjbGFzcz0iY2xzLTMiIGQ9Ik0yMC44NSwyOS42N2EuNzMuNzMsMCwxLDEsMCwxLjQ2LjczLjczLDAsMSwxLDAtMS40NiIvPjwvc3ZnPg==;align=center;verticalAlign=top;labelPosition=center;verticalLabelPosition=bottom;spacing=0;spacingLeft=16;spacingRight=16;spacingTop=0;spacingBottom=4;" parent="_AgKB0M8dqoUZbRrFaeX-30" vertex="1">
            <mxGeometry x="0.5" y="-5" width="38" height="48" as="geometry" />
          </mxCell>
        </UserObject>
        <UserObject placeholders="1" label="&lt;b style=&#39;font-weight:600&#39;&gt;%Primary-Label%&lt;/b&gt;&lt;br&gt;%Secondary-Text%" Badge-Text="" Icon-Name="folder--details" Primary-Label="Label" Secondary-Text="[Container:Filesystem]&#xa;Description" id="_AgKB0M8dqoUZbRrFaeX-32">
          <mxCell style="shape=image;ibmType=nodel;ibmLayout=collapsed;strokeColor=#0f62fe;fillColor=none;html=1;metaEdit=1;whiteSpace=wrap;fontFamily=IBM Plex Sans;fontSize=14;image=data:image/svg+xml,PHN2ZyBpZD0iTGF5ZXJfMSIgZGF0YS1uYW1lPSJMYXllciAxIiB4bWxucz0iaHR0cDovL3d3dy53My5vcmcvMjAwMC9zdmciIHZpZXdCb3g9IjAgMCA0OSA0OSI+PGRlZnM+PHN0eWxlPi5jbHMtMXtmaWxsOiMwZjYyZmU7fS5jbHMtMntmaWxsOiNmZmY7fS5jbHMtM3tmaWxsOm5vbmU7fTwvc3R5bGU+PC9kZWZzPjxyZWN0IGNsYXNzPSJjbHMtMSIgeD0iMC41IiB5PSIwLjUiIHdpZHRoPSI0OCIgaGVpZ2h0PSI0OCIgcng9IjgiLz48cGF0aCBjbGFzcz0iY2xzLTIiIGQ9Ik0zMC41NywyNS4zMWwtMy4xMy0zLjEzQS42NS42NSwwLDAsMCwyNywyMkgyMy4yNUExLjI1LDEuMjUsMCwwLDAsMjIsMjMuMjVWMzJhMS4yNSwxLjI1LDAsMCwwLDEuMjUsMS4yNUgyOS41QTEuMjUsMS4yNSwwLDAsMCwzMC43NSwzMlYyNS43NUEuNjUuNjUsMCwwLDAsMzAuNTcsMjUuMzFabS0xLjMzLjQ0SDI3VjIzLjUxWm0tNiw2LjI1VjIzLjI1aDIuNXYyLjVBMS4yNSwxLjI1LDAsMCwwLDI3LDI3aDIuNXY1WiIvPjxwYXRoIGNsYXNzPSJjbHMtMiIgZD0iTTE5LjUsMzEuMzdIMTdhMS4yNSwxLjI1LDAsMCwxLTEuMjUtMS4yNVYxNy42MkExLjI2LDEuMjYsMCwwLDEsMTcsMTYuMzdoNC43NGExLjI2LDEuMjYsMCwwLDEsLjg4LjM3bDIuMTQsMi4xM0gzMmExLjI2LDEuMjYsMCwwLDEsMS4yNSwxLjI1djVIMzJ2LTVIMjQuMjRsLTIuNS0yLjVIMTd2MTIuNWgyLjVaIi8+PHJlY3QgY2xhc3M9ImNscy0zIiB4PSIxNC41IiB5PSIxNC41IiB3aWR0aD0iMjAiIGhlaWdodD0iMjAiLz48L3N2Zz4=;align=center;verticalAlign=top;labelPosition=center;verticalLabelPosition=bottom;spacing=0;spacingLeft=16;spacingRight=16;spacingTop=0;spacingBottom=4;" parent="1" vertex="1">
            <mxGeometry x="-1568" y="500" width="48" height="48" as="geometry" />
          </mxCell>
        </UserObject>
        <UserObject placeholders="1" label="&lt;b style=&quot;font-weight:600&quot;&gt;%Primary-Label%&lt;/b&gt;&lt;br&gt;%Secondary-Text%" Badge-Text="" Icon-Name="folder--details" Primary-Label="Label" Secondary-Text="[Container:Filesystem]&#xa;Description" id="_AgKB0M8dqoUZbRrFaeX-33">
          <mxCell style="shape=mxgraph.ibm.base;ibmType=nodel;ibmLayout=expanded;strokeColor=#0f62fe;fillColor=default;html=1;metaEdit=1;whiteSpace=wrap;fontFamily=IBM Plex Sans;fontSize=14;image=;align=center;verticalAlign=middle;labelPosition=center;verticalLabelPosition=middle;spacing=0;spacingLeft=9;spacingRight=16;spacingTop=7;spacingBottom=0;container=1;collapsible=0;expand=0;recursiveResize=0;" parent="1" vertex="1">
            <mxGeometry x="-1694" y="630" width="300" height="70" as="geometry" />
          </mxCell>
        </UserObject>
        <mxCell id="wEJ2j6Q2r-iuzvhcd4Nl-62" value="" style="group" parent="_AgKB0M8dqoUZbRrFaeX-33" vertex="1" connectable="0">
          <mxGeometry width="39" height="39" as="geometry" />
        </mxCell>
        <mxCell id="wEJ2j6Q2r-iuzvhcd4Nl-43" value="" style="whiteSpace=wrap;html=1;aspect=fixed;strokeColor=none;fillColor=#0F62FE;" parent="wEJ2j6Q2r-iuzvhcd4Nl-62" vertex="1">
          <mxGeometry width="39" height="39" as="geometry" />
        </mxCell>
        <mxCell id="wEJ2j6Q2r-iuzvhcd4Nl-60" value="" style="shape=image;aspect=fixed;image=data:image/svg+xml,PHN2ZyBpZD0iTGF5ZXJfMSIgZGF0YS1uYW1lPSJMYXllciAxIiB4bWxucz0iaHR0cDovL3d3dy53My5vcmcvMjAwMC9zdmciIHZpZXdCb3g9IjAgMCA0OSA0OSI+PGRlZnM+PHN0eWxlPi5jbHMtMXtmaWxsOiMwZjYyZmU7fS5jbHMtMntmaWxsOiNmZmY7fS5jbHMtM3tmaWxsOm5vbmU7fTwvc3R5bGU+PC9kZWZzPjxyZWN0IGNsYXNzPSJjbHMtMSIgeD0iMC41IiB5PSIwLjUiIHdpZHRoPSI0OCIgaGVpZ2h0PSI0OCIgcng9IjgiLz48cGF0aCBjbGFzcz0iY2xzLTIiIGQ9Ik0zMC41NywyNS4zMWwtMy4xMy0zLjEzQS42NS42NSwwLDAsMCwyNywyMkgyMy4yNUExLjI1LDEuMjUsMCwwLDAsMjIsMjMuMjVWMzJhMS4yNSwxLjI1LDAsMCwwLDEuMjUsMS4yNUgyOS41QTEuMjUsMS4yNSwwLDAsMCwzMC43NSwzMlYyNS43NUEuNjUuNjUsMCwwLDAsMzAuNTcsMjUuMzFabS0xLjMzLjQ0SDI3VjIzLjUxWm0tNiw2LjI1VjIzLjI1aDIuNXYyLjVBMS4yNSwxLjI1LDAsMCwwLDI3LDI3aDIuNXY1WiIvPjxwYXRoIGNsYXNzPSJjbHMtMiIgZD0iTTE5LjUsMzEuMzdIMTdhMS4yNSwxLjI1LDAsMCwxLTEuMjUtMS4yNVYxNy42MkExLjI2LDEuMjYsMCwwLDEsMTcsMTYuMzdoNC43NGExLjI2LDEuMjYsMCwwLDEsLjg4LjM3bDIuMTQsMi4xM0gzMmExLjI2LDEuMjYsMCwwLDEsMS4yNSwxLjI1djVIMzJ2LTVIMjQuMjRsLTIuNS0yLjVIMTd2MTIuNWgyLjVaIi8+PHJlY3QgY2xhc3M9ImNscy0zIiB4PSIxNC41IiB5PSIxNC41IiB3aWR0aD0iMjAiIGhlaWdodD0iMjAiLz48L3N2Zz4=;fontFamily=IBM Plex Sans;fontSource=fonts%2FIBMPlexSans-Regular.woff;fontSize=14;labelPosition=center;verticalLabelPosition=bottom;align=center;verticalAlign=top;spacingTop=-7;" parent="wEJ2j6Q2r-iuzvhcd4Nl-62" vertex="1">
          <mxGeometry width="39" height="39" as="geometry" />
        </mxCell>
        <UserObject placeholders="1" label="&lt;b style=&#39;font-weight:600&#39;&gt;%Primary-Label%&lt;/b&gt;&lt;br&gt;%Secondary-Text%" Badge-Text="" Icon-Name="volume--block-storage" Primary-Label="Label" Secondary-Text="[Container:Block Volume]&#xa;Description" id="_AgKB0M8dqoUZbRrFaeX-34">
          <mxCell style="shape=image;ibmType=nodel;ibmLayout=collapsed;strokeColor=#0f62fe;fillColor=none;html=1;metaEdit=1;fontFamily=IBM Plex Sans;fontSize=14;image=data:image/svg+xml,PHN2ZyBpZD0iTGF5ZXJfMSIgZGF0YS1uYW1lPSJMYXllciAxIiB4bWxucz0iaHR0cDovL3d3dy53My5vcmcvMjAwMC9zdmciIHZpZXdCb3g9IjAgMCA0OSA0OSI+PGRlZnM+PHN0eWxlPi5jbHMtMXtmaWxsOiMwZjYyZmU7fS5jbHMtMntmaWxsOiNmZmY7fS5jbHMtM3tmaWxsOm5vbmU7fTwvc3R5bGU+PC9kZWZzPjxyZWN0IGNsYXNzPSJjbHMtMSIgeD0iMC41IiB5PSIwLjUiIHdpZHRoPSI0OCIgaGVpZ2h0PSI0OCIgcng9IjgiLz48cGF0aCBjbGFzcz0iY2xzLTIiIGQ9Ik0yNS4xMiwyNy42MkgyMC43NVYyMy4yNWg0LjM3Wk0yMiwyNi4zOGgxLjg4VjI0LjVIMjJaIi8+PHBhdGggY2xhc3M9ImNscy0yIiBkPSJNMjUuMTIsMzMuMjVIMjAuNzVWMjguODhoNC4zN1pNMjIsMzJoMS44OFYzMC4xMkgyMloiLz48cGF0aCBjbGFzcz0iY2xzLTIiIGQ9Ik0zMC43NSwyNy42MkgyNi4zOFYyMy4yNWg0LjM3Wm0tMy4xMy0xLjI0SDI5LjVWMjQuNUgyNy42MloiLz48cGF0aCBjbGFzcz0iY2xzLTIiIGQ9Ik0zMC43NSwzMy4yNUgyNi4zOFYyOC44OGg0LjM3Wk0yNy42MiwzMkgyOS41VjMwLjEySDI3LjYyWiIvPjxwYXRoIGNsYXNzPSJjbHMtMiIgZD0iTTE5LjUsMzJIMTdhMS4yNSwxLjI1LDAsMCwxLTEuMjUtMS4yNVYxOC4yNUExLjI1LDEuMjUsMCwwLDEsMTcsMTdoNC43NGExLjIyLDEuMjIsMCwwLDEsLjg4LjM3bDIuMTQsMi4xM0gzMmExLjI1LDEuMjUsMCwwLDEsMS4yNSwxLjI1djVIMzJ2LTVIMjQuMjRsLTIuNS0yLjVIMTd2MTIuNWgyLjVaIi8+PHJlY3QgY2xhc3M9ImNscy0zIiB4PSIxNC41IiB5PSIxNC41IiB3aWR0aD0iMjAiIGhlaWdodD0iMjAiLz48L3N2Zz4=;align=center;verticalAlign=top;labelPosition=center;verticalLabelPosition=bottom;spacing=0;spacingLeft=16;spacingRight=16;spacingTop=0;spacingBottom=4;" parent="1" vertex="1">
            <mxGeometry x="-896" y="500" width="48" height="48" as="geometry" />
          </mxCell>
        </UserObject>
        <UserObject placeholders="1" label="&lt;b style=&quot;font-weight:600&quot;&gt;%Primary-Label%&lt;/b&gt;&lt;br&gt;%Secondary-Text%" Badge-Text="" Icon-Name="volume--block-storage" Primary-Label="Label" Secondary-Text="[Container:Block Volume]&#xa;Description" id="_AgKB0M8dqoUZbRrFaeX-35">
          <mxCell style="shape=mxgraph.ibm.base;ibmType=nodel;ibmLayout=expanded;strokeColor=#0f62fe;fillColor=default;html=1;metaEdit=1;whiteSpace=wrap;fontFamily=IBM Plex Sans;fontSize=14;image=;align=center;verticalAlign=middle;labelPosition=center;verticalLabelPosition=middle;spacing=0;spacingLeft=9;spacingRight=16;spacingTop=7;spacingBottom=0;container=1;collapsible=0;expand=0;recursiveResize=0;" parent="1" vertex="1">
            <mxGeometry x="-1022" y="620" width="300" height="70" as="geometry" />
          </mxCell>
        </UserObject>
        <mxCell id="wEJ2j6Q2r-iuzvhcd4Nl-68" value="" style="group" parent="_AgKB0M8dqoUZbRrFaeX-35" vertex="1" connectable="0">
          <mxGeometry x="-1" width="39" height="39" as="geometry" />
        </mxCell>
        <mxCell id="wEJ2j6Q2r-iuzvhcd4Nl-67" value="" style="whiteSpace=wrap;html=1;aspect=fixed;strokeColor=none;fillColor=#0F62FE;" parent="wEJ2j6Q2r-iuzvhcd4Nl-68" vertex="1">
          <mxGeometry width="39" height="39" as="geometry" />
        </mxCell>
        <mxCell id="wEJ2j6Q2r-iuzvhcd4Nl-66" value="" style="shape=image;aspect=fixed;image=data:image/svg+xml,PHN2ZyBpZD0iTGF5ZXJfMSIgZGF0YS1uYW1lPSJMYXllciAxIiB4bWxucz0iaHR0cDovL3d3dy53My5vcmcvMjAwMC9zdmciIHZpZXdCb3g9IjAgMCA0OSA0OSI+PGRlZnM+PHN0eWxlPi5jbHMtMXtmaWxsOiMwZjYyZmU7fS5jbHMtMntmaWxsOiNmZmY7fS5jbHMtM3tmaWxsOm5vbmU7fTwvc3R5bGU+PC9kZWZzPjxyZWN0IGNsYXNzPSJjbHMtMSIgeD0iMC41IiB5PSIwLjUiIHdpZHRoPSI0OCIgaGVpZ2h0PSI0OCIgcng9IjgiLz48cGF0aCBjbGFzcz0iY2xzLTIiIGQ9Ik0yNS4xMiwyNy42MkgyMC43NVYyMy4yNWg0LjM3Wk0yMiwyNi4zOGgxLjg4VjI0LjVIMjJaIi8+PHBhdGggY2xhc3M9ImNscy0yIiBkPSJNMjUuMTIsMzMuMjVIMjAuNzVWMjguODhoNC4zN1pNMjIsMzJoMS44OFYzMC4xMkgyMloiLz48cGF0aCBjbGFzcz0iY2xzLTIiIGQ9Ik0zMC43NSwyNy42MkgyNi4zOFYyMy4yNWg0LjM3Wm0tMy4xMy0xLjI0SDI5LjVWMjQuNUgyNy42MloiLz48cGF0aCBjbGFzcz0iY2xzLTIiIGQ9Ik0zMC43NSwzMy4yNUgyNi4zOFYyOC44OGg0LjM3Wk0yNy42MiwzMkgyOS41VjMwLjEySDI3LjYyWiIvPjxwYXRoIGNsYXNzPSJjbHMtMiIgZD0iTTE5LjUsMzJIMTdhMS4yNSwxLjI1LDAsMCwxLTEuMjUtMS4yNVYxOC4yNUExLjI1LDEuMjUsMCwwLDEsMTcsMTdoNC43NGExLjIyLDEuMjIsMCwwLDEsLjg4LjM3bDIuMTQsMi4xM0gzMmExLjI1LDEuMjUsMCwwLDEsMS4yNSwxLjI1djVIMzJ2LTVIMjQuMjRsLTIuNS0yLjVIMTd2MTIuNWgyLjVaIi8+PHJlY3QgY2xhc3M9ImNscy0zIiB4PSIxNC41IiB5PSIxNC41IiB3aWR0aD0iMjAiIGhlaWdodD0iMjAiLz48L3N2Zz4=;fontFamily=IBM Plex Sans;fontSource=fonts%2FIBMPlexSans-Regular.woff;fontSize=14;labelPosition=center;verticalLabelPosition=bottom;align=center;verticalAlign=top;spacingTop=-7;" parent="wEJ2j6Q2r-iuzvhcd4Nl-68" vertex="1">
          <mxGeometry width="39" height="39" as="geometry" />
        </mxCell>
        <UserObject placeholders="1" label="&lt;b style=&#39;font-weight:600&#39;&gt;%Primary-Label%&lt;/b&gt;&lt;br&gt;%Secondary-Text%" Badge-Text="" Icon-Name="object-storage--alt" Primary-Label="Label" Secondary-Text="[Container: Object Storage]&#xa;Description" id="_AgKB0M8dqoUZbRrFaeX-36">
          <mxCell style="shape=image;ibmType=nodel;ibmLayout=collapsed;strokeColor=#0f62fe;fillColor=none;html=1;metaEdit=1;fontFamily=IBM Plex Sans;fontSize=14;image=data:image/svg+xml,PHN2ZyBpZD0iTGF5ZXJfMSIgZGF0YS1uYW1lPSJMYXllciAxIiB4bWxucz0iaHR0cDovL3d3dy53My5vcmcvMjAwMC9zdmciIHZpZXdCb3g9IjAgMCA0OSA0OSI+PGRlZnM+PHN0eWxlPi5jbHMtMXtmaWxsOiMwZjYyZmU7fS5jbHMtMntmaWxsOiNmZmY7fS5jbHMtM3tmaWxsOm5vbmU7fTwvc3R5bGU+PC9kZWZzPjxyZWN0IGNsYXNzPSJjbHMtMSIgeD0iMC41IiB5PSIwLjUiIHdpZHRoPSI0OCIgaGVpZ2h0PSI0OCIgcng9IjgiLz48cGF0aCBjbGFzcz0iY2xzLTIiIGQ9Ik0zMiwyN0gzMC43NXYxLjI1SDMyVjMySDE3VjI4LjI1aDYuMjVWMjdIMTdhMS4yNSwxLjI1LDAsMCwwLTEuMjUsMS4yNVYzMkExLjI1LDEuMjUsMCwwLDAsMTcsMzMuMjVIMzJBMS4yNSwxLjI1LDAsMCwwLDMzLjI1LDMyVjI4LjI1QTEuMjUsMS4yNSwwLDAsMCwzMiwyN1oiLz48Y2lyY2xlIGNsYXNzPSJjbHMtMiIgY3g9IjE4Ljg4IiBjeT0iMzAuMTMiIHI9IjAuNjMiLz48cmVjdCBjbGFzcz0iY2xzLTMiIHg9IjE0LjUiIHk9IjE0LjUiIHdpZHRoPSIyMCIgaGVpZ2h0PSIyMCIvPjxwYXRoIGNsYXNzPSJjbHMtMiIgZD0iTTI3LjYyLDIzLjI1YTEuODgsMS44OCwwLDAsMC0xLjI3LjUxbC0yLjUtMS41YTIuMywyLjMsMCwwLDAsMC0uMjYsMi4zLDIuMywwLDAsMCwwLS4yNmwyLjUtMS41YTEuODcsMS44NywwLDEsMC0uNi0xLjM2LDEuMDcsMS4wNywwLDAsMCwwLC4yNWwtMi41MSwxLjVBMS44NiwxLjg2LDAsMCwwLDIyLDIwLjEyYTEuODgsMS44OCwwLDAsMCwwLDMuNzYsMS44NiwxLjg2LDAsMCwwLDEuMjctLjUxbDIuNTEsMS41YTEuMDcsMS4wNywwLDAsMCwwLC4yNSwxLjg4LDEuODgsMCwxLDAsMS44Ny0xLjg3Wm0wLTVhLjYzLjYzLDAsMSwxLS42Mi42M0EuNjMuNjMsMCwwLDEsMjcuNjIsMTguMjVaTTIyLDIyLjYyYS42Mi42MiwwLDEsMSwuNjItLjYyQS42Mi42MiwwLDAsMSwyMiwyMi42MlptNS42MiwzLjEzYS42My42MywwLDEsMSwuNjMtLjYzQS42My42MywwLDAsMSwyNy42MiwyNS43NVoiLz48L3N2Zz4=;align=center;verticalAlign=top;labelPosition=center;verticalLabelPosition=bottom;spacing=0;spacingLeft=16;spacingRight=16;spacingTop=0;spacingBottom=4;" parent="1" vertex="1">
            <mxGeometry x="-560" y="500" width="48" height="48" as="geometry" />
          </mxCell>
        </UserObject>
        <UserObject placeholders="1" label="&lt;b style=&quot;font-weight:600&quot;&gt;%Primary-Label%&lt;/b&gt;&lt;br&gt;%Secondary-Text%" Badge-Text="" Icon-Name="object-storage--alt" Primary-Label="Label" Secondary-Text="[Container:Object Storage]&#xa;Description" id="_AgKB0M8dqoUZbRrFaeX-37">
          <mxCell style="shape=mxgraph.ibm.base;ibmType=nodel;ibmLayout=expanded;strokeColor=#0f62fe;fillColor=default;html=1;metaEdit=1;whiteSpace=wrap;fontFamily=IBM Plex Sans;fontSize=14;image=;align=center;verticalAlign=middle;labelPosition=center;verticalLabelPosition=middle;spacing=0;spacingLeft=9;spacingRight=16;spacingTop=7;spacingBottom=0;container=1;collapsible=0;expand=0;recursiveResize=0;" parent="1" vertex="1">
            <mxGeometry x="-686" y="620" width="300" height="70" as="geometry" />
          </mxCell>
        </UserObject>
        <mxCell id="wEJ2j6Q2r-iuzvhcd4Nl-71" value="" style="group" parent="_AgKB0M8dqoUZbRrFaeX-37" vertex="1" connectable="0">
          <mxGeometry width="39" height="39" as="geometry" />
        </mxCell>
        <mxCell id="wEJ2j6Q2r-iuzvhcd4Nl-70" value="" style="whiteSpace=wrap;html=1;aspect=fixed;strokeColor=none;fillColor=#0F62FE;" parent="wEJ2j6Q2r-iuzvhcd4Nl-71" vertex="1">
          <mxGeometry width="39" height="39" as="geometry" />
        </mxCell>
        <mxCell id="wEJ2j6Q2r-iuzvhcd4Nl-69" value="" style="shape=image;aspect=fixed;image=data:image/svg+xml,PHN2ZyBpZD0iTGF5ZXJfMSIgZGF0YS1uYW1lPSJMYXllciAxIiB4bWxucz0iaHR0cDovL3d3dy53My5vcmcvMjAwMC9zdmciIHZpZXdCb3g9IjAgMCA0OSA0OSI+PGRlZnM+PHN0eWxlPi5jbHMtMXtmaWxsOiMwZjYyZmU7fS5jbHMtMntmaWxsOiNmZmY7fS5jbHMtM3tmaWxsOm5vbmU7fTwvc3R5bGU+PC9kZWZzPjxyZWN0IGNsYXNzPSJjbHMtMSIgeD0iMC41IiB5PSIwLjUiIHdpZHRoPSI0OCIgaGVpZ2h0PSI0OCIgcng9IjgiLz48cGF0aCBjbGFzcz0iY2xzLTIiIGQ9Ik0zMiwyN0gzMC43NXYxLjI1SDMyVjMySDE3VjI4LjI1aDYuMjVWMjdIMTdhMS4yNSwxLjI1LDAsMCwwLTEuMjUsMS4yNVYzMkExLjI1LDEuMjUsMCwwLDAsMTcsMzMuMjVIMzJBMS4yNSwxLjI1LDAsMCwwLDMzLjI1LDMyVjI4LjI1QTEuMjUsMS4yNSwwLDAsMCwzMiwyN1oiLz48Y2lyY2xlIGNsYXNzPSJjbHMtMiIgY3g9IjE4Ljg4IiBjeT0iMzAuMTMiIHI9IjAuNjMiLz48cmVjdCBjbGFzcz0iY2xzLTMiIHg9IjE0LjUiIHk9IjE0LjUiIHdpZHRoPSIyMCIgaGVpZ2h0PSIyMCIvPjxwYXRoIGNsYXNzPSJjbHMtMiIgZD0iTTI3LjYyLDIzLjI1YTEuODgsMS44OCwwLDAsMC0xLjI3LjUxbC0yLjUtMS41YTIuMywyLjMsMCwwLDAsMC0uMjYsMi4zLDIuMywwLDAsMCwwLS4yNmwyLjUtMS41YTEuODcsMS44NywwLDEsMC0uNi0xLjM2LDEuMDcsMS4wNywwLDAsMCwwLC4yNWwtMi41MSwxLjVBMS44NiwxLjg2LDAsMCwwLDIyLDIwLjEyYTEuODgsMS44OCwwLDAsMCwwLDMuNzYsMS44NiwxLjg2LDAsMCwwLDEuMjctLjUxbDIuNTEsMS41YTEuMDcsMS4wNywwLDAsMCwwLC4yNSwxLjg4LDEuODgsMCwxLDAsMS44Ny0xLjg3Wm0wLTVhLjYzLjYzLDAsMSwxLS42Mi42M0EuNjMuNjMsMCwwLDEsMjcuNjIsMTguMjVaTTIyLDIyLjYyYS42Mi42MiwwLDEsMSwuNjItLjYyQS42Mi42MiwwLDAsMSwyMiwyMi42MlptNS42MiwzLjEzYS42My42MywwLDEsMSwuNjMtLjYzQS42My42MywwLDAsMSwyNy42MiwyNS43NVoiLz48L3N2Zz4=;fontFamily=IBM Plex Sans;fontSource=fonts%2FIBMPlexSans-Regular.woff;fontSize=14;labelPosition=center;verticalLabelPosition=bottom;align=center;verticalAlign=top;spacingTop=-7;" parent="wEJ2j6Q2r-iuzvhcd4Nl-71" vertex="1">
          <mxGeometry width="39" height="39" as="geometry" />
        </mxCell>
        <UserObject placeholders="1" label="&lt;b style=&#39;font-weight:600&#39;&gt;%Primary-Label%&lt;/b&gt;&lt;br&gt;%Secondary-Text%" Badge-Text="" Icon-Name="folder--details" Primary-Label="Label" Secondary-Text="[Container: File Storage]&#xa;Description" id="_AgKB0M8dqoUZbRrFaeX-38">
          <mxCell style="shape=image;ibmType=nodel;ibmLayout=collapsed;strokeColor=#0f62fe;fillColor=none;html=1;metaEdit=1;fontFamily=IBM Plex Sans;fontSize=14;image=data:image/svg+xml,PHN2ZyBpZD0iTGF5ZXJfMSIgZGF0YS1uYW1lPSJMYXllciAxIiB4bWxucz0iaHR0cDovL3d3dy53My5vcmcvMjAwMC9zdmciIHZpZXdCb3g9IjAgMCA0OSA0OSI+PGRlZnM+PHN0eWxlPi5jbHMtMXtmaWxsOiMwZjYyZmU7fS5jbHMtMntmaWxsOiNmZmY7fS5jbHMtM3tmaWxsOm5vbmU7fTwvc3R5bGU+PC9kZWZzPjxyZWN0IGNsYXNzPSJjbHMtMSIgeD0iMC41IiB5PSIwLjUiIHdpZHRoPSI0OCIgaGVpZ2h0PSI0OCIgcng9IjgiLz48cGF0aCBjbGFzcz0iY2xzLTIiIGQ9Ik0zMiwyN0gzMC43NXYxLjI1SDMyVjMySDE3VjI4LjI1aDEuMjVWMjdIMTdhMS4yNSwxLjI1LDAsMCwwLTEuMjUsMS4yNVYzMkExLjI1LDEuMjUsMCwwLDAsMTcsMzMuMjVIMzJBMS4yNSwxLjI1LDAsMCwwLDMzLjI1LDMyVjI4LjI1QTEuMjUsMS4yNSwwLDAsMCwzMiwyN1oiLz48Y2lyY2xlIGNsYXNzPSJjbHMtMiIgY3g9IjE4Ljg4IiBjeT0iMzAuMTMiIHI9IjAuNjMiLz48cGF0aCBjbGFzcz0iY2xzLTIiIGQ9Ik0yOC42OSwxOS4wNmwtMy4xMi0zLjEzYS42Ny42NywwLDAsMC0uNDUtLjE4SDIxLjM4QTEuMjYsMS4yNiwwLDAsMCwyMC4xMiwxN1YyN2ExLjI2LDEuMjYsMCwwLDAsMS4yNiwxLjI1aDYuMjRBMS4yNiwxLjI2LDAsMCwwLDI4Ljg4LDI3VjE5LjVBLjYxLjYxLDAsMCwwLDI4LjY5LDE5LjA2Wm0tMS4zMi40NEgyNS4xMlYxNy4yNlptLTYsNy41VjE3aDIuNXYyLjVhMS4yNSwxLjI1LDAsMCwwLDEuMjQsMS4yNWgyLjVWMjdaIi8+PHJlY3QgY2xhc3M9ImNscy0zIiB4PSIxNC41IiB5PSIxNC41IiB3aWR0aD0iMjAiIGhlaWdodD0iMjAiLz48L3N2Zz4=;align=center;verticalAlign=top;labelPosition=center;verticalLabelPosition=bottom;spacing=0;spacingLeft=16;spacingRight=16;spacingTop=0;spacingBottom=4;" parent="1" vertex="1">
            <mxGeometry x="-224" y="500" width="48" height="48" as="geometry" />
          </mxCell>
        </UserObject>
        <UserObject placeholders="1" label="&lt;b style=&quot;font-weight:600&quot;&gt;%Primary-Label%&lt;/b&gt;&lt;br&gt;%Secondary-Text%" Badge-Text="" Icon-Name="object-storage--alt" Primary-Label="Label" Secondary-Text="[Container:File Storage ]&#xa;Description" id="_AgKB0M8dqoUZbRrFaeX-39">
          <mxCell style="shape=mxgraph.ibm.base;ibmType=nodel;ibmLayout=expanded;strokeColor=#0f62fe;fillColor=default;html=1;metaEdit=1;whiteSpace=wrap;fontFamily=IBM Plex Sans;fontSize=14;image=;align=center;verticalAlign=middle;labelPosition=center;verticalLabelPosition=middle;spacing=0;spacingLeft=9;spacingRight=16;spacingTop=7;spacingBottom=0;container=1;collapsible=0;expand=0;recursiveResize=0;" parent="1" vertex="1">
            <mxGeometry x="-350" y="620" width="300" height="70" as="geometry" />
          </mxCell>
        </UserObject>
        <mxCell id="wEJ2j6Q2r-iuzvhcd4Nl-87" value="" style="group" parent="_AgKB0M8dqoUZbRrFaeX-39" vertex="1" connectable="0">
          <mxGeometry x="-1" width="39" height="39" as="geometry" />
        </mxCell>
        <mxCell id="wEJ2j6Q2r-iuzvhcd4Nl-45" value="" style="whiteSpace=wrap;html=1;aspect=fixed;strokeColor=none;fillColor=#0F62FE;" parent="wEJ2j6Q2r-iuzvhcd4Nl-87" vertex="1">
          <mxGeometry width="39" height="39" as="geometry" />
        </mxCell>
        <mxCell id="wEJ2j6Q2r-iuzvhcd4Nl-86" value="" style="shape=image;aspect=fixed;image=data:image/svg+xml,PHN2ZyBpZD0iTGF5ZXJfMSIgZGF0YS1uYW1lPSJMYXllciAxIiB4bWxucz0iaHR0cDovL3d3dy53My5vcmcvMjAwMC9zdmciIHZpZXdCb3g9IjAgMCA0OSA0OSI+PGRlZnM+PHN0eWxlPi5jbHMtMXtmaWxsOiMwZjYyZmU7fS5jbHMtMntmaWxsOiNmZmY7fS5jbHMtM3tmaWxsOm5vbmU7fTwvc3R5bGU+PC9kZWZzPjxyZWN0IGNsYXNzPSJjbHMtMSIgeD0iMC41IiB5PSIwLjUiIHdpZHRoPSI0OCIgaGVpZ2h0PSI0OCIgcng9IjgiLz48cGF0aCBjbGFzcz0iY2xzLTIiIGQ9Ik0zMiwyN0gzMC43NXYxLjI1SDMyVjMySDE3VjI4LjI1aDEuMjVWMjdIMTdhMS4yNSwxLjI1LDAsMCwwLTEuMjUsMS4yNVYzMkExLjI1LDEuMjUsMCwwLDAsMTcsMzMuMjVIMzJBMS4yNSwxLjI1LDAsMCwwLDMzLjI1LDMyVjI4LjI1QTEuMjUsMS4yNSwwLDAsMCwzMiwyN1oiLz48Y2lyY2xlIGNsYXNzPSJjbHMtMiIgY3g9IjE4Ljg4IiBjeT0iMzAuMTMiIHI9IjAuNjMiLz48cGF0aCBjbGFzcz0iY2xzLTIiIGQ9Ik0yOC42OSwxOS4wNmwtMy4xMi0zLjEzYS42Ny42NywwLDAsMC0uNDUtLjE4SDIxLjM4QTEuMjYsMS4yNiwwLDAsMCwyMC4xMiwxN1YyN2ExLjI2LDEuMjYsMCwwLDAsMS4yNiwxLjI1aDYuMjRBMS4yNiwxLjI2LDAsMCwwLDI4Ljg4LDI3VjE5LjVBLjYxLjYxLDAsMCwwLDI4LjY5LDE5LjA2Wm0tMS4zMi40NEgyNS4xMlYxNy4yNlptLTYsNy41VjE3aDIuNXYyLjVhMS4yNSwxLjI1LDAsMCwwLDEuMjQsMS4yNWgyLjVWMjdaIi8+PHJlY3QgY2xhc3M9ImNscy0zIiB4PSIxNC41IiB5PSIxNC41IiB3aWR0aD0iMjAiIGhlaWdodD0iMjAiLz48L3N2Zz4=;fontFamily=IBM Plex Sans;fontSource=fonts%2FIBMPlexSans-Regular.woff;fontSize=14;labelPosition=center;verticalLabelPosition=bottom;align=center;verticalAlign=top;spacingTop=-7;" parent="wEJ2j6Q2r-iuzvhcd4Nl-87" vertex="1">
          <mxGeometry width="39" height="39" as="geometry" />
        </mxCell>
        <UserObject placeholders="1" label="&lt;b style=&#39;font-weight:600&#39;&gt;%Primary-Label%&lt;/b&gt;&lt;br&gt;%Secondary-Text%" Badge-Text="" Icon-Name="block-storage--alt" Primary-Label="Label" Secondary-Text="[Container:Block Storage]&#xa;Description" id="_AgKB0M8dqoUZbRrFaeX-40">
          <mxCell style="shape=image;ibmType=nodel;ibmLayout=collapsed;strokeColor=#0f62fe;fillColor=none;html=1;metaEdit=1;fontFamily=IBM Plex Sans;fontSize=14;image=data:image/svg+xml,PD94bWwgdmVyc2lvbj0iMS4wIiBlbmNvZGluZz0iVVRGLTgiPz4KPHN2ZyB3aWR0aD0iNDlweCIgaGVpZ2h0PSI0OXB4IiB2aWV3Qm94PSIwIDAgNDkgNDkiIHZlcnNpb249IjEuMSIgeG1sbnM9Imh0dHA6Ly93d3cudzMub3JnLzIwMDAvc3ZnIiB4bWxuczp4bGluaz0iaHR0cDovL3d3dy53My5vcmcvMTk5OS94bGluayI+CiAgICA8dGl0bGU+QmxvY2sgU3RvcmFnZSBBcHBsaWNhdGlvbiB2MiBJY29uPC90aXRsZT4KICAgIDxnIGlkPSJQYWdlLTEiIHN0cm9rZT0ibm9uZSIgc3Ryb2tlLXdpZHRoPSIxIiBmaWxsPSJub25lIiBmaWxsLXJ1bGU9ImV2ZW5vZGQiPgogICAgICAgIDxnIGlkPSJ2Mi00OHg0OCIgdHJhbnNmb3JtPSJ0cmFuc2xhdGUoLTIxMzkuMDAwMDAwLCAtNjA4LjAwMDAwMCkiPgogICAgICAgICAgICA8ZyBpZD0iQmxvY2stU3RvcmFnZS1BcHBsaWNhdGlvbi12Mi1JY29uIiB0cmFuc2Zvcm09InRyYW5zbGF0ZSgyMTM5LjUwMDAwMCwgNjA4LjE4Mjc2NSkiPgogICAgICAgICAgICAgICAgPGcgaWQ9IkNsb3VkLVBhay1EYXRhLXYyLUljb24iIGZpbGw9IiMwRjYyRkUiPgogICAgICAgICAgICAgICAgICAgIDxwb2x5Z29uIGlkPSJGaWxsLTQiIHBvaW50cz0iMCA0OCA0OCA0OCA0OCAwIDAgMCI+PC9wb2x5Z29uPgogICAgICAgICAgICAgICAgPC9nPgogICAgICAgICAgICAgICAgPGcgaWQ9ImJsb2NrLXN0b3JhZ2UiIHRyYW5zZm9ybT0idHJhbnNsYXRlKDguMDAwMDAwLCA4LjAwMDAwMCkiPgogICAgICAgICAgICAgICAgICAgIDxwYXRoIGQ9Ik05LDEyIEw5LDEwIEw0LDEwIEMyLjg5NTQzMDUsMTAgMiwxMC44OTU0MzA1IDIsMTIgTDIsMjggQzIsMjkuMTA0NTY5NSAyLjg5NTQzMDUsMzAgNCwzMCBMMjAsMzAgQzIxLjEwNDU2OTUsMzAgMjIsMjkuMTA0NTY5NSAyMiwyOCBMMjIsMTkgTDIwLDE5IEwyMCwyOCBMNCwyOCBMNCwxMiIgaWQ9IlBhdGgiIGZpbGw9IiNGRkZGRkYiIGZpbGwtcnVsZT0ibm9uemVybyI+PC9wYXRoPgogICAgICAgICAgICAgICAgICAgIDxwYXRoIGQ9Ik0yMiwxMiBMMTQsMTIgTDE0LDQgTDIyLDQgTDIyLDEyIFogTTEyLDQgTDEyLDEyIEMxMiwxMy4xMDQ1Njk1IDEyLjg5NTQzMDUsMTQgMTQsMTQgTDIyLDE0IEMyMy4xMDQ1Njk1LDE0IDI0LDEzLjEwNDU2OTUgMjQsMTIgTDI0LDQgQzI0LDIuODk1NDMwNSAyMy4xMDQ1Njk1LDIgMjIsMiBMMTQsMiBDMTIuODk1NDMwNSwyIDEyLDIuODk1NDMwNSAxMiw0IFoiIGlkPSJTaGFwZSIgZmlsbD0iI0ZGRkZGRiIgZmlsbC1ydWxlPSJub256ZXJvIj48L3BhdGg+CiAgICAgICAgICAgICAgICAgICAgPHBhdGggZD0iTTE0LDE4IEwxNCwyMiBMMTAsMjIgTDEwLDE4IEwxNCwxOCBNOCwxOCBMOCwyMiBDOCwyMy4xMDQ1Njk1IDguODk1NDMwNSwyNCAxMCwyNCBMMTQsMjQgQzE1LjEwNDU2OTUsMjQgMTYsMjMuMTA0NTY5NSAxNiwyMiBMMTYsMTggQzE2LDE2Ljg5NTQzMDUgMTUuMTA0NTY5NSwxNiAxNCwxNiBMMTAsMTYgQzguODk1NDMwNSwxNiA4LDE2Ljg5NTQzMDUgOCwxOCBaIiBpZD0iU2hhcGUiIGZpbGw9IiNGRkZGRkYiIGZpbGwtcnVsZT0ibm9uemVybyI+PC9wYXRoPgogICAgICAgICAgICAgICAgICAgIDxwYXRoIGQ9Ik0yOCwxNyBMMjgsMTkgTDI2LDE5IEwyNiwxNyBMMjgsMTcgTTI0LDE2IEwyNCwyMCBDMjQsMjAuNTUyMjg0NyAyNC40NDc3MTUzLDIxIDI1LDIxIEwyOSwyMSBDMjkuNTUyMjg0NywyMSAzMCwyMC41NTIyODQ3IDMwLDIwIEwzMCwxNiBDMzAsMTUuNDQ3NzE1MyAyOS41NTIyODQ3LDE1IDI5LDE1IEwyNSwxNSBDMjQuNDQ3NzE1MywxNSAyNCwxNS40NDc3MTUzIDI0LDE2IFoiIGlkPSJTaGFwZSIgZmlsbD0iI0ZGRkZGRiIgZmlsbC1ydWxlPSJub256ZXJvIj48L3BhdGg+CiAgICAgICAgICAgICAgICAgICAgPHJlY3QgaWQ9Il9UcmFuc3BhcmVudF9SZWN0YW5nbGVfIiB4PSIwIiB5PSIwIiB3aWR0aD0iMzIiIGhlaWdodD0iMzIiPjwvcmVjdD4KICAgICAgICAgICAgICAgIDwvZz4KICAgICAgICAgICAgPC9nPgogICAgICAgIDwvZz4KICAgIDwvZz4KPC9zdmc+;align=center;verticalAlign=top;labelPosition=center;verticalLabelPosition=bottom;spacing=0;spacingLeft=16;spacingRight=16;spacingTop=0;spacingBottom=4;" parent="1" vertex="1">
            <mxGeometry x="-1904" y="730" width="48" height="48" as="geometry" />
          </mxCell>
        </UserObject>
        <UserObject placeholders="1" label="&lt;b style=&#39;font-weight:600&#39;&gt;%Primary-Label%&lt;/b&gt;&lt;br&gt;%Secondary-Text%" Badge-Text="" Icon-Name="data-accessor" Primary-Label="Label" Secondary-Text="[Container:Accessor Node]&#xa;Description" id="_AgKB0M8dqoUZbRrFaeX-41">
          <mxCell style="shape=image;ibmType=nodep;ibmLayout=collapsed;strokeColor=#0f62fe;fillColor=none;html=1;metaEdit=1;fontFamily=IBM Plex Sans;fontSize=14;image=data:image/svg+xml,PHN2ZyBpZD0iTGF5ZXJfMSIgZGF0YS1uYW1lPSJMYXllciAxIiB4bWxucz0iaHR0cDovL3d3dy53My5vcmcvMjAwMC9zdmciIHZpZXdCb3g9IjAgMCA0OSA0OSI+PGRlZnM+PHN0eWxlPi5jbHMtMXtmaWxsOiMwZjYyZmU7fS5jbHMtMntmaWxsOiNmZmY7fS5jbHMtM3tmaWxsOm5vbmU7fTwvc3R5bGU+PC9kZWZzPjxyZWN0IGNsYXNzPSJjbHMtMSIgeD0iMC41IiB5PSIwLjUiIHdpZHRoPSI0OCIgaGVpZ2h0PSI0OCIvPjxwYXRoIGNsYXNzPSJjbHMtMiIgZD0iTTMyLDI3SDMwLjc1djEuMjVIMzJWMzJIMTdWMjguMjVoMS4yNVYyN0gxN2ExLjI1LDEuMjUsMCwwLDAtMS4yNSwxLjI1VjMyQTEuMjUsMS4yNSwwLDAsMCwxNywzMy4yNUgzMkExLjI1LDEuMjUsMCwwLDAsMzMuMjUsMzJWMjguMjVBMS4yNSwxLjI1LDAsMCwwLDMyLDI3WiIvPjxjaXJjbGUgY2xhc3M9ImNscy0yIiBjeD0iMTguODgiIGN5PSIzMC4xMyIgcj0iMC42MyIvPjxyZWN0IGNsYXNzPSJjbHMtMyIgeD0iMTQuNSIgeT0iMTQuNSIgd2lkdGg9IjIwIiBoZWlnaHQ9IjIwIi8+PHBhdGggY2xhc3M9ImNscy0yIiBkPSJNMjcuNjIsMjIuNjJhMiwyLDAsMCwwLS44LjE5bC0xLjQ0LTEuNDMsMS40NC0xLjQ0YTIsMiwwLDAsMCwuOC4xOCwxLjg3LDEuODcsMCwxLDAtMS44Ny0xLjg3LDEuNzgsMS43OCwwLDAsMCwuMTkuOEwyNC41LDIwLjQ5bC0xLjQ0LTEuNDRhMS43OCwxLjc4LDAsMCwwLC4xOS0uOCwxLjg4LDEuODgsMCwxLDAtMS44NywxLjg3LDIsMiwwLDAsMCwuOC0uMThsMS40NCwxLjQ0LTEuNDQsMS40M2EyLDIsMCwwLDAtLjgtLjE5LDEuODgsMS44OCwwLDEsMCwxLjg3LDEuODgsMS43OCwxLjc4LDAsMCwwLS4xOS0uOGwxLjQ0LTEuNDQsMS40NCwxLjQ0YTEuNzgsMS43OCwwLDAsMC0uMTkuOCwxLjg4LDEuODgsMCwxLDAsMS44Ny0xLjg4Wm0wLTVhLjYzLjYzLDAsMSwxLS42Mi42M0EuNjMuNjMsMCwwLDEsMjcuNjIsMTcuNjJabS02Ljg3LjYzYS42My42MywwLDEsMSwuNjMuNjNBLjYzLjYzLDAsMCwxLDIwLjc1LDE4LjI1Wm0uNjMsNi44N0EuNjIuNjIsMCwxLDEsMjIsMjQuNS42My42MywwLDAsMSwyMS4zOCwyNS4xMlptNi4yNCwwYS42Mi42MiwwLDEsMSwuNjMtLjYyQS42Mi42MiwwLDAsMSwyNy42MiwyNS4xMloiLz48L3N2Zz4=;align=center;verticalAlign=top;labelPosition=center;verticalLabelPosition=bottom;spacing=0;spacingLeft=16;spacingRight=16;spacingTop=0;spacingBottom=4;" parent="1" vertex="1">
            <mxGeometry x="-1568" y="730" width="48" height="48" as="geometry" />
          </mxCell>
        </UserObject>
        <UserObject placeholders="1" label="&lt;b style=&#39;font-weight:600&#39;&gt;%Primary-Label%&lt;/b&gt;&lt;br&gt;%Secondary-Text%" Badge-Text="" Icon-Name="slicestor" Primary-Label="Label" Secondary-Text="[Container:Slicestor Node]&#xa;Description" id="_AgKB0M8dqoUZbRrFaeX-42">
          <mxCell style="shape=image;ibmType=nodel;ibmLayout=collapsed;strokeColor=#0f62fe;fillColor=none;html=1;metaEdit=1;fontFamily=IBM Plex Sans;fontSize=14;image=data:image/svg+xml,PD94bWwgdmVyc2lvbj0iMS4wIiBlbmNvZGluZz0iVVRGLTgiPz4KPHN2ZyB3aWR0aD0iNDlweCIgaGVpZ2h0PSI0OXB4IiB2aWV3Qm94PSIwIDAgNDkgNDkiIHZlcnNpb249IjEuMSIgeG1sbnM9Imh0dHA6Ly93d3cudzMub3JnLzIwMDAvc3ZnIiB4bWxuczp4bGluaz0iaHR0cDovL3d3dy53My5vcmcvMTk5OS94bGluayI+CiAgICA8dGl0bGU+U3RvcmFnZSBTbGljZXNvcjwvdGl0bGU+CiAgICA8ZyBpZD0iUGFnZS0xIiBzdHJva2U9Im5vbmUiIHN0cm9rZS13aWR0aD0iMSIgZmlsbD0ibm9uZSIgZmlsbC1ydWxlPSJldmVub2RkIj4KICAgICAgICA8ZyBpZD0idjItNDh4NDgiIHRyYW5zZm9ybT0idHJhbnNsYXRlKC0yMjQ0LjAwMDAwMCwgLTQwMy4wMDAwMDApIj4KICAgICAgICAgICAgPGcgaWQ9IlN0b3JhZ2UtU2xpY2Vzb3IiIHRyYW5zZm9ybT0idHJhbnNsYXRlKDIyNDQuNTAwMDAwLCA0MDMuNTAwMDAwKSI+CiAgICAgICAgICAgICAgICA8cGF0aCBkPSJNOS4yNDA4MjIxOSw0OCBDNC4xNTgzODE3Myw0OCAwLDQzLjc1MTUyIDAsMzguNTU4ODggTDAsOS40NDExMiBDMCw0LjI0ODQ4IDQuMTU4MzgxNzMsMCA5LjI0MDgyMjE5LDAgTDM4Ljc1OTA5OTUsMCBDNDMuODQxNTQsMCA0OCw0LjI0ODQ4IDQ4LDkuNDQxMTIgTDQ4LDM4LjU1ODg4IEM0OCw0My43NTE1MiA0My44NDE1NCw0OCAzOC43NTkwOTk1LDQ4IEw5LjI0MDgyMjE5LDQ4IFoiIGlkPSJSZWN0YW5nbGUiIGZpbGw9IiMxMDYxRkUiPjwvcGF0aD4KICAgICAgICAgICAgICAgIDxnIGlkPSJzbGlzb3IoMSkiIHRyYW5zZm9ybT0idHJhbnNsYXRlKDguMDAwMDAwLCA4LjAwMDAwMCkiPgogICAgICAgICAgICAgICAgICAgIDxwYXRoIGQ9Ik0yOCwyMCBMMjYsMjAgTDI2LDIyIEwyOCwyMiBMMjgsMjggTDQsMjggTDQsMjIgTDYsMjIgTDYsMjAgTDQsMjAgQzIuODk1OTc4NzQsMjAuMDAxMzIyNCAyLjAwMTMyMjQ1LDIwLjg5NTk3ODcgMiwyMiBMMiwyOCBDMi4wMDEzMjI0NSwyOS4xMDQwMjEzIDIuODk1OTc4NzQsMjkuOTk4Njc3NiA0LDMwIEwyOCwzMCBDMjkuMTA0MDIxMywyOS45OTg2Nzc2IDI5Ljk5ODY3NzYsMjkuMTA0MDIxMyAzMCwyOCBMMzAsMjIgQzI5Ljk5ODY3NzYsMjAuODk1OTc4NyAyOS4xMDQwMjEzLDIwLjAwMTMyMjQgMjgsMjAgWiIgaWQ9IlBhdGgiIGZpbGw9IiNGRkZGRkYiIGZpbGwtcnVsZT0ibm9uemVybyI+PC9wYXRoPgogICAgICAgICAgICAgICAgICAgIDxjaXJjbGUgaWQ9Ik92YWwiIGZpbGw9IiNGRkZGRkYiIGZpbGwtcnVsZT0ibm9uemVybyIgY3g9IjciIGN5PSIyNSIgcj0iMSI+PC9jaXJjbGU+CiAgICAgICAgICAgICAgICAgICAgPHBhdGggZD0iTTE2LDIyIEMxNS44NDQ3MzM3LDIyIDE1LjY5MTU5MzksMjEuOTYzODk4MiAxNS41NTI3LDIxLjg5NDUgTDUuNTUyNywxNi44OTQ1IEw2LjQ0NzMsMTUuMTA1NSBMMTYsMTkuODgyMSBMMjUuNTUyNywxNS4xMDU1IEwyNi40NDczLDE2Ljg5NDUgTDE2LjQ0NzMsMjEuODk0NSBDMTYuMzA4NDA2MSwyMS45NjM4OTgyIDE2LjE1NTI2NjMsMjIgMTYsMjIgTDE2LDIyIFoiIGlkPSJQYXRoIiBmaWxsPSIjRkZGRkZGIiBmaWxsLXJ1bGU9Im5vbnplcm8iPjwvcGF0aD4KICAgICAgICAgICAgICAgICAgICA8cGF0aCBkPSJNMTYsMTYgQzE1Ljg0NDczMzcsMTYgMTUuNjkxNTkzOSwxNS45NjM4OTgyIDE1LjU1MjcsMTUuODk0NSBMNS41NTI3LDEwLjg5NDUgQzUuMjEzODM1OTIsMTAuNzI1MTM2OSA0Ljk5OTc2Nzk1LDEwLjM3ODgzMDcgNC45OTk3Njc5NSwxMCBDNC45OTk3Njc5NSw5LjYyMTE2OTI4IDUuMjEzODM1OTIsOS4yNzQ4NjMwNyA1LjU1MjcsOS4xMDU1IEwxNS41NTI3LDQuMTA1NSBDMTUuODM0MzA0NCwzLjk2NDgwNDQ5IDE2LjE2NTY5NTYsMy45NjQ4MDQ0OSAxNi40NDczLDQuMTA1NSBMMjYuNDQ3Myw5LjEwNTUgQzI2Ljc4NjE2NDEsOS4yNzQ4NjMwNyAyNy4wMDAyMzIxLDkuNjIxMTY5MjggMjcuMDAwMjMyMSwxMCBDMjcuMDAwMjMyMSwxMC4zNzg4MzA3IDI2Ljc4NjE2NDEsMTAuNzI1MTM2OSAyNi40NDczLDEwLjg5NDUgTDE2LjQ0NzMsMTUuODk0NSBDMTYuMzA4NDA2MSwxNS45NjM4OTgyIDE2LjE1NTI2NjMsMTYgMTYsMTYgWiBNOC4yMzU4LDEwIEwxNiwxMy44ODIxIEwyMy43NjQyLDEwIEwxNiw2LjExNzkgTDguMjM1OCwxMCBaIiBpZD0iU2hhcGUiIGZpbGw9IiNGRkZGRkYiIGZpbGwtcnVsZT0ibm9uemVybyI+PC9wYXRoPgogICAgICAgICAgICAgICAgICAgIDxyZWN0IGlkPSJfVHJhbnNwYXJlbnRfUmVjdGFuZ2xlXyIgeD0iMCIgeT0iMCIgd2lkdGg9IjMyIiBoZWlnaHQ9IjMyIj48L3JlY3Q+CiAgICAgICAgICAgICAgICA8L2c+CiAgICAgICAgICAgIDwvZz4KICAgICAgICA8L2c+CiAgICA8L2c+Cjwvc3ZnPg==;align=center;verticalAlign=top;labelPosition=center;verticalLabelPosition=bottom;spacing=0;spacingLeft=16;spacingRight=16;spacingTop=0;spacingBottom=4;" parent="1" vertex="1">
            <mxGeometry x="-1232" y="730" width="48" height="48" as="geometry" />
          </mxCell>
        </UserObject>
        <UserObject placeholders="1" label="&lt;b style=&#39;font-weight:600&#39;&gt;%Primary-Label%&lt;/b&gt;&lt;br&gt;%Secondary-Text%" Badge-Text="" Icon-Name="database--postgresql" Primary-Label="Label" Secondary-Text="[Container:PostreSQL]&#xa;Description" id="_AgKB0M8dqoUZbRrFaeX-43">
          <mxCell style="shape=image;ibmType=nodep;ibmLayout=collapsed;strokeColor=#0f62fe;fillColor=none;html=1;metaEdit=1;whiteSpace=wrap;fontFamily=IBM Plex Sans;fontSize=14;image=data:image/svg+xml,PHN2ZyBpZD0iTGF5ZXJfMSIgZGF0YS1uYW1lPSJMYXllciAxIiB4bWxucz0iaHR0cDovL3d3dy53My5vcmcvMjAwMC9zdmciIHZpZXdCb3g9IjAgMCA0OSA0OSI+PGRlZnM+PHN0eWxlPi5jbHMtMXtmaWxsOiMwZjYyZmU7fS5jbHMtMntmaWxsOm5vbmU7fS5jbHMtM3tmaWxsOiNmZmY7fTwvc3R5bGU+PC9kZWZzPjxyZWN0IGNsYXNzPSJjbHMtMSIgeD0iMC41IiB5PSIwLjUiIHdpZHRoPSI0OCIgaGVpZ2h0PSI0OCIvPjxyZWN0IGNsYXNzPSJjbHMtMiIgeD0iMTQuNSIgeT0iMTQuNSIgd2lkdGg9IjIwIiBoZWlnaHQ9IjIwIi8+PHBhdGggY2xhc3M9ImNscy0zIiBkPSJNMTcuMzgsMjkuNXYtMTBoNC41MWEyLjg0LDIuODQsMCwwLDEsMywzLjEsMi44NCwyLjg0LDAsMCwxLTMsMy4xMUgxOS4yN1YyOS41Wk0xOS4yNywyNGgyLjQ1QTEuMDYsMS4wNiwwLDAsMCwyMi45LDIyLjl2LS42NmExLDEsMCwwLDAtMS4xOC0xLjEySDE5LjI3WiIvPjxwYXRoIGNsYXNzPSJjbHMtMyIgZD0iTTI4Ljg2LDMyLjU1Yy0yLjUzLDAtMy40OS0uNjYtMy40OS0xLjc3YTEuMzksMS4zOSwwLDAsMSwxLjM0LTEuNDR2LS4xNmExLjIzLDEuMjMsMCwwLDEtMS0xLjI1YzAtLjc3LjY2LTEuMTYsMS4zOC0xLjMydi0uMDZhMi4yNiwyLjI2LDAsMCwxLTEuMzYtMi4xOGMwLTEuNTIsMS4wOC0yLjU0LDMuMS0yLjU0YTQuMTUsNC4xNSwwLDAsMSwxLjMxLjE4di0uMjRhMSwxLDAsMCwxLDEuMDYtMS4wOUgzMi40djEuNEgzMC44di4yMUEyLjI0LDIuMjQsMCwwLDEsMzIsMjQuMzdjMCwxLjUxLTEuMDcsMi41MS0zLjExLDIuNTFhNC40NCw0LjQ0LDAsMCwxLTEuMTUtLjEzLjc3Ljc3LDAsMCwwLS41My42OGMwLC4zNy4zMi41NiwxLC41NmgyYzEuODQsMCwyLjYzLjc5LDIuNjMsMi4xNEMzMi44LDMxLjcsMzEuNzQsMzIuNTUsMjguODYsMzIuNTVabS45NC0zSDI3LjI0YS45LjksMCwwLDAtLjM5Ljc3YzAsLjU4LjQzLjkyLDEuNTguOTJoLjkyYzEuMTksMCwxLjczLS4zLDEuNzMtLjkzUzMwLjczLDI5LjU5LDI5LjgsMjkuNTlabS40MS01LjExdi0uMjRjMC0uNzYtLjQ3LTEuMTUtMS4zNS0xLjE1cy0xLjM1LjM5LTEuMzUsMS4xNXYuMjRjMCwuNzUuNDgsMS4xNSwxLjM1LDEuMTVTMzAuMjEsMjUuMjMsMzAuMjEsMjQuNDhaIi8+PC9zdmc+;align=center;verticalAlign=top;labelPosition=center;verticalLabelPosition=bottom;spacing=0;spacingLeft=16;spacingRight=16;spacingTop=0;spacingBottom=4;" parent="1" vertex="1">
            <mxGeometry x="-896" y="730" width="48" height="48" as="geometry" />
          </mxCell>
        </UserObject>
        <UserObject placeholders="1" label="&lt;b style=&#39;font-weight:600&#39;&gt;%Primary-Label%&lt;/b&gt;&lt;br&gt;%Secondary-Text%" Badge-Text="" Icon-Name="database--enterprisedb" Primary-Label="Label" Secondary-Text="[Container:EnterpriseDB]&#xa;Description" id="_AgKB0M8dqoUZbRrFaeX-44">
          <mxCell style="shape=image;ibmType=nodep;ibmLayout=collapsed;strokeColor=#0f62fe;fillColor=none;html=1;metaEdit=1;whiteSpace=wrap;fontFamily=IBM Plex Sans;fontSize=14;image=data:image/svg+xml,PHN2ZyBpZD0iTGF5ZXJfMSIgZGF0YS1uYW1lPSJMYXllciAxIiB4bWxucz0iaHR0cDovL3d3dy53My5vcmcvMjAwMC9zdmciIHZpZXdCb3g9IjAgMCA0OSA0OSI+PGRlZnM+PHN0eWxlPi5jbHMtMXtmaWxsOiMwZjYyZmU7fS5jbHMtMntmaWxsOm5vbmU7fS5jbHMtM3tmaWxsOiNmZmY7fTwvc3R5bGU+PC9kZWZzPjxyZWN0IGNsYXNzPSJjbHMtMSIgeD0iMC41IiB5PSIwLjUiIHdpZHRoPSI0OCIgaGVpZ2h0PSI0OCIvPjxyZWN0IGNsYXNzPSJjbHMtMiIgeD0iMTQuNSIgeT0iMTQuNSIgd2lkdGg9IjIwIiBoZWlnaHQ9IjIwIi8+PHBhdGggY2xhc3M9ImNscy0zIiBkPSJNMTcuMTQsMjkuNXYtMTBoNi42MXYxLjY4SDE5djIuNDNIMjMuMnYxLjY4SDE5djIuNTZoNC43MVYyOS41WiIvPjxwYXRoIGNsYXNzPSJjbHMtMyIgZD0iTTI1LjY1LDI5LjVWMjJoMS44NHYxLjI1aC4wN2EyLjA3LDIuMDcsMCwwLDEsMi4xLTEuNDJjMS41NCwwLDIuNCwxLjA2LDIuNCwyLjkzVjI5LjVIMzAuMjJWMjQuOTRjMC0xLjA2LS4zNi0xLjYxLTEuMjQtMS42MXMtMS40OS40MS0xLjQ5LDEuMjF2NVoiLz48L3N2Zz4=;align=center;verticalAlign=top;labelPosition=center;verticalLabelPosition=bottom;spacing=0;spacingLeft=16;spacingRight=16;spacingTop=0;spacingBottom=4;" parent="1" vertex="1">
            <mxGeometry x="-560" y="730" width="48" height="48" as="geometry" />
          </mxCell>
        </UserObject>
        <UserObject placeholders="1" label="&lt;b style=&#39;font-weight:600&#39;&gt;%Primary-Label%&lt;/b&gt;&lt;br&gt;%Secondary-Text%" Badge-Text="" Icon-Name="database--datastax" Primary-Label="Label" Secondary-Text="[Container:DataStax]&#xa;Description" id="_AgKB0M8dqoUZbRrFaeX-45">
          <mxCell style="shape=image;ibmType=nodep;ibmLayout=collapsed;strokeColor=#0f62fe;fillColor=none;html=1;metaEdit=1;whiteSpace=wrap;fontFamily=IBM Plex Sans;fontSize=14;image=data:image/svg+xml,PHN2ZyBpZD0iTGF5ZXJfMSIgZGF0YS1uYW1lPSJMYXllciAxIiB4bWxucz0iaHR0cDovL3d3dy53My5vcmcvMjAwMC9zdmciIHZpZXdCb3g9IjAgMCA0OSA0OSI+PGRlZnM+PHN0eWxlPi5jbHMtMXtmaWxsOiMwZjYyZmU7fS5jbHMtMntmaWxsOm5vbmU7fS5jbHMtM3tmaWxsOiNmZmY7fTwvc3R5bGU+PC9kZWZzPjxyZWN0IGNsYXNzPSJjbHMtMSIgeD0iMC41IiB5PSIwLjUiIHdpZHRoPSI0OCIgaGVpZ2h0PSI0OCIvPjxyZWN0IGNsYXNzPSJjbHMtMiIgeD0iMTQuNSIgeT0iMTQuNSIgd2lkdGg9IjIwIiBoZWlnaHQ9IjIwIi8+PHBhdGggY2xhc3M9ImNscy0zIiBkPSJNMTcuMTQsMTkuNDdoMy42NWMyLjYyLDAsNC4zMywxLjY4LDQuMzMsNXMtMS43MSw1LTQuMzMsNUgxNy4xNFptMy42NSw4LjM1YzEuNDEsMCwyLjMxLS44NCwyLjMxLTIuNTVWMjMuNjljMC0xLjcxLS45LTIuNTQtMi4zMS0yLjU0SDE5djYuNjdaIi8+PHBhdGggY2xhc3M9ImNscy0zIiBkPSJNMjYuMjgsMjguMjksMjcuNCwyNy4yYTIuNjYsMi42NiwwLDAsMCwyLjA2LDFjLjg4LDAsMS4yNS0uMzMsMS4yNS0uODZzLS4yNi0uNzEtLjkyLS43OWwtLjc1LS4xYy0xLjYxLS4yLTIuNS0uOTEtMi41LTIuMjdzMS4xNC0yLjM3LDIuODUtMi4zN0EzLjYsMy42LDAsMCwxLDMyLjMyLDIzbC0xLjA4LDEuMDhhMi40NywyLjQ3LDAsMCwwLTEuOC0uOGMtLjc5LDAtMS4xMy4zMS0xLjEzLjc3cy4yNy43NCwxLC44NWwuNzYuMWMxLjY0LjIzLDIuNDMsMSwyLjQzLDIuMjEsMCwxLjQ2LTEuMjIsMi40Ni0zLjA5LDIuNDZBMy43OSwzLjc5LDAsMCwxLDI2LjI4LDI4LjI5WiIvPjwvc3ZnPg==;align=center;verticalAlign=top;labelPosition=center;verticalLabelPosition=bottom;spacing=0;spacingLeft=16;spacingRight=16;spacingTop=0;spacingBottom=4;" parent="1" vertex="1">
            <mxGeometry x="-224" y="730" width="48" height="48" as="geometry" />
          </mxCell>
        </UserObject>
        <UserObject placeholders="1" label="&lt;b style=&quot;font-weight:600&quot;&gt;%Primary-Label%&lt;/b&gt;&lt;br&gt;%Secondary-Text%" Badge-Text="" Icon-Name="block-storage--alt" Primary-Label="Label" Secondary-Text="[Container:Block Storage]&#xa;Description" id="_AgKB0M8dqoUZbRrFaeX-46">
          <mxCell style="shape=mxgraph.ibm.base;ibmType=nodel;ibmLayout=expanded;strokeColor=#0f62fe;fillColor=default;html=1;metaEdit=1;whiteSpace=wrap;fontFamily=IBM Plex Sans;fontSize=14;image=;align=center;verticalAlign=middle;labelPosition=center;verticalLabelPosition=middle;spacing=0;spacingLeft=9;spacingRight=16;spacingTop=7;spacingBottom=0;container=1;collapsible=0;expand=0;recursiveResize=0;" parent="1" vertex="1">
            <mxGeometry x="-2030" y="869" width="300" height="70" as="geometry" />
          </mxCell>
        </UserObject>
        <mxCell id="wEJ2j6Q2r-iuzvhcd4Nl-57" value="" style="shape=image;aspect=fixed;image=data:image/svg+xml,PD94bWwgdmVyc2lvbj0iMS4wIiBlbmNvZGluZz0iVVRGLTgiPz4KPHN2ZyB3aWR0aD0iNDlweCIgaGVpZ2h0PSI0OXB4IiB2aWV3Qm94PSIwIDAgNDkgNDkiIHZlcnNpb249IjEuMSIgeG1sbnM9Imh0dHA6Ly93d3cudzMub3JnLzIwMDAvc3ZnIiB4bWxuczp4bGluaz0iaHR0cDovL3d3dy53My5vcmcvMTk5OS94bGluayI+CiAgICA8dGl0bGU+QmxvY2sgU3RvcmFnZSBBcHBsaWNhdGlvbiB2MiBJY29uPC90aXRsZT4KICAgIDxnIGlkPSJQYWdlLTEiIHN0cm9rZT0ibm9uZSIgc3Ryb2tlLXdpZHRoPSIxIiBmaWxsPSJub25lIiBmaWxsLXJ1bGU9ImV2ZW5vZGQiPgogICAgICAgIDxnIGlkPSJ2Mi00OHg0OCIgdHJhbnNmb3JtPSJ0cmFuc2xhdGUoLTIxMzkuMDAwMDAwLCAtNjA4LjAwMDAwMCkiPgogICAgICAgICAgICA8ZyBpZD0iQmxvY2stU3RvcmFnZS1BcHBsaWNhdGlvbi12Mi1JY29uIiB0cmFuc2Zvcm09InRyYW5zbGF0ZSgyMTM5LjUwMDAwMCwgNjA4LjE4Mjc2NSkiPgogICAgICAgICAgICAgICAgPGcgaWQ9IkNsb3VkLVBhay1EYXRhLXYyLUljb24iIGZpbGw9IiMwRjYyRkUiPgogICAgICAgICAgICAgICAgICAgIDxwb2x5Z29uIGlkPSJGaWxsLTQiIHBvaW50cz0iMCA0OCA0OCA0OCA0OCAwIDAgMCI+PC9wb2x5Z29uPgogICAgICAgICAgICAgICAgPC9nPgogICAgICAgICAgICAgICAgPGcgaWQ9ImJsb2NrLXN0b3JhZ2UiIHRyYW5zZm9ybT0idHJhbnNsYXRlKDguMDAwMDAwLCA4LjAwMDAwMCkiPgogICAgICAgICAgICAgICAgICAgIDxwYXRoIGQ9Ik05LDEyIEw5LDEwIEw0LDEwIEMyLjg5NTQzMDUsMTAgMiwxMC44OTU0MzA1IDIsMTIgTDIsMjggQzIsMjkuMTA0NTY5NSAyLjg5NTQzMDUsMzAgNCwzMCBMMjAsMzAgQzIxLjEwNDU2OTUsMzAgMjIsMjkuMTA0NTY5NSAyMiwyOCBMMjIsMTkgTDIwLDE5IEwyMCwyOCBMNCwyOCBMNCwxMiIgaWQ9IlBhdGgiIGZpbGw9IiNGRkZGRkYiIGZpbGwtcnVsZT0ibm9uemVybyI+PC9wYXRoPgogICAgICAgICAgICAgICAgICAgIDxwYXRoIGQ9Ik0yMiwxMiBMMTQsMTIgTDE0LDQgTDIyLDQgTDIyLDEyIFogTTEyLDQgTDEyLDEyIEMxMiwxMy4xMDQ1Njk1IDEyLjg5NTQzMDUsMTQgMTQsMTQgTDIyLDE0IEMyMy4xMDQ1Njk1LDE0IDI0LDEzLjEwNDU2OTUgMjQsMTIgTDI0LDQgQzI0LDIuODk1NDMwNSAyMy4xMDQ1Njk1LDIgMjIsMiBMMTQsMiBDMTIuODk1NDMwNSwyIDEyLDIuODk1NDMwNSAxMiw0IFoiIGlkPSJTaGFwZSIgZmlsbD0iI0ZGRkZGRiIgZmlsbC1ydWxlPSJub256ZXJvIj48L3BhdGg+CiAgICAgICAgICAgICAgICAgICAgPHBhdGggZD0iTTE0LDE4IEwxNCwyMiBMMTAsMjIgTDEwLDE4IEwxNCwxOCBNOCwxOCBMOCwyMiBDOCwyMy4xMDQ1Njk1IDguODk1NDMwNSwyNCAxMCwyNCBMMTQsMjQgQzE1LjEwNDU2OTUsMjQgMTYsMjMuMTA0NTY5NSAxNiwyMiBMMTYsMTggQzE2LDE2Ljg5NTQzMDUgMTUuMTA0NTY5NSwxNiAxNCwxNiBMMTAsMTYgQzguODk1NDMwNSwxNiA4LDE2Ljg5NTQzMDUgOCwxOCBaIiBpZD0iU2hhcGUiIGZpbGw9IiNGRkZGRkYiIGZpbGwtcnVsZT0ibm9uemVybyI+PC9wYXRoPgogICAgICAgICAgICAgICAgICAgIDxwYXRoIGQ9Ik0yOCwxNyBMMjgsMTkgTDI2LDE5IEwyNiwxNyBMMjgsMTcgTTI0LDE2IEwyNCwyMCBDMjQsMjAuNTUyMjg0NyAyNC40NDc3MTUzLDIxIDI1LDIxIEwyOSwyMSBDMjkuNTUyMjg0NywyMSAzMCwyMC41NTIyODQ3IDMwLDIwIEwzMCwxNiBDMzAsMTUuNDQ3NzE1MyAyOS41NTIyODQ3LDE1IDI5LDE1IEwyNSwxNSBDMjQuNDQ3NzE1MywxNSAyNCwxNS40NDc3MTUzIDI0LDE2IFoiIGlkPSJTaGFwZSIgZmlsbD0iI0ZGRkZGRiIgZmlsbC1ydWxlPSJub256ZXJvIj48L3BhdGg+CiAgICAgICAgICAgICAgICAgICAgPHJlY3QgaWQ9Il9UcmFuc3BhcmVudF9SZWN0YW5nbGVfIiB4PSIwIiB5PSIwIiB3aWR0aD0iMzIiIGhlaWdodD0iMzIiPjwvcmVjdD4KICAgICAgICAgICAgICAgIDwvZz4KICAgICAgICAgICAgPC9nPgogICAgICAgIDwvZz4KICAgIDwvZz4KPC9zdmc+;fontFamily=IBM Plex Sans;fontSource=fonts%2FIBMPlexSans-Regular.woff;fontSize=14;labelPosition=center;verticalLabelPosition=bottom;align=center;verticalAlign=top;spacingTop=-8;" parent="_AgKB0M8dqoUZbRrFaeX-46" vertex="1">
          <mxGeometry width="39" height="39" as="geometry" />
        </mxCell>
        <UserObject placeholders="1" label="&lt;b style=&quot;font-weight:600&quot;&gt;%Primary-Label%&lt;/b&gt;&lt;br&gt;%Secondary-Text%" Badge-Text="" Icon-Name="data-accessor" Primary-Label="Label" Secondary-Text="[Container:Accessor Node]&#xa;Description" id="_AgKB0M8dqoUZbRrFaeX-47">
          <mxCell style="shape=mxgraph.ibm.base;ibmType=nodel;ibmLayout=expanded;strokeColor=#0f62fe;fillColor=default;html=1;metaEdit=1;whiteSpace=wrap;fontFamily=IBM Plex Sans;fontSize=14;image=;align=center;verticalAlign=middle;labelPosition=center;verticalLabelPosition=middle;spacing=0;spacingLeft=9;spacingRight=16;spacingTop=7;spacingBottom=0;container=1;collapsible=0;expand=0;recursiveResize=0;" parent="1" vertex="1">
            <mxGeometry x="-1694" y="869" width="300" height="70" as="geometry" />
          </mxCell>
        </UserObject>
        <mxCell id="wEJ2j6Q2r-iuzvhcd4Nl-72" value="" style="shape=image;aspect=fixed;image=data:image/svg+xml,PHN2ZyBpZD0iTGF5ZXJfMSIgZGF0YS1uYW1lPSJMYXllciAxIiB4bWxucz0iaHR0cDovL3d3dy53My5vcmcvMjAwMC9zdmciIHZpZXdCb3g9IjAgMCA0OSA0OSI+PGRlZnM+PHN0eWxlPi5jbHMtMXtmaWxsOiMwZjYyZmU7fS5jbHMtMntmaWxsOiNmZmY7fS5jbHMtM3tmaWxsOm5vbmU7fTwvc3R5bGU+PC9kZWZzPjxyZWN0IGNsYXNzPSJjbHMtMSIgeD0iMC41IiB5PSIwLjUiIHdpZHRoPSI0OCIgaGVpZ2h0PSI0OCIvPjxwYXRoIGNsYXNzPSJjbHMtMiIgZD0iTTMyLDI3SDMwLjc1djEuMjVIMzJWMzJIMTdWMjguMjVoMS4yNVYyN0gxN2ExLjI1LDEuMjUsMCwwLDAtMS4yNSwxLjI1VjMyQTEuMjUsMS4yNSwwLDAsMCwxNywzMy4yNUgzMkExLjI1LDEuMjUsMCwwLDAsMzMuMjUsMzJWMjguMjVBMS4yNSwxLjI1LDAsMCwwLDMyLDI3WiIvPjxjaXJjbGUgY2xhc3M9ImNscy0yIiBjeD0iMTguODgiIGN5PSIzMC4xMyIgcj0iMC42MyIvPjxyZWN0IGNsYXNzPSJjbHMtMyIgeD0iMTQuNSIgeT0iMTQuNSIgd2lkdGg9IjIwIiBoZWlnaHQ9IjIwIi8+PHBhdGggY2xhc3M9ImNscy0yIiBkPSJNMjcuNjIsMjIuNjJhMiwyLDAsMCwwLS44LjE5bC0xLjQ0LTEuNDMsMS40NC0xLjQ0YTIsMiwwLDAsMCwuOC4xOCwxLjg3LDEuODcsMCwxLDAtMS44Ny0xLjg3LDEuNzgsMS43OCwwLDAsMCwuMTkuOEwyNC41LDIwLjQ5bC0xLjQ0LTEuNDRhMS43OCwxLjc4LDAsMCwwLC4xOS0uOCwxLjg4LDEuODgsMCwxLDAtMS44NywxLjg3LDIsMiwwLDAsMCwuOC0uMThsMS40NCwxLjQ0LTEuNDQsMS40M2EyLDIsMCwwLDAtLjgtLjE5LDEuODgsMS44OCwwLDEsMCwxLjg3LDEuODgsMS43OCwxLjc4LDAsMCwwLS4xOS0uOGwxLjQ0LTEuNDQsMS40NCwxLjQ0YTEuNzgsMS43OCwwLDAsMC0uMTkuOCwxLjg4LDEuODgsMCwxLDAsMS44Ny0xLjg4Wm0wLTVhLjYzLjYzLDAsMSwxLS42Mi42M0EuNjMuNjMsMCwwLDEsMjcuNjIsMTcuNjJabS02Ljg3LjYzYS42My42MywwLDEsMSwuNjMuNjNBLjYzLjYzLDAsMCwxLDIwLjc1LDE4LjI1Wm0uNjMsNi44N0EuNjIuNjIsMCwxLDEsMjIsMjQuNS42My42MywwLDAsMSwyMS4zOCwyNS4xMlptNi4yNCwwYS42Mi42MiwwLDEsMSwuNjMtLjYyQS42Mi42MiwwLDAsMSwyNy42MiwyNS4xMloiLz48L3N2Zz4=;fontFamily=IBM Plex Sans;fontSource=fonts%2FIBMPlexSans-Regular.woff;fontSize=14;labelPosition=center;verticalLabelPosition=bottom;align=center;verticalAlign=top;spacingTop=-6;" parent="_AgKB0M8dqoUZbRrFaeX-47" vertex="1">
          <mxGeometry y="1" width="39" height="39" as="geometry" />
        </mxCell>
        <UserObject placeholders="1" label="&lt;b style=&quot;font-weight:600&quot;&gt;%Primary-Label%&lt;/b&gt;&lt;br&gt;%Secondary-Text%" Badge-Text="" Icon-Name="slicestor" Primary-Label="Label" Secondary-Text="[Container:Slicestor Node]&#xa;Description" id="_AgKB0M8dqoUZbRrFaeX-48">
          <mxCell style="shape=mxgraph.ibm.base;ibmType=nodel;ibmLayout=expanded;strokeColor=#0f62fe;fillColor=default;html=1;metaEdit=1;whiteSpace=wrap;fontFamily=IBM Plex Sans;fontSize=14;image=;align=center;verticalAlign=middle;labelPosition=center;verticalLabelPosition=middle;spacing=0;spacingLeft=9;spacingRight=16;spacingTop=7;spacingBottom=0;container=1;collapsible=0;expand=0;recursiveResize=0;" parent="1" vertex="1">
            <mxGeometry x="-1358" y="869" width="300" height="70" as="geometry" />
          </mxCell>
        </UserObject>
        <mxCell id="wEJ2j6Q2r-iuzvhcd4Nl-75" value="" style="group" parent="_AgKB0M8dqoUZbRrFaeX-48" vertex="1" connectable="0">
          <mxGeometry x="-1" y="1" width="39" height="39" as="geometry" />
        </mxCell>
        <mxCell id="wEJ2j6Q2r-iuzvhcd4Nl-74" value="" style="whiteSpace=wrap;html=1;aspect=fixed;strokeColor=none;fillColor=#0F62FE;" parent="wEJ2j6Q2r-iuzvhcd4Nl-75" vertex="1">
          <mxGeometry width="39" height="39" as="geometry" />
        </mxCell>
        <mxCell id="wEJ2j6Q2r-iuzvhcd4Nl-73" value="" style="shape=image;aspect=fixed;image=data:image/svg+xml,PD94bWwgdmVyc2lvbj0iMS4wIiBlbmNvZGluZz0iVVRGLTgiPz4KPHN2ZyB3aWR0aD0iNDlweCIgaGVpZ2h0PSI0OXB4IiB2aWV3Qm94PSIwIDAgNDkgNDkiIHZlcnNpb249IjEuMSIgeG1sbnM9Imh0dHA6Ly93d3cudzMub3JnLzIwMDAvc3ZnIiB4bWxuczp4bGluaz0iaHR0cDovL3d3dy53My5vcmcvMTk5OS94bGluayI+CiAgICA8dGl0bGU+U3RvcmFnZSBTbGljZXNvcjwvdGl0bGU+CiAgICA8ZyBpZD0iUGFnZS0xIiBzdHJva2U9Im5vbmUiIHN0cm9rZS13aWR0aD0iMSIgZmlsbD0ibm9uZSIgZmlsbC1ydWxlPSJldmVub2RkIj4KICAgICAgICA8ZyBpZD0idjItNDh4NDgiIHRyYW5zZm9ybT0idHJhbnNsYXRlKC0yMjQ0LjAwMDAwMCwgLTQwMy4wMDAwMDApIj4KICAgICAgICAgICAgPGcgaWQ9IlN0b3JhZ2UtU2xpY2Vzb3IiIHRyYW5zZm9ybT0idHJhbnNsYXRlKDIyNDQuNTAwMDAwLCA0MDMuNTAwMDAwKSI+CiAgICAgICAgICAgICAgICA8cGF0aCBkPSJNOS4yNDA4MjIxOSw0OCBDNC4xNTgzODE3Myw0OCAwLDQzLjc1MTUyIDAsMzguNTU4ODggTDAsOS40NDExMiBDMCw0LjI0ODQ4IDQuMTU4MzgxNzMsMCA5LjI0MDgyMjE5LDAgTDM4Ljc1OTA5OTUsMCBDNDMuODQxNTQsMCA0OCw0LjI0ODQ4IDQ4LDkuNDQxMTIgTDQ4LDM4LjU1ODg4IEM0OCw0My43NTE1MiA0My44NDE1NCw0OCAzOC43NTkwOTk1LDQ4IEw5LjI0MDgyMjE5LDQ4IFoiIGlkPSJSZWN0YW5nbGUiIGZpbGw9IiMxMDYxRkUiPjwvcGF0aD4KICAgICAgICAgICAgICAgIDxnIGlkPSJzbGlzb3IoMSkiIHRyYW5zZm9ybT0idHJhbnNsYXRlKDguMDAwMDAwLCA4LjAwMDAwMCkiPgogICAgICAgICAgICAgICAgICAgIDxwYXRoIGQ9Ik0yOCwyMCBMMjYsMjAgTDI2LDIyIEwyOCwyMiBMMjgsMjggTDQsMjggTDQsMjIgTDYsMjIgTDYsMjAgTDQsMjAgQzIuODk1OTc4NzQsMjAuMDAxMzIyNCAyLjAwMTMyMjQ1LDIwLjg5NTk3ODcgMiwyMiBMMiwyOCBDMi4wMDEzMjI0NSwyOS4xMDQwMjEzIDIuODk1OTc4NzQsMjkuOTk4Njc3NiA0LDMwIEwyOCwzMCBDMjkuMTA0MDIxMywyOS45OTg2Nzc2IDI5Ljk5ODY3NzYsMjkuMTA0MDIxMyAzMCwyOCBMMzAsMjIgQzI5Ljk5ODY3NzYsMjAuODk1OTc4NyAyOS4xMDQwMjEzLDIwLjAwMTMyMjQgMjgsMjAgWiIgaWQ9IlBhdGgiIGZpbGw9IiNGRkZGRkYiIGZpbGwtcnVsZT0ibm9uemVybyI+PC9wYXRoPgogICAgICAgICAgICAgICAgICAgIDxjaXJjbGUgaWQ9Ik92YWwiIGZpbGw9IiNGRkZGRkYiIGZpbGwtcnVsZT0ibm9uemVybyIgY3g9IjciIGN5PSIyNSIgcj0iMSI+PC9jaXJjbGU+CiAgICAgICAgICAgICAgICAgICAgPHBhdGggZD0iTTE2LDIyIEMxNS44NDQ3MzM3LDIyIDE1LjY5MTU5MzksMjEuOTYzODk4MiAxNS41NTI3LDIxLjg5NDUgTDUuNTUyNywxNi44OTQ1IEw2LjQ0NzMsMTUuMTA1NSBMMTYsMTkuODgyMSBMMjUuNTUyNywxNS4xMDU1IEwyNi40NDczLDE2Ljg5NDUgTDE2LjQ0NzMsMjEuODk0NSBDMTYuMzA4NDA2MSwyMS45NjM4OTgyIDE2LjE1NTI2NjMsMjIgMTYsMjIgTDE2LDIyIFoiIGlkPSJQYXRoIiBmaWxsPSIjRkZGRkZGIiBmaWxsLXJ1bGU9Im5vbnplcm8iPjwvcGF0aD4KICAgICAgICAgICAgICAgICAgICA8cGF0aCBkPSJNMTYsMTYgQzE1Ljg0NDczMzcsMTYgMTUuNjkxNTkzOSwxNS45NjM4OTgyIDE1LjU1MjcsMTUuODk0NSBMNS41NTI3LDEwLjg5NDUgQzUuMjEzODM1OTIsMTAuNzI1MTM2OSA0Ljk5OTc2Nzk1LDEwLjM3ODgzMDcgNC45OTk3Njc5NSwxMCBDNC45OTk3Njc5NSw5LjYyMTE2OTI4IDUuMjEzODM1OTIsOS4yNzQ4NjMwNyA1LjU1MjcsOS4xMDU1IEwxNS41NTI3LDQuMTA1NSBDMTUuODM0MzA0NCwzLjk2NDgwNDQ5IDE2LjE2NTY5NTYsMy45NjQ4MDQ0OSAxNi40NDczLDQuMTA1NSBMMjYuNDQ3Myw5LjEwNTUgQzI2Ljc4NjE2NDEsOS4yNzQ4NjMwNyAyNy4wMDAyMzIxLDkuNjIxMTY5MjggMjcuMDAwMjMyMSwxMCBDMjcuMDAwMjMyMSwxMC4zNzg4MzA3IDI2Ljc4NjE2NDEsMTAuNzI1MTM2OSAyNi40NDczLDEwLjg5NDUgTDE2LjQ0NzMsMTUuODk0NSBDMTYuMzA4NDA2MSwxNS45NjM4OTgyIDE2LjE1NTI2NjMsMTYgMTYsMTYgWiBNOC4yMzU4LDEwIEwxNiwxMy44ODIxIEwyMy43NjQyLDEwIEwxNiw2LjExNzkgTDguMjM1OCwxMCBaIiBpZD0iU2hhcGUiIGZpbGw9IiNGRkZGRkYiIGZpbGwtcnVsZT0ibm9uemVybyI+PC9wYXRoPgogICAgICAgICAgICAgICAgICAgIDxyZWN0IGlkPSJfVHJhbnNwYXJlbnRfUmVjdGFuZ2xlXyIgeD0iMCIgeT0iMCIgd2lkdGg9IjMyIiBoZWlnaHQ9IjMyIj48L3JlY3Q+CiAgICAgICAgICAgICAgICA8L2c+CiAgICAgICAgICAgIDwvZz4KICAgICAgICA8L2c+CiAgICA8L2c+Cjwvc3ZnPg==;fontFamily=IBM Plex Sans;fontSource=fonts%2FIBMPlexSans-Regular.woff;labelPosition=center;verticalLabelPosition=bottom;align=center;verticalAlign=top;fontSize=14;spacingTop=-7;" parent="wEJ2j6Q2r-iuzvhcd4Nl-75" vertex="1">
          <mxGeometry width="39" height="39" as="geometry" />
        </mxCell>
        <UserObject placeholders="1" label="&lt;b style=&quot;font-weight:600&quot;&gt;%Primary-Label%&lt;/b&gt;&lt;br&gt;%Secondary-Text%" Badge-Text="" Icon-Name="database--postgresql" Primary-Label="Label" Secondary-Text="[Container:PostreSQL]&#xa;Description" id="_AgKB0M8dqoUZbRrFaeX-49">
          <mxCell style="shape=mxgraph.ibm.base;ibmType=nodel;ibmLayout=expanded;strokeColor=#0f62fe;fillColor=default;html=1;metaEdit=1;whiteSpace=wrap;fontFamily=IBM Plex Sans;fontSize=14;image=;align=center;verticalAlign=middle;labelPosition=center;verticalLabelPosition=middle;spacing=0;spacingLeft=9;spacingRight=16;spacingTop=7;spacingBottom=0;container=1;collapsible=0;expand=0;recursiveResize=0;" parent="1" vertex="1">
            <mxGeometry x="-1022" y="869" width="300" height="70" as="geometry" />
          </mxCell>
        </UserObject>
        <mxCell id="wEJ2j6Q2r-iuzvhcd4Nl-84" value="" style="shape=image;aspect=fixed;image=data:image/svg+xml,PHN2ZyBpZD0iTGF5ZXJfMSIgZGF0YS1uYW1lPSJMYXllciAxIiB4bWxucz0iaHR0cDovL3d3dy53My5vcmcvMjAwMC9zdmciIHZpZXdCb3g9IjAgMCA0OSA0OSI+PGRlZnM+PHN0eWxlPi5jbHMtMXtmaWxsOiMwZjYyZmU7fS5jbHMtMntmaWxsOm5vbmU7fS5jbHMtM3tmaWxsOiNmZmY7fTwvc3R5bGU+PC9kZWZzPjxyZWN0IGNsYXNzPSJjbHMtMSIgeD0iMC41IiB5PSIwLjUiIHdpZHRoPSI0OCIgaGVpZ2h0PSI0OCIvPjxyZWN0IGNsYXNzPSJjbHMtMiIgeD0iMTQuNSIgeT0iMTQuNSIgd2lkdGg9IjIwIiBoZWlnaHQ9IjIwIi8+PHBhdGggY2xhc3M9ImNscy0zIiBkPSJNMTcuMzgsMjkuNXYtMTBoNC41MWEyLjg0LDIuODQsMCwwLDEsMywzLjEsMi44NCwyLjg0LDAsMCwxLTMsMy4xMUgxOS4yN1YyOS41Wk0xOS4yNywyNGgyLjQ1QTEuMDYsMS4wNiwwLDAsMCwyMi45LDIyLjl2LS42NmExLDEsMCwwLDAtMS4xOC0xLjEySDE5LjI3WiIvPjxwYXRoIGNsYXNzPSJjbHMtMyIgZD0iTTI4Ljg2LDMyLjU1Yy0yLjUzLDAtMy40OS0uNjYtMy40OS0xLjc3YTEuMzksMS4zOSwwLDAsMSwxLjM0LTEuNDR2LS4xNmExLjIzLDEuMjMsMCwwLDEtMS0xLjI1YzAtLjc3LjY2LTEuMTYsMS4zOC0xLjMydi0uMDZhMi4yNiwyLjI2LDAsMCwxLTEuMzYtMi4xOGMwLTEuNTIsMS4wOC0yLjU0LDMuMS0yLjU0YTQuMTUsNC4xNSwwLDAsMSwxLjMxLjE4di0uMjRhMSwxLDAsMCwxLDEuMDYtMS4wOUgzMi40djEuNEgzMC44di4yMUEyLjI0LDIuMjQsMCwwLDEsMzIsMjQuMzdjMCwxLjUxLTEuMDcsMi41MS0zLjExLDIuNTFhNC40NCw0LjQ0LDAsMCwxLTEuMTUtLjEzLjc3Ljc3LDAsMCwwLS41My42OGMwLC4zNy4zMi41NiwxLC41NmgyYzEuODQsMCwyLjYzLjc5LDIuNjMsMi4xNEMzMi44LDMxLjcsMzEuNzQsMzIuNTUsMjguODYsMzIuNTVabS45NC0zSDI3LjI0YS45LjksMCwwLDAtLjM5Ljc3YzAsLjU4LjQzLjkyLDEuNTguOTJoLjkyYzEuMTksMCwxLjczLS4zLDEuNzMtLjkzUzMwLjczLDI5LjU5LDI5LjgsMjkuNTlabS40MS01LjExdi0uMjRjMC0uNzYtLjQ3LTEuMTUtMS4zNS0xLjE1cy0xLjM1LjM5LTEuMzUsMS4xNXYuMjRjMCwuNzUuNDgsMS4xNSwxLjM1LDEuMTVTMzAuMjEsMjUuMjMsMzAuMjEsMjQuNDhaIi8+PC9zdmc+;fontFamily=IBM Plex Sans;fontSource=fonts%2FIBMPlexSans-Regular.woff;fontSize=14;labelPosition=center;verticalLabelPosition=bottom;align=center;verticalAlign=top;spacingTop=-7;" parent="_AgKB0M8dqoUZbRrFaeX-49" vertex="1">
          <mxGeometry y="-1" width="39" height="39" as="geometry" />
        </mxCell>
        <UserObject placeholders="1" label="&lt;b style=&quot;font-weight:600&quot;&gt;%Primary-Label%&lt;/b&gt;&lt;br&gt;%Secondary-Text%" Badge-Text="" Icon-Name="database--postgresql" Primary-Label="Label" Secondary-Text="[Container:EnterpriseDB]&#xa;Description" id="_AgKB0M8dqoUZbRrFaeX-50">
          <mxCell style="shape=mxgraph.ibm.base;ibmType=nodel;ibmLayout=expanded;strokeColor=#0f62fe;fillColor=default;html=1;metaEdit=1;whiteSpace=wrap;fontFamily=IBM Plex Sans;fontSize=14;image=;align=center;verticalAlign=middle;labelPosition=center;verticalLabelPosition=middle;spacing=0;spacingLeft=9;spacingRight=16;spacingTop=7;spacingBottom=0;container=1;collapsible=0;expand=0;recursiveResize=0;" parent="1" vertex="1">
            <mxGeometry x="-686" y="869" width="300" height="70" as="geometry" />
          </mxCell>
        </UserObject>
        <mxCell id="wEJ2j6Q2r-iuzvhcd4Nl-83" value="" style="shape=image;aspect=fixed;image=data:image/svg+xml,PHN2ZyBpZD0iTGF5ZXJfMSIgZGF0YS1uYW1lPSJMYXllciAxIiB4bWxucz0iaHR0cDovL3d3dy53My5vcmcvMjAwMC9zdmciIHZpZXdCb3g9IjAgMCA0OSA0OSI+PGRlZnM+PHN0eWxlPi5jbHMtMXtmaWxsOiMwZjYyZmU7fS5jbHMtMntmaWxsOm5vbmU7fS5jbHMtM3tmaWxsOiNmZmY7fTwvc3R5bGU+PC9kZWZzPjxyZWN0IGNsYXNzPSJjbHMtMSIgeD0iMC41IiB5PSIwLjUiIHdpZHRoPSI0OCIgaGVpZ2h0PSI0OCIvPjxyZWN0IGNsYXNzPSJjbHMtMiIgeD0iMTQuNSIgeT0iMTQuNSIgd2lkdGg9IjIwIiBoZWlnaHQ9IjIwIi8+PHBhdGggY2xhc3M9ImNscy0zIiBkPSJNMTcuMTQsMjkuNXYtMTBoNi42MXYxLjY4SDE5djIuNDNIMjMuMnYxLjY4SDE5djIuNTZoNC43MVYyOS41WiIvPjxwYXRoIGNsYXNzPSJjbHMtMyIgZD0iTTI1LjY1LDI5LjVWMjJoMS44NHYxLjI1aC4wN2EyLjA3LDIuMDcsMCwwLDEsMi4xLTEuNDJjMS41NCwwLDIuNCwxLjA2LDIuNCwyLjkzVjI5LjVIMzAuMjJWMjQuOTRjMC0xLjA2LS4zNi0xLjYxLTEuMjQtMS42MXMtMS40OS40MS0xLjQ5LDEuMjF2NVoiLz48L3N2Zz4=;fontFamily=IBM Plex Sans;fontSource=fonts%2FIBMPlexSans-Regular.woff;fontSize=14;labelPosition=center;verticalLabelPosition=bottom;align=center;verticalAlign=top;spacingTop=-7;" parent="_AgKB0M8dqoUZbRrFaeX-50" vertex="1">
          <mxGeometry x="-1" y="1" width="39" height="39" as="geometry" />
        </mxCell>
        <UserObject placeholders="1" label="&lt;b style=&quot;font-weight:600&quot;&gt;%Primary-Label%&lt;/b&gt;&lt;br&gt;%Secondary-Text%" Badge-Text="" Icon-Name="database--datastax" Primary-Label="Label" Secondary-Text="[Container:DataStax]&#xa;Description" id="_AgKB0M8dqoUZbRrFaeX-51">
          <mxCell style="shape=mxgraph.ibm.base;ibmType=nodel;ibmLayout=expanded;strokeColor=#0f62fe;fillColor=default;html=1;metaEdit=1;whiteSpace=wrap;fontFamily=IBM Plex Sans;fontSize=14;image=;align=center;verticalAlign=middle;labelPosition=center;verticalLabelPosition=middle;spacing=0;spacingLeft=9;spacingRight=16;spacingTop=7;spacingBottom=0;container=1;collapsible=0;expand=0;recursiveResize=0;" parent="1" vertex="1">
            <mxGeometry x="-350" y="869" width="300" height="70" as="geometry" />
          </mxCell>
        </UserObject>
        <mxCell id="wEJ2j6Q2r-iuzvhcd4Nl-81" value="" style="shape=image;aspect=fixed;image=data:image/svg+xml,PHN2ZyBpZD0iTGF5ZXJfMSIgZGF0YS1uYW1lPSJMYXllciAxIiB4bWxucz0iaHR0cDovL3d3dy53My5vcmcvMjAwMC9zdmciIHZpZXdCb3g9IjAgMCA0OSA0OSI+PGRlZnM+PHN0eWxlPi5jbHMtMXtmaWxsOiMwZjYyZmU7fS5jbHMtMntmaWxsOm5vbmU7fS5jbHMtM3tmaWxsOiNmZmY7fTwvc3R5bGU+PC9kZWZzPjxyZWN0IGNsYXNzPSJjbHMtMSIgeD0iMC41IiB5PSIwLjUiIHdpZHRoPSI0OCIgaGVpZ2h0PSI0OCIvPjxyZWN0IGNsYXNzPSJjbHMtMiIgeD0iMTQuNSIgeT0iMTQuNSIgd2lkdGg9IjIwIiBoZWlnaHQ9IjIwIi8+PHBhdGggY2xhc3M9ImNscy0zIiBkPSJNMTcuMTQsMTkuNDdoMy42NWMyLjYyLDAsNC4zMywxLjY4LDQuMzMsNXMtMS43MSw1LTQuMzMsNUgxNy4xNFptMy42NSw4LjM1YzEuNDEsMCwyLjMxLS44NCwyLjMxLTIuNTVWMjMuNjljMC0xLjcxLS45LTIuNTQtMi4zMS0yLjU0SDE5djYuNjdaIi8+PHBhdGggY2xhc3M9ImNscy0zIiBkPSJNMjYuMjgsMjguMjksMjcuNCwyNy4yYTIuNjYsMi42NiwwLDAsMCwyLjA2LDFjLjg4LDAsMS4yNS0uMzMsMS4yNS0uODZzLS4yNi0uNzEtLjkyLS43OWwtLjc1LS4xYy0xLjYxLS4yLTIuNS0uOTEtMi41LTIuMjdzMS4xNC0yLjM3LDIuODUtMi4zN0EzLjYsMy42LDAsMCwxLDMyLjMyLDIzbC0xLjA4LDEuMDhhMi40NywyLjQ3LDAsMCwwLTEuOC0uOGMtLjc5LDAtMS4xMy4zMS0xLjEzLjc3cy4yNy43NCwxLC44NWwuNzYuMWMxLjY0LjIzLDIuNDMsMSwyLjQzLDIuMjEsMCwxLjQ2LTEuMjIsMi40Ni0zLjA5LDIuNDZBMy43OSwzLjc5LDAsMCwxLDI2LjI4LDI4LjI5WiIvPjwvc3ZnPg==;fontFamily=IBM Plex Sans;fontSource=fonts%2FIBMPlexSans-Regular.woff;fontSize=14;labelPosition=center;verticalLabelPosition=bottom;align=center;verticalAlign=top;spacingTop=-7;" parent="_AgKB0M8dqoUZbRrFaeX-51" vertex="1">
          <mxGeometry y="-1" width="39" height="39" as="geometry" />
        </mxCell>
        <UserObject placeholders="1" label="&lt;b style=&#39;font-weight:600&#39;&gt;%Primary-Label%&lt;/b&gt;&lt;br&gt;%Secondary-Text%" Badge-Text="" Icon-Name="database--mongodb" Primary-Label="Label" Secondary-Text="[Container:MongoDB]&#xa;Description" id="_AgKB0M8dqoUZbRrFaeX-52">
          <mxCell style="shape=image;ibmType=nodep;ibmLayout=collapsed;strokeColor=#0f62fe;fillColor=none;html=1;metaEdit=1;whiteSpace=wrap;fontFamily=IBM Plex Sans;fontSize=14;image=data:image/svg+xml,PHN2ZyBpZD0iTGF5ZXJfMSIgZGF0YS1uYW1lPSJMYXllciAxIiB4bWxucz0iaHR0cDovL3d3dy53My5vcmcvMjAwMC9zdmciIHZpZXdCb3g9IjAgMCA0OSA0OSI+PGRlZnM+PHN0eWxlPi5jbHMtMXtmaWxsOiMwZjYyZmU7fS5jbHMtMntmaWxsOm5vbmU7fS5jbHMtM3tmaWxsOiNmZmY7fTwvc3R5bGU+PC9kZWZzPjxyZWN0IGNsYXNzPSJjbHMtMSIgeD0iMC41IiB5PSIwLjUiIHdpZHRoPSI0OCIgaGVpZ2h0PSI0OCIvPjxyZWN0IGNsYXNzPSJjbHMtMiIgeD0iMTQuNSIgeT0iMTQuNSIgd2lkdGg9IjIwIiBoZWlnaHQ9IjIwIi8+PHBhdGggY2xhc3M9ImNscy0zIiBkPSJNMTUuOSwxOS40N0gxOGwyLjU3LDQuOWguMDZsMi41NC00LjloMi4wNnYxMGgtMS44VjIyLjNoLS4wNmwtLjc3LDEuNTktMi4wNiwzLjgtMi0zLjgtLjc4LTEuNTloLS4wNnY3LjJIMTUuOVoiLz48cGF0aCBjbGFzcz0iY2xzLTMiIGQ9Ik0zMC4zNCwzMi41NWMtMi41MywwLTMuNDktLjY2LTMuNDktMS43N2ExLjM5LDEuMzksMCwwLDEsMS4zNC0xLjQ0di0uMTZhMS4yMywxLjIzLDAsMCwxLTEtMS4yNWMwLS43Ny42Ny0xLjE2LDEuMzgtMS4zMnYtLjA2YTIuMjYsMi4yNiwwLDAsMS0xLjM2LTIuMThjMC0xLjUyLDEuMDgtMi41NCwzLjEtMi41NGE0LjE1LDQuMTUsMCwwLDEsMS4zMS4xOHYtLjI0YTEsMSwwLDAsMSwxLjA2LTEuMDloMS4xN3YxLjRoLTEuNnYuMjFhMi4yNCwyLjI0LDAsMCwxLDEuMTcsMi4wOGMwLDEuNTEtMS4wNywyLjUxLTMuMTEsMi41MWE0LjQ0LDQuNDQsMCwwLDEtMS4xNS0uMTMuNzkuNzksMCwwLDAtLjUzLjY4YzAsLjM3LjMyLjU2LDEsLjU2aDJjMS44NCwwLDIuNjMuNzksMi42MywyLjE0QzM0LjI4LDMxLjcsMzMuMjIsMzIuNTUsMzAuMzQsMzIuNTVabS45NC0zSDI4LjcyYS45Mi45MiwwLDAsMC0uMzkuNzdjMCwuNTguNDMuOTIsMS41OC45MmguOTJjMS4xOSwwLDEuNzMtLjMsMS43My0uOTNTMzIuMjEsMjkuNTksMzEuMjgsMjkuNTlabS40MS01LjExdi0uMjRjMC0uNzYtLjQ3LTEuMTUtMS4zNS0xLjE1UzI5LDIzLjQ4LDI5LDI0LjI0di4yNGMwLC43NS40OCwxLjE1LDEuMzUsMS4xNVMzMS42OSwyNS4yMywzMS42OSwyNC40OFoiLz48L3N2Zz4=;align=center;verticalAlign=top;labelPosition=center;verticalLabelPosition=bottom;spacing=0;spacingLeft=16;spacingRight=16;spacingTop=0;spacingBottom=4;" parent="1" vertex="1">
            <mxGeometry x="-1904" y="970" width="48" height="48" as="geometry" />
          </mxCell>
        </UserObject>
        <UserObject placeholders="1" label="&lt;b style=&#39;font-weight:600&#39;&gt;%Primary-Label%&lt;/b&gt;&lt;br&gt;%Secondary-Text%" Badge-Text="" Icon-Name="database--postgresql" Primary-Label="Label" Secondary-Text="[Container:PostreSQL]&#xa;Description" id="_AgKB0M8dqoUZbRrFaeX-53">
          <mxCell style="shape=image;ibmType=nodep;ibmLayout=collapsed;strokeColor=#0f62fe;fillColor=none;html=1;metaEdit=1;whiteSpace=wrap;fontFamily=IBM Plex Sans;fontSize=14;image=data:image/svg+xml,PHN2ZyBpZD0iTGF5ZXJfMSIgZGF0YS1uYW1lPSJMYXllciAxIiB4bWxucz0iaHR0cDovL3d3dy53My5vcmcvMjAwMC9zdmciIHZpZXdCb3g9IjAgMCA0OSA0OSI+PGRlZnM+PHN0eWxlPi5jbHMtMXtmaWxsOiMwZjYyZmU7fS5jbHMtMntmaWxsOm5vbmU7fS5jbHMtM3tmaWxsOiNmZmY7fTwvc3R5bGU+PC9kZWZzPjxyZWN0IGNsYXNzPSJjbHMtMSIgeD0iMC41IiB5PSIwLjUiIHdpZHRoPSI0OCIgaGVpZ2h0PSI0OCIvPjxyZWN0IGNsYXNzPSJjbHMtMiIgeD0iMTQuNSIgeT0iMTQuNSIgd2lkdGg9IjIwIiBoZWlnaHQ9IjIwIi8+PHBhdGggY2xhc3M9ImNscy0zIiBkPSJNMTcuMzgsMjkuNXYtMTBoNC41MWEyLjg0LDIuODQsMCwwLDEsMywzLjEsMi44NCwyLjg0LDAsMCwxLTMsMy4xMUgxOS4yN1YyOS41Wk0xOS4yNywyNGgyLjQ1QTEuMDYsMS4wNiwwLDAsMCwyMi45LDIyLjl2LS42NmExLDEsMCwwLDAtMS4xOC0xLjEySDE5LjI3WiIvPjxwYXRoIGNsYXNzPSJjbHMtMyIgZD0iTTI4Ljg2LDMyLjU1Yy0yLjUzLDAtMy40OS0uNjYtMy40OS0xLjc3YTEuMzksMS4zOSwwLDAsMSwxLjM0LTEuNDR2LS4xNmExLjIzLDEuMjMsMCwwLDEtMS0xLjI1YzAtLjc3LjY2LTEuMTYsMS4zOC0xLjMydi0uMDZhMi4yNiwyLjI2LDAsMCwxLTEuMzYtMi4xOGMwLTEuNTIsMS4wOC0yLjU0LDMuMS0yLjU0YTQuMTUsNC4xNSwwLDAsMSwxLjMxLjE4di0uMjRhMSwxLDAsMCwxLDEuMDYtMS4wOUgzMi40djEuNEgzMC44di4yMUEyLjI0LDIuMjQsMCwwLDEsMzIsMjQuMzdjMCwxLjUxLTEuMDcsMi41MS0zLjExLDIuNTFhNC40NCw0LjQ0LDAsMCwxLTEuMTUtLjEzLjc3Ljc3LDAsMCwwLS41My42OGMwLC4zNy4zMi41NiwxLC41NmgyYzEuODQsMCwyLjYzLjc5LDIuNjMsMi4xNEMzMi44LDMxLjcsMzEuNzQsMzIuNTUsMjguODYsMzIuNTVabS45NC0zSDI3LjI0YS45LjksMCwwLDAtLjM5Ljc3YzAsLjU4LjQzLjkyLDEuNTguOTJoLjkyYzEuMTksMCwxLjczLS4zLDEuNzMtLjkzUzMwLjczLDI5LjU5LDI5LjgsMjkuNTlabS40MS01LjExdi0uMjRjMC0uNzYtLjQ3LTEuMTUtMS4zNS0xLjE1cy0xLjM1LjM5LTEuMzUsMS4xNXYuMjRjMCwuNzUuNDgsMS4xNSwxLjM1LDEuMTVTMzAuMjEsMjUuMjMsMzAuMjEsMjQuNDhaIi8+PC9zdmc+;align=center;verticalAlign=top;labelPosition=center;verticalLabelPosition=bottom;spacing=0;spacingLeft=16;spacingRight=16;spacingTop=0;spacingBottom=4;" parent="1" vertex="1">
            <mxGeometry x="-1568" y="970" width="48" height="48" as="geometry" />
          </mxCell>
        </UserObject>
        <UserObject placeholders="1" label="&lt;b style=&#39;font-weight:600&#39;&gt;%Primary-Label%&lt;/b&gt;&lt;br&gt;%Secondary-Text%" Badge-Text="" Icon-Name="database--rabbit" Primary-Label="Label" Secondary-Text="[Container:RabbitDB]&#xa;Description" id="_AgKB0M8dqoUZbRrFaeX-54">
          <mxCell style="shape=image;ibmType=nodep;ibmLayout=collapsed;strokeColor=#0f62fe;fillColor=none;html=1;metaEdit=1;whiteSpace=wrap;fontFamily=IBM Plex Sans;fontSize=14;image=data:image/svg+xml,PHN2ZyBpZD0iTGF5ZXJfMSIgZGF0YS1uYW1lPSJMYXllciAxIiB4bWxucz0iaHR0cDovL3d3dy53My5vcmcvMjAwMC9zdmciIHZpZXdCb3g9IjAgMCA0OSA0OSI+PGRlZnM+PHN0eWxlPi5jbHMtMXtmaWxsOiMwZjYyZmU7fS5jbHMtMntmaWxsOm5vbmU7fS5jbHMtM3tmaWxsOiNmZmY7fTwvc3R5bGU+PC9kZWZzPjxyZWN0IGNsYXNzPSJjbHMtMSIgeD0iMC41IiB5PSIwLjUiIHdpZHRoPSI0OCIgaGVpZ2h0PSI0OCIvPjxyZWN0IGNsYXNzPSJjbHMtMiIgeD0iMTQuNSIgeT0iMTQuNSIgd2lkdGg9IjIwIiBoZWlnaHQ9IjIwIi8+PHBhdGggY2xhc3M9ImNscy0zIiBkPSJNMTguODYsMjkuNUgxN3YtMTBoNC41M2EyLjgzLDIuODMsMCwwLDEsMywzLjEsMi43NywyLjc3LDAsMCwxLTEuODcsMi44NWwyLjA1LDQuMDhIMjIuNTJsLTEuODctMy44N0gxOC44NlpNMjEuMywyNGExLjA2LDEuMDYsMCwwLDAsMS4xOC0xLjE0di0uNjZhMSwxLDAsMCwwLTEuMTgtMS4xMkgxOC44NlYyNFoiLz48cGF0aCBjbGFzcz0iY2xzLTMiIGQ9Ik0yNS43MSwyNy40NmMwLTEuNTQsMS4xNy0yLjMsMy4yMS0yLjNIMzAuMnYtLjU1YzAtLjgzLS40Mi0xLjMyLTEuNC0xLjMyYTIsMiwwLDAsMC0xLjcxLjk1bC0xLjA5LTFhMy4xNiwzLjE2LDAsMCwxLDIuOTMtMS40M2MyLDAsMy4xMSwxLDMuMTEsMi42N1YyOGguNzVWMjkuNWgtMWExLjM3LDEuMzcsMCwwLDEtMS40LTEuMjloLS4wOWEyLDIsMCwwLDEtMi4xOCwxLjQ2QTIuMTMsMi4xMywwLDAsMSwyNS43MSwyNy40NlptNC40OS0uMnYtMUgyOWMtMSwwLTEuNDQuMzMtMS40NC45MnYuMjRjMCwuNi40Mi45MSwxLjE0LjkxUzMwLjIsMjgsMzAuMiwyNy4yNloiLz48L3N2Zz4=;align=center;verticalAlign=top;labelPosition=center;verticalLabelPosition=bottom;spacing=0;spacingLeft=16;spacingRight=16;spacingTop=0;spacingBottom=4;" parent="1" vertex="1">
            <mxGeometry x="-1232" y="970" width="48" height="48" as="geometry" />
          </mxCell>
        </UserObject>
        <UserObject placeholders="1" label="&lt;b style=&#39;font-weight:600&#39;&gt;%Primary-Label%&lt;/b&gt;&lt;br&gt;%Secondary-Text%" Badge-Text="" Icon-Name="database--redis" Primary-Label="Label" Secondary-Text="[Container:Redis]&#xa;Description" id="_AgKB0M8dqoUZbRrFaeX-55">
          <mxCell style="shape=image;ibmType=nodep;ibmLayout=collapsed;strokeColor=#0f62fe;fillColor=none;html=1;metaEdit=1;whiteSpace=wrap;fontFamily=IBM Plex Sans;fontSize=14;image=data:image/svg+xml,PHN2ZyBpZD0iTGF5ZXJfMSIgZGF0YS1uYW1lPSJMYXllciAxIiB4bWxucz0iaHR0cDovL3d3dy53My5vcmcvMjAwMC9zdmciIHZpZXdCb3g9IjAgMCA0OSA0OSI+PGRlZnM+PHN0eWxlPi5jbHMtMXtmaWxsOiMwZjYyZmU7fS5jbHMtMntmaWxsOm5vbmU7fS5jbHMtM3tmaWxsOiNmZmY7fTwvc3R5bGU+PC9kZWZzPjxyZWN0IGNsYXNzPSJjbHMtMSIgeD0iMC41IiB5PSIwLjUiIHdpZHRoPSI0OCIgaGVpZ2h0PSI0OCIvPjxyZWN0IGNsYXNzPSJjbHMtMiIgeD0iMTQuNSIgeT0iMTQuNSIgd2lkdGg9IjIwIiBoZWlnaHQ9IjIwIi8+PHBhdGggY2xhc3M9ImNscy0zIiBkPSJNMTguNiwyOS41SDE2Ljd2LTEwaDQuNTNhMi44MywyLjgzLDAsMCwxLDMsMy4xLDIuNzcsMi43NywwLDAsMS0xLjg3LDIuODVsMi4wNiw0LjA4SDIyLjI2TDIwLjQsMjUuNjNIMTguNlpNMjEsMjRhMS4wNiwxLjA2LDAsMCwwLDEuMTgtMS4xNHYtLjY2QTEsMSwwLDAsMCwyMSwyMS4xMkgxOC42VjI0WiIvPjxwYXRoIGNsYXNzPSJjbHMtMyIgZD0iTTMwLjU3LDI4LjI1SDMwLjVhMi4xLDIuMSwwLDAsMS0yLjA3LDEuNDJjLTEuODgsMC0yLjkzLTEuNDItMi45My0zLjk0czEuMDUtMy45LDIuOTMtMy45YTIuMDYsMi4wNiwwLDAsMSwyLjA3LDEuNGguMDdWMTguODZoMS44NFYyOS41SDMwLjU3Wm0wLTEuMzJWMjQuNTRjMC0uNzMtLjY3LTEuMjEtMS41NS0xLjIxYTEuNiwxLjYsMCwwLDAtMS42LDEuNzd2MS4zQTEuNTksMS41OSwwLDAsMCwyOSwyOC4xNUMyOS45LDI4LjE1LDMwLjU3LDI3LjcsMzAuNTcsMjYuOTNaIi8+PC9zdmc+;align=center;verticalAlign=top;labelPosition=center;verticalLabelPosition=bottom;spacing=0;spacingLeft=16;spacingRight=16;spacingTop=0;spacingBottom=4;" parent="1" vertex="1">
            <mxGeometry x="-896" y="970" width="48" height="48" as="geometry" />
          </mxCell>
        </UserObject>
        <UserObject placeholders="1" label="&lt;b style=&quot;font-weight:600&quot;&gt;%Primary-Label%&lt;/b&gt;&lt;br&gt;%Secondary-Text%" Badge-Text="" Icon-Name="database--mongodb" Primary-Label="Label" Secondary-Text="[Container:MongoDB]&#xa;Description" id="_AgKB0M8dqoUZbRrFaeX-56">
          <mxCell style="shape=mxgraph.ibm.base;ibmType=nodel;ibmLayout=expanded;strokeColor=#0f62fe;fillColor=default;html=1;metaEdit=1;whiteSpace=wrap;fontFamily=IBM Plex Sans;fontSize=14;image=;align=center;verticalAlign=middle;labelPosition=center;verticalLabelPosition=middle;spacing=0;spacingLeft=9;spacingRight=16;spacingTop=7;spacingBottom=0;container=1;collapsible=0;expand=0;recursiveResize=0;" parent="1" vertex="1">
            <mxGeometry x="-2030" y="1110" width="300" height="70" as="geometry" />
          </mxCell>
        </UserObject>
        <mxCell id="wEJ2j6Q2r-iuzvhcd4Nl-76" value="" style="shape=image;aspect=fixed;image=data:image/svg+xml,PHN2ZyBpZD0iTGF5ZXJfMSIgZGF0YS1uYW1lPSJMYXllciAxIiB4bWxucz0iaHR0cDovL3d3dy53My5vcmcvMjAwMC9zdmciIHZpZXdCb3g9IjAgMCA0OSA0OSI+PGRlZnM+PHN0eWxlPi5jbHMtMXtmaWxsOiMwZjYyZmU7fS5jbHMtMntmaWxsOm5vbmU7fS5jbHMtM3tmaWxsOiNmZmY7fTwvc3R5bGU+PC9kZWZzPjxyZWN0IGNsYXNzPSJjbHMtMSIgeD0iMC41IiB5PSIwLjUiIHdpZHRoPSI0OCIgaGVpZ2h0PSI0OCIvPjxyZWN0IGNsYXNzPSJjbHMtMiIgeD0iMTQuNSIgeT0iMTQuNSIgd2lkdGg9IjIwIiBoZWlnaHQ9IjIwIi8+PHBhdGggY2xhc3M9ImNscy0zIiBkPSJNMTUuOSwxOS40N0gxOGwyLjU3LDQuOWguMDZsMi41NC00LjloMi4wNnYxMGgtMS44VjIyLjNoLS4wNmwtLjc3LDEuNTktMi4wNiwzLjgtMi0zLjgtLjc4LTEuNTloLS4wNnY3LjJIMTUuOVoiLz48cGF0aCBjbGFzcz0iY2xzLTMiIGQ9Ik0zMC4zNCwzMi41NWMtMi41MywwLTMuNDktLjY2LTMuNDktMS43N2ExLjM5LDEuMzksMCwwLDEsMS4zNC0xLjQ0di0uMTZhMS4yMywxLjIzLDAsMCwxLTEtMS4yNWMwLS43Ny42Ny0xLjE2LDEuMzgtMS4zMnYtLjA2YTIuMjYsMi4yNiwwLDAsMS0xLjM2LTIuMThjMC0xLjUyLDEuMDgtMi41NCwzLjEtMi41NGE0LjE1LDQuMTUsMCwwLDEsMS4zMS4xOHYtLjI0YTEsMSwwLDAsMSwxLjA2LTEuMDloMS4xN3YxLjRoLTEuNnYuMjFhMi4yNCwyLjI0LDAsMCwxLDEuMTcsMi4wOGMwLDEuNTEtMS4wNywyLjUxLTMuMTEsMi41MWE0LjQ0LDQuNDQsMCwwLDEtMS4xNS0uMTMuNzkuNzksMCwwLDAtLjUzLjY4YzAsLjM3LjMyLjU2LDEsLjU2aDJjMS44NCwwLDIuNjMuNzksMi42MywyLjE0QzM0LjI4LDMxLjcsMzMuMjIsMzIuNTUsMzAuMzQsMzIuNTVabS45NC0zSDI4LjcyYS45Mi45MiwwLDAsMC0uMzkuNzdjMCwuNTguNDMuOTIsMS41OC45MmguOTJjMS4xOSwwLDEuNzMtLjMsMS43My0uOTNTMzIuMjEsMjkuNTksMzEuMjgsMjkuNTlabS40MS01LjExdi0uMjRjMC0uNzYtLjQ3LTEuMTUtMS4zNS0xLjE1UzI5LDIzLjQ4LDI5LDI0LjI0di4yNGMwLC43NS40OCwxLjE1LDEuMzUsMS4xNVMzMS42OSwyNS4yMywzMS42OSwyNC40OFoiLz48L3N2Zz4=;fontSize=14;fontFamily=IBM Plex Sans;fontSource=fonts%2FIBMPlexSans-Regular.woff;labelPosition=center;verticalLabelPosition=bottom;align=center;verticalAlign=top;spacingTop=-7;" parent="_AgKB0M8dqoUZbRrFaeX-56" vertex="1">
          <mxGeometry width="39" height="39" as="geometry" />
        </mxCell>
        <UserObject placeholders="1" label="&lt;b style=&quot;font-weight:600&quot;&gt;%Primary-Label%&lt;/b&gt;&lt;br&gt;%Secondary-Text%" Badge-Text="" Icon-Name="database--postgresql" Primary-Label="Label" Secondary-Text="[Container:PostreSQL]&#xa;Description" id="_AgKB0M8dqoUZbRrFaeX-57">
          <mxCell style="shape=mxgraph.ibm.base;ibmType=nodel;ibmLayout=expanded;strokeColor=#0f62fe;fillColor=default;html=1;metaEdit=1;whiteSpace=wrap;fontFamily=IBM Plex Sans;fontSize=14;image=;align=center;verticalAlign=middle;labelPosition=center;verticalLabelPosition=middle;spacing=0;spacingLeft=9;spacingRight=16;spacingTop=7;spacingBottom=0;container=1;collapsible=0;expand=0;recursiveResize=0;" parent="1" vertex="1">
            <mxGeometry x="-1694" y="1110" width="300" height="70" as="geometry" />
          </mxCell>
        </UserObject>
        <mxCell id="wEJ2j6Q2r-iuzvhcd4Nl-77" value="" style="shape=image;aspect=fixed;image=data:image/svg+xml,PHN2ZyBpZD0iTGF5ZXJfMSIgZGF0YS1uYW1lPSJMYXllciAxIiB4bWxucz0iaHR0cDovL3d3dy53My5vcmcvMjAwMC9zdmciIHZpZXdCb3g9IjAgMCA0OSA0OSI+PGRlZnM+PHN0eWxlPi5jbHMtMXtmaWxsOiMwZjYyZmU7fS5jbHMtMntmaWxsOm5vbmU7fS5jbHMtM3tmaWxsOiNmZmY7fTwvc3R5bGU+PC9kZWZzPjxyZWN0IGNsYXNzPSJjbHMtMSIgeD0iMC41IiB5PSIwLjUiIHdpZHRoPSI0OCIgaGVpZ2h0PSI0OCIvPjxyZWN0IGNsYXNzPSJjbHMtMiIgeD0iMTQuNSIgeT0iMTQuNSIgd2lkdGg9IjIwIiBoZWlnaHQ9IjIwIi8+PHBhdGggY2xhc3M9ImNscy0zIiBkPSJNMTcuMzgsMjkuNXYtMTBoNC41MWEyLjg0LDIuODQsMCwwLDEsMywzLjEsMi44NCwyLjg0LDAsMCwxLTMsMy4xMUgxOS4yN1YyOS41Wk0xOS4yNywyNGgyLjQ1QTEuMDYsMS4wNiwwLDAsMCwyMi45LDIyLjl2LS42NmExLDEsMCwwLDAtMS4xOC0xLjEySDE5LjI3WiIvPjxwYXRoIGNsYXNzPSJjbHMtMyIgZD0iTTI4Ljg2LDMyLjU1Yy0yLjUzLDAtMy40OS0uNjYtMy40OS0xLjc3YTEuMzksMS4zOSwwLDAsMSwxLjM0LTEuNDR2LS4xNmExLjIzLDEuMjMsMCwwLDEtMS0xLjI1YzAtLjc3LjY2LTEuMTYsMS4zOC0xLjMydi0uMDZhMi4yNiwyLjI2LDAsMCwxLTEuMzYtMi4xOGMwLTEuNTIsMS4wOC0yLjU0LDMuMS0yLjU0YTQuMTUsNC4xNSwwLDAsMSwxLjMxLjE4di0uMjRhMSwxLDAsMCwxLDEuMDYtMS4wOUgzMi40djEuNEgzMC44di4yMUEyLjI0LDIuMjQsMCwwLDEsMzIsMjQuMzdjMCwxLjUxLTEuMDcsMi41MS0zLjExLDIuNTFhNC40NCw0LjQ0LDAsMCwxLTEuMTUtLjEzLjc3Ljc3LDAsMCwwLS41My42OGMwLC4zNy4zMi41NiwxLC41NmgyYzEuODQsMCwyLjYzLjc5LDIuNjMsMi4xNEMzMi44LDMxLjcsMzEuNzQsMzIuNTUsMjguODYsMzIuNTVabS45NC0zSDI3LjI0YS45LjksMCwwLDAtLjM5Ljc3YzAsLjU4LjQzLjkyLDEuNTguOTJoLjkyYzEuMTksMCwxLjczLS4zLDEuNzMtLjkzUzMwLjczLDI5LjU5LDI5LjgsMjkuNTlabS40MS01LjExdi0uMjRjMC0uNzYtLjQ3LTEuMTUtMS4zNS0xLjE1cy0xLjM1LjM5LTEuMzUsMS4xNXYuMjRjMCwuNzUuNDgsMS4xNSwxLjM1LDEuMTVTMzAuMjEsMjUuMjMsMzAuMjEsMjQuNDhaIi8+PC9zdmc+;fontFamily=IBM Plex Sans;fontSource=fonts%2FIBMPlexSans-Regular.woff;fontSize=14;labelPosition=center;verticalLabelPosition=bottom;align=center;verticalAlign=top;spacingTop=-7;" parent="_AgKB0M8dqoUZbRrFaeX-57" vertex="1">
          <mxGeometry x="-1" width="39" height="39" as="geometry" />
        </mxCell>
        <UserObject placeholders="1" label="&lt;b style=&quot;font-weight:600&quot;&gt;%Primary-Label%&lt;/b&gt;&lt;br&gt;%Secondary-Text%" Badge-Text="" Icon-Name="database--rabbit" Primary-Label="Label" Secondary-Text="[Container:RabbitDB]&#xa;Description" id="_AgKB0M8dqoUZbRrFaeX-58">
          <mxCell style="shape=mxgraph.ibm.base;ibmType=nodel;ibmLayout=expanded;strokeColor=#0f62fe;fillColor=default;html=1;metaEdit=1;whiteSpace=wrap;fontFamily=IBM Plex Sans;fontSize=14;image=;align=center;verticalAlign=middle;labelPosition=center;verticalLabelPosition=middle;spacing=0;spacingLeft=9;spacingRight=16;spacingTop=7;spacingBottom=0;container=1;collapsible=0;expand=0;recursiveResize=0;" parent="1" vertex="1">
            <mxGeometry x="-1358" y="1110" width="300" height="70" as="geometry" />
          </mxCell>
        </UserObject>
        <mxCell id="wEJ2j6Q2r-iuzvhcd4Nl-78" value="" style="shape=image;aspect=fixed;image=data:image/svg+xml,PHN2ZyBpZD0iTGF5ZXJfMSIgZGF0YS1uYW1lPSJMYXllciAxIiB4bWxucz0iaHR0cDovL3d3dy53My5vcmcvMjAwMC9zdmciIHZpZXdCb3g9IjAgMCA0OSA0OSI+PGRlZnM+PHN0eWxlPi5jbHMtMXtmaWxsOiMwZjYyZmU7fS5jbHMtMntmaWxsOm5vbmU7fS5jbHMtM3tmaWxsOiNmZmY7fTwvc3R5bGU+PC9kZWZzPjxyZWN0IGNsYXNzPSJjbHMtMSIgeD0iMC41IiB5PSIwLjUiIHdpZHRoPSI0OCIgaGVpZ2h0PSI0OCIvPjxyZWN0IGNsYXNzPSJjbHMtMiIgeD0iMTQuNSIgeT0iMTQuNSIgd2lkdGg9IjIwIiBoZWlnaHQ9IjIwIi8+PHBhdGggY2xhc3M9ImNscy0zIiBkPSJNMTguODYsMjkuNUgxN3YtMTBoNC41M2EyLjgzLDIuODMsMCwwLDEsMywzLjEsMi43NywyLjc3LDAsMCwxLTEuODcsMi44NWwyLjA1LDQuMDhIMjIuNTJsLTEuODctMy44N0gxOC44NlpNMjEuMywyNGExLjA2LDEuMDYsMCwwLDAsMS4xOC0xLjE0di0uNjZhMSwxLDAsMCwwLTEuMTgtMS4xMkgxOC44NlYyNFoiLz48cGF0aCBjbGFzcz0iY2xzLTMiIGQ9Ik0yNS43MSwyNy40NmMwLTEuNTQsMS4xNy0yLjMsMy4yMS0yLjNIMzAuMnYtLjU1YzAtLjgzLS40Mi0xLjMyLTEuNC0xLjMyYTIsMiwwLDAsMC0xLjcxLjk1bC0xLjA5LTFhMy4xNiwzLjE2LDAsMCwxLDIuOTMtMS40M2MyLDAsMy4xMSwxLDMuMTEsMi42N1YyOGguNzVWMjkuNWgtMWExLjM3LDEuMzcsMCwwLDEtMS40LTEuMjloLS4wOWEyLDIsMCwwLDEtMi4xOCwxLjQ2QTIuMTMsMi4xMywwLDAsMSwyNS43MSwyNy40NlptNC40OS0uMnYtMUgyOWMtMSwwLTEuNDQuMzMtMS40NC45MnYuMjRjMCwuNi40Mi45MSwxLjE0LjkxUzMwLjIsMjgsMzAuMiwyNy4yNloiLz48L3N2Zz4=;fontFamily=IBM Plex Sans;fontSource=fonts%2FIBMPlexSans-Regular.woff;fontSize=14;labelPosition=center;verticalLabelPosition=bottom;align=center;verticalAlign=top;spacingTop=-7;" parent="_AgKB0M8dqoUZbRrFaeX-58" vertex="1">
          <mxGeometry x="-1" width="39" height="39" as="geometry" />
        </mxCell>
        <UserObject placeholders="1" label="&lt;b style=&quot;font-weight:600&quot;&gt;%Primary-Label%&lt;/b&gt;&lt;br&gt;%Secondary-Text%" Badge-Text="" Icon-Name="database--rabbit" Primary-Label="Label" Secondary-Text="[Container:Redis]&#xa;Description" id="_AgKB0M8dqoUZbRrFaeX-59">
          <mxCell style="shape=mxgraph.ibm.base;ibmType=nodel;ibmLayout=expanded;strokeColor=#0f62fe;fillColor=default;html=1;metaEdit=1;whiteSpace=wrap;fontFamily=IBM Plex Sans;fontSize=14;image=;align=center;verticalAlign=middle;labelPosition=center;verticalLabelPosition=middle;spacing=0;spacingLeft=9;spacingRight=16;spacingTop=7;spacingBottom=0;container=1;collapsible=0;expand=0;recursiveResize=0;" parent="1" vertex="1">
            <mxGeometry x="-1022" y="1110" width="300" height="70" as="geometry" />
          </mxCell>
        </UserObject>
        <mxCell id="wEJ2j6Q2r-iuzvhcd4Nl-79" value="" style="shape=image;aspect=fixed;image=data:image/svg+xml,PHN2ZyBpZD0iTGF5ZXJfMSIgZGF0YS1uYW1lPSJMYXllciAxIiB4bWxucz0iaHR0cDovL3d3dy53My5vcmcvMjAwMC9zdmciIHZpZXdCb3g9IjAgMCA0OSA0OSI+PGRlZnM+PHN0eWxlPi5jbHMtMXtmaWxsOiMwZjYyZmU7fS5jbHMtMntmaWxsOm5vbmU7fS5jbHMtM3tmaWxsOiNmZmY7fTwvc3R5bGU+PC9kZWZzPjxyZWN0IGNsYXNzPSJjbHMtMSIgeD0iMC41IiB5PSIwLjUiIHdpZHRoPSI0OCIgaGVpZ2h0PSI0OCIvPjxyZWN0IGNsYXNzPSJjbHMtMiIgeD0iMTQuNSIgeT0iMTQuNSIgd2lkdGg9IjIwIiBoZWlnaHQ9IjIwIi8+PHBhdGggY2xhc3M9ImNscy0zIiBkPSJNMTguNiwyOS41SDE2Ljd2LTEwaDQuNTNhMi44MywyLjgzLDAsMCwxLDMsMy4xLDIuNzcsMi43NywwLDAsMS0xLjg3LDIuODVsMi4wNiw0LjA4SDIyLjI2TDIwLjQsMjUuNjNIMTguNlpNMjEsMjRhMS4wNiwxLjA2LDAsMCwwLDEuMTgtMS4xNHYtLjY2QTEsMSwwLDAsMCwyMSwyMS4xMkgxOC42VjI0WiIvPjxwYXRoIGNsYXNzPSJjbHMtMyIgZD0iTTMwLjU3LDI4LjI1SDMwLjVhMi4xLDIuMSwwLDAsMS0yLjA3LDEuNDJjLTEuODgsMC0yLjkzLTEuNDItMi45My0zLjk0czEuMDUtMy45LDIuOTMtMy45YTIuMDYsMi4wNiwwLDAsMSwyLjA3LDEuNGguMDdWMTguODZoMS44NFYyOS41SDMwLjU3Wm0wLTEuMzJWMjQuNTRjMC0uNzMtLjY3LTEuMjEtMS41NS0xLjIxYTEuNiwxLjYsMCwwLDAtMS42LDEuNzd2MS4zQTEuNTksMS41OSwwLDAsMCwyOSwyOC4xNUMyOS45LDI4LjE1LDMwLjU3LDI3LjcsMzAuNTcsMjYuOTNaIi8+PC9zdmc+;fontFamily=IBM Plex Sans;fontSource=fonts%2FIBMPlexSans-Regular.woff;fontSize=14;labelPosition=center;verticalLabelPosition=bottom;align=center;verticalAlign=top;spacingTop=-6;" parent="_AgKB0M8dqoUZbRrFaeX-59" vertex="1">
          <mxGeometry x="-1" width="39" height="39" as="geometry" />
        </mxCell>
        <UserObject placeholders="1" label="&lt;b style=&#39;font-weight:600&#39;&gt;%Primary-Label%&lt;/b&gt;&lt;br&gt;%Secondary-Text%" Badge-Text="" Icon-Name="database--etcd" Primary-Label="Label" Secondary-Text="[Container:ETCD]&#xa;Description" id="_AgKB0M8dqoUZbRrFaeX-60">
          <mxCell style="shape=image;ibmType=nodep;ibmLayout=collapsed;strokeColor=#0f62fe;fillColor=none;html=1;metaEdit=1;whiteSpace=wrap;fontFamily=IBM Plex Sans;fontSize=14;image=data:image/svg+xml,PHN2ZyBpZD0iTGF5ZXJfMSIgZGF0YS1uYW1lPSJMYXllciAxIiB4bWxucz0iaHR0cDovL3d3dy53My5vcmcvMjAwMC9zdmciIHZpZXdCb3g9IjAgMCA0OSA0OSI+PGRlZnM+PHN0eWxlPi5jbHMtMXtmaWxsOiMwZjYyZmU7fS5jbHMtMntmaWxsOm5vbmU7fS5jbHMtM3tmaWxsOiNmZmY7fTwvc3R5bGU+PC9kZWZzPjxyZWN0IGNsYXNzPSJjbHMtMSIgeD0iMC41IiB5PSIwLjUiIHdpZHRoPSI0OCIgaGVpZ2h0PSI0OCIvPjxyZWN0IGNsYXNzPSJjbHMtMiIgeD0iMTQuNSIgeT0iMTQuNSIgd2lkdGg9IjIwIiBoZWlnaHQ9IjIwIi8+PHBhdGggY2xhc3M9ImNscy0zIiBkPSJNMTguNjgsMjkuNXYtMTBoNi42MXYxLjY4SDIwLjU3djIuNDNoNC4xN3YxLjY4SDIwLjU3djIuNTZoNC43MlYyOS41WiIvPjxwYXRoIGNsYXNzPSJjbHMtMyIgZD0iTTI3LjU5LDI3LjU5VjIzLjQ2SDI2LjQ4VjIyaC41OGMuNTQsMCwuNzItLjI2LjcyLS43OFYxOS45NGgxLjY1VjIySDMxdjEuNDZIMjkuNDNWMjhoMS40MlYyOS41SDI5LjUzQTEuNzQsMS43NCwwLDAsMSwyNy41OSwyNy41OVoiLz48L3N2Zz4=;align=center;verticalAlign=top;labelPosition=center;verticalLabelPosition=bottom;spacing=0;spacingLeft=16;spacingRight=16;spacingTop=0;spacingBottom=4;" parent="1" vertex="1">
            <mxGeometry x="-560" y="970" width="48" height="48" as="geometry" />
          </mxCell>
        </UserObject>
        <UserObject placeholders="1" label="&lt;b style=&quot;font-weight:600&quot;&gt;%Primary-Label%&lt;/b&gt;&lt;br&gt;%Secondary-Text%" Badge-Text="" Icon-Name="database--etcd" Primary-Label="Label" Secondary-Text="[Container:ETCD]&#xa;Description" id="_AgKB0M8dqoUZbRrFaeX-61">
          <mxCell style="shape=mxgraph.ibm.base;ibmType=nodel;ibmLayout=expanded;strokeColor=#0f62fe;fillColor=default;html=1;metaEdit=1;whiteSpace=wrap;fontFamily=IBM Plex Sans;fontSize=14;image=;align=center;verticalAlign=middle;labelPosition=center;verticalLabelPosition=middle;spacing=0;spacingLeft=9;spacingRight=16;spacingTop=7;spacingBottom=0;container=1;collapsible=0;expand=0;recursiveResize=0;" parent="1" vertex="1">
            <mxGeometry x="-686" y="1110" width="300" height="70" as="geometry" />
          </mxCell>
        </UserObject>
        <mxCell id="wEJ2j6Q2r-iuzvhcd4Nl-80" value="" style="shape=image;aspect=fixed;image=data:image/svg+xml,PHN2ZyBpZD0iTGF5ZXJfMSIgZGF0YS1uYW1lPSJMYXllciAxIiB4bWxucz0iaHR0cDovL3d3dy53My5vcmcvMjAwMC9zdmciIHZpZXdCb3g9IjAgMCA0OSA0OSI+PGRlZnM+PHN0eWxlPi5jbHMtMXtmaWxsOiMwZjYyZmU7fS5jbHMtMntmaWxsOm5vbmU7fS5jbHMtM3tmaWxsOiNmZmY7fTwvc3R5bGU+PC9kZWZzPjxyZWN0IGNsYXNzPSJjbHMtMSIgeD0iMC41IiB5PSIwLjUiIHdpZHRoPSI0OCIgaGVpZ2h0PSI0OCIvPjxyZWN0IGNsYXNzPSJjbHMtMiIgeD0iMTQuNSIgeT0iMTQuNSIgd2lkdGg9IjIwIiBoZWlnaHQ9IjIwIi8+PHBhdGggY2xhc3M9ImNscy0zIiBkPSJNMTguNjgsMjkuNXYtMTBoNi42MXYxLjY4SDIwLjU3djIuNDNoNC4xN3YxLjY4SDIwLjU3djIuNTZoNC43MlYyOS41WiIvPjxwYXRoIGNsYXNzPSJjbHMtMyIgZD0iTTI3LjU5LDI3LjU5VjIzLjQ2SDI2LjQ4VjIyaC41OGMuNTQsMCwuNzItLjI2LjcyLS43OFYxOS45NGgxLjY1VjIySDMxdjEuNDZIMjkuNDNWMjhoMS40MlYyOS41SDI5LjUzQTEuNzQsMS43NCwwLDAsMSwyNy41OSwyNy41OVoiLz48L3N2Zz4=;fontFamily=IBM Plex Sans;fontSource=fonts%2FIBMPlexSans-Regular.woff;fontSize=14;labelPosition=center;verticalLabelPosition=bottom;align=center;verticalAlign=top;spacingTop=-7;" parent="_AgKB0M8dqoUZbRrFaeX-61" vertex="1">
          <mxGeometry x="-1" width="39" height="39" as="geometry" />
        </mxCell>
      </root>
    </mxGraphModel>
  </diagram>
</mxfile>
